<?xml version="1.0" encoding="utf-8"?>
<!-- Generator: Adobe Illustrator 22.1.0, SVG Export Plug-In . SVG Version: 6.00 Build 0)  -->
<svg version="1.1" id="Layer_1" xmlns="http://www.w3.org/2000/svg" xmlns:xlink="http://www.w3.org/1999/xlink" x="0px" y="0px"
	 width="960px" height="657px" viewBox="0 0 960 657" style="enable-background:new 0 0 960 657;" xml:space="preserve">
<g>
	<g>
		<path d="M117.9,151.9c31.6,0,41.1,2.8,54.2,15.8c11.5,11.5,16.2,26.5,16.2,50.6c0,33.2-5.6,47.1-23.8,58.5
			c21.4,8.3,28.5,23.3,28.4,61.3c0,31.6-3.6,46.3-13.9,58.5c-11.5,13.4-28.5,19-57.8,19l-36.8,0l0.1-263.8L117.9,151.9z
			 M124.9,381.3c25.7,0,31.3-7.9,31.3-42.7c0-34.8-5.5-42.7-31.2-42.7h-3.6l0,85.4H124.9z M126.5,261.5c21.4,0,25.7-6.7,25.7-39.9
			c0-28.1-5.1-35.2-25.7-35.2h-5.1l0,75.2H126.5z"/>
		<path d="M252.2,415.8l-36.8,0l0.1-263.8l36.8,0L252.2,415.8z"/>
		<path d="M385.9,415.9l-19.8,0l-5.5-18.2c-10.3,15-21.4,22.1-34,22.1c-15.4,0-30.1-9.1-37.6-23.4c-5.9-11.1-7.5-21.8-7.5-45.5
			l0.1-139.6c0-41.9,17.4-63.3,52.2-63.3c35.2,0,53,23,53,68.8c0,5.5,0,10.7-0.8,21l-36.8,0c0.8-8.7,0.8-12.3,0.8-18.2
			c0-29.3-3.5-37.2-16.6-37.2c-11.9,0-15,5.9-15,28.9L318.3,351c0,19.4,0.4,22.2,2.4,26.5c2.8,5.5,7.1,8.3,12.6,8.3
			c5.9,0,11.1-3.6,13.5-9.5c2-4.3,2.4-8.3,2.4-25.3l0-38l-16.2,0l0-31.2l53,0L385.9,415.9z"/>
	</g>
	<g>
		<path d="M460.3,108.3l-32.3,0l0-32.3l100.7,0l0,32.3l-33.8,0l-0.1,215.5l-34.5,0L460.3,108.3z"/>
		<path d="M562,323.8l-33.4,0L562.5,76l44.6,0l32.2,247.8l-33.8,0l-6.3-55.7l-31.2,0L562,323.8z M583.6,121l-11.9,114.8l23.8,0
			L583.6,121z"/>
		<path d="M664.3,76l34.5,0l-0.1,215.5l49,0l0,32.3l-83.6,0L664.3,76z"/>
		<path d="M883.6,323.9l-36,0l-25.6-117l-14.9,40.5l0,76.5l-34.5,0l0.1-247.8l34.5,0l0,93.2L841,76.1l35.3,0L845,159.7L883.6,323.9z
			"/>
	</g>
	<path d="M181.6,657V494.4H0L0,76.2h360.1V0H960v404.2H737.1v171.1l-84.5-171.1H492.4v92.3l-215.6-2L181.6,657z M32.2,462.2h179.7
		v94.1l42.1-94.1l206.3,2V372h211.4l39.4,92.7V372h216.9V32.2H390.3v76.2H32.2V462.2z"/>
</g>
</svg>
