<?xml version="1.0" encoding="utf-8"?>

<!DOCTYPE svg PUBLIC "-//W3C//DTD SVG 1.1//EN" "http://www.w3.org/Graphics/SVG/1.1/DTD/svg11.dtd">
<svg version="1.1" id="Layer_1" xmlns="http://www.w3.org/2000/svg" xmlns:xlink="http://www.w3.org/1999/xlink" x="0px" y="0px"
	 viewBox="0 0 1645.796 1645.796" enable-background="new 0 0 1645.796 1645.796" xml:space="preserve">
<g>
	<path d="M822.898,22.957c-0.003-0.02-0.006-0.04-0.008-0.059c-4.073,25.668-48.46,44.201-55.704,78.632
		c-17.07,4.564-33.055,21.96-41.6,37.194c-3.69-0.041-7.38-0.08-11.069-0.12c-3.497,1.178-6.994,2.356-10.491,3.535
		c-12.835-11.848-33.412-23.453-51.057-22.518c-17.529-30.508-65.471-34.417-77.276-57.57c0.003,0.02,0.007,0.039,0.01,0.059
		c-0.009-0.018-0.018-0.036-0.026-0.054c4.059,25.671-32.429,57.012-28.679,91.997c-14.824,9.616-24.651,31.099-28.07,48.228
		c-3.522,1.102-7.043,2.204-10.565,3.307c-2.962,2.201-5.924,4.402-8.885,6.603c-15.868-7.302-39.024-11.98-55.517-5.639
		c-26.099-23.598-72.902-12.501-91.284-30.873c0.009,0.018,0.019,0.035,0.028,0.053c-0.014-0.014-0.028-0.029-0.042-0.043
		c11.793,23.16-13.224,64.243,1.154,96.357c-11.127,13.726-13.834,37.195-11.793,54.542c-3.009,2.136-6.018,4.273-9.026,6.41
		c-2.137,3.008-4.273,6.017-6.41,9.026c-17.347-2.041-40.816,0.666-54.542,11.793c-32.114-14.378-73.197,10.639-96.357-1.154
		c0.014,0.014,0.029,0.028,0.043,0.042c-0.018-0.009-0.035-0.019-0.053-0.028c18.372,18.383,7.275,65.185,30.873,91.284
		c-6.341,16.492-1.663,39.649,5.639,55.517c-2.202,2.961-4.403,5.923-6.603,8.885c-1.103,3.521-2.205,7.043-3.307,10.565
		c-17.129,3.419-38.613,13.246-48.228,28.07c-34.985-3.75-66.327,32.737-91.997,28.679c0.018,0.009,0.036,0.018,0.054,0.026
		c-0.02-0.003-0.039-0.007-0.059-0.01c23.154,11.805,27.063,59.747,57.57,77.276c-0.934,17.645,10.67,38.223,22.518,51.057
		c-1.179,3.497-2.357,6.994-3.535,10.491c0.039,3.69,0.079,7.38,0.12,11.069c-15.234,8.545-32.63,24.53-37.194,41.6
		c-34.432,7.244-52.964,51.631-78.632,55.704c0.02,0.003,0.04,0.006,0.059,0.008c-0.02,0.003-0.04,0.006-0.059,0.008
		c25.668,4.073,44.201,48.46,78.632,55.704c4.564,17.07,21.96,33.055,37.194,41.6c-0.041,3.69-0.08,7.38-0.12,11.069
		c1.178,3.497,2.356,6.994,3.535,10.491c-11.848,12.835-23.453,33.412-22.518,51.057c-30.508,17.529-34.417,65.471-57.57,77.276
		c0.02-0.003,0.039-0.007,0.059-0.01c-0.018,0.009-0.036,0.018-0.054,0.026c25.671-4.059,57.012,32.429,91.997,28.679
		c9.616,14.824,31.099,24.651,48.228,28.07c1.102,3.522,2.204,7.043,3.307,10.565c2.201,2.962,4.402,5.924,6.603,8.885
		c-7.302,15.868-11.98,39.024-5.639,55.517c-23.598,26.099-12.501,72.902-30.873,91.284c0.018-0.009,0.035-0.019,0.053-0.028
		c-0.014,0.014-0.029,0.028-0.043,0.042c23.16-11.792,64.243,13.224,96.357-1.154c13.726,11.127,37.195,13.834,54.542,11.793
		c2.136,3.009,4.273,6.017,6.41,9.026c3.008,2.137,6.017,4.274,9.026,6.41c-2.041,17.347,0.666,40.816,11.793,54.542
		c-14.378,32.114,10.639,73.197-1.154,96.357c0.014-0.014,0.028-0.029,0.042-0.043c-0.009,0.018-0.019,0.035-0.028,0.053
		c18.383-18.372,65.185-7.275,91.284-30.873c16.492,6.341,39.649,1.663,55.517-5.639c2.961,2.202,5.923,4.403,8.885,6.603
		c3.521,1.103,7.043,2.205,10.565,3.307c3.419,17.129,13.246,38.613,28.07,48.229c-3.75,34.985,32.737,66.327,28.679,91.997
		c0.009-0.018,0.018-0.036,0.026-0.054c-0.003,0.02-0.007,0.039-0.01,0.059c11.805-23.154,59.747-27.063,77.276-57.57
		c17.645,0.934,38.223-10.671,51.057-22.518c3.497,1.179,6.994,2.357,10.491,3.535c3.69-0.039,7.38-0.079,11.069-0.12
		c8.545,15.234,24.53,32.63,41.6,37.194c7.244,34.432,51.631,52.964,55.704,78.632c0.003-0.02,0.006-0.04,0.008-0.059
		c0.003,0.02,0.006,0.04,0.008,0.059c4.073-25.669,48.46-44.201,55.704-78.632c17.07-4.564,33.055-21.96,41.6-37.194
		c3.69,0.041,7.38,0.081,11.069,0.12c3.497-1.178,6.994-2.356,10.491-3.535c12.835,11.848,33.412,23.453,51.057,22.518
		c17.529,30.508,65.471,34.417,77.276,57.57c-0.003-0.02-0.007-0.039-0.01-0.059c0.009,0.018,0.018,0.036,0.026,0.054
		c-4.059-25.671,32.429-57.012,28.679-91.997c14.824-9.615,24.651-31.099,28.07-48.229c3.522-1.102,7.043-2.204,10.565-3.307
		c2.962-2.201,5.924-4.402,8.885-6.603c15.868,7.302,39.024,11.98,55.517,5.639c26.099,23.598,72.902,12.501,91.284,30.873
		c-0.009-0.018-0.019-0.035-0.028-0.053c0.014,0.014,0.028,0.029,0.042,0.043c-11.792-23.16,13.224-64.243-1.154-96.357
		c11.127-13.726,13.834-37.195,11.793-54.542c3.009-2.136,6.017-4.273,9.026-6.41c2.137-3.008,4.274-6.017,6.41-9.026
		c17.347,2.041,40.816-0.666,54.542-11.793c32.114,14.378,73.197-10.639,96.357,1.154c-0.014-0.014-0.029-0.028-0.043-0.042
		c0.018,0.009,0.035,0.019,0.053,0.028c-18.372-18.383-7.275-65.186-30.873-91.284c6.341-16.492,1.663-39.649-5.639-55.517
		c2.202-2.961,4.403-5.923,6.603-8.885c1.103-3.521,2.205-7.043,3.307-10.565c17.129-3.419,38.613-13.246,48.229-28.07
		c34.985,3.75,66.327-32.737,91.997-28.679c-0.018-0.009-0.036-0.018-0.054-0.026c0.02,0.003,0.039,0.007,0.059,0.01
		c-23.154-11.805-27.063-59.747-57.57-77.276c0.934-17.645-10.671-38.223-22.518-51.057c1.179-3.497,2.357-6.994,3.535-10.491
		c-0.039-3.69-0.079-7.38-0.12-11.069c15.234-8.545,32.63-24.53,37.194-41.6c34.432-7.244,52.964-51.631,78.632-55.704
		c-0.02-0.003-0.04-0.006-0.059-0.008c0.02-0.003,0.04-0.006,0.059-0.008c-25.669-4.073-44.201-48.46-78.632-55.704
		c-4.564-17.07-21.96-33.055-37.194-41.6c0.041-3.69,0.081-7.38,0.12-11.069c-1.178-3.497-2.356-6.994-3.535-10.491
		c11.848-12.835,23.453-33.412,22.518-51.057c30.508-17.529,34.417-65.471,57.57-77.276c-0.02,0.003-0.039,0.007-0.059,0.01
		c0.018-0.009,0.036-0.018,0.054-0.026c-25.671,4.059-57.012-32.429-91.997-28.679c-9.615-14.824-31.099-24.651-48.229-28.07
		c-1.102-3.522-2.204-7.043-3.307-10.565c-2.201-2.962-4.402-5.924-6.603-8.885c7.302-15.868,11.98-39.024,5.639-55.517
		c23.598-26.099,12.501-72.902,30.873-91.284c-0.018,0.009-0.035,0.019-0.053,0.028c0.014-0.014,0.029-0.028,0.043-0.042
		c-23.16,11.793-64.243-13.224-96.357,1.154c-13.726-11.127-37.195-13.834-54.542-11.793c-2.136-3.009-4.273-6.018-6.41-9.026
		c-3.008-2.137-6.017-4.273-9.026-6.41c2.041-17.347-0.666-40.816-11.793-54.542c14.378-32.114-10.639-73.197,1.154-96.357
		c-0.014,0.014-0.028,0.029-0.042,0.043c0.009-0.018,0.019-0.035,0.028-0.053c-18.383,18.372-65.186,7.275-91.284,30.873
		c-16.492-6.341-39.649-1.663-55.517,5.639c-2.961-2.202-5.923-4.403-8.885-6.603c-3.521-1.103-7.043-2.205-10.565-3.307
		c-3.419-17.129-13.246-38.613-28.07-48.228c3.75-34.985-32.737-66.327-28.679-91.997c-0.009,0.018-0.018,0.036-0.026,0.054
		c0.003-0.02,0.007-0.039,0.01-0.059c-11.805,23.154-59.747,27.063-77.276,57.57c-17.645-0.934-38.223,10.67-51.057,22.518
		c-3.497-1.179-6.994-2.357-10.491-3.535c-3.69,0.039-7.38,0.079-11.069,0.12c-8.545-15.234-24.53-32.63-41.6-37.194
		c-7.244-34.432-51.631-52.964-55.704-78.632C822.904,22.918,822.901,22.938,822.898,22.957z M716.368,150.294
		c5.767,0.053,11.534,0.107,17.3,0.159c4.329-12.572,20.33-34.5,40.527-38.36c4.211-20.063,21.167-34.976,34.853-48.393
		c11.765-11.499,13.337-14.759,13.85-15.178c0.512,0.419,2.085,3.679,13.85,15.178c13.686,13.418,30.642,28.33,34.853,48.393
		c20.197,3.86,36.198,25.788,40.527,38.36c5.767-0.053,11.534-0.106,17.3-0.159c5.468,1.833,10.936,3.665,16.404,5.498
		c8.002-10.619,29.996-26.529,50.397-23.959c10.205-17.78,30.94-26.723,48.102-35.254c14.742-7.3,17.245-9.915,17.862-10.155
		c0.358,0.556,0.846,4.143,8.482,18.715c8.87,16.99,20.388,36.412,18.193,56.795c18.016,9.912,26.457,35.712,26.689,49.006
		c5.501,1.732,11.002,3.464,16.503,5.195c4.634,3.433,9.268,6.865,13.903,10.298c10.892-7.626,36.725-15.962,55.334-7.213
		c15.2-13.756,37.683-15.854,56.641-18.665c16.277-2.388,19.465-4.101,20.126-4.138c0.168,0.64-0.476,4.202,2.283,20.42
		c3.185,18.899,8.138,40.93-0.248,59.637c14.071,14.994,14.127,42.139,10.24,54.855c4.696,3.347,9.393,6.694,14.09,10.04
		c3.346,4.697,6.693,9.393,10.04,14.09c12.716-3.887,39.861-3.832,54.855,10.24c18.707-8.386,40.738-3.433,59.637-0.248
		c16.218,2.759,19.78,2.115,20.42,2.283c-0.038,0.66-1.751,3.849-4.138,20.126c-2.811,18.959-4.909,41.442-18.665,56.641
		c8.749,18.609,0.413,44.442-7.213,55.334c3.432,4.634,6.865,9.269,10.298,13.903c1.731,5.501,3.463,11.002,5.195,16.503
		c13.294,0.233,39.094,8.674,49.006,26.689c20.382-2.195,39.805,9.323,56.795,18.193c14.571,7.636,18.158,8.124,18.715,8.482
		c-0.24,0.616-2.855,3.12-10.155,17.862c-8.532,17.162-17.475,37.897-35.254,48.102c2.57,20.402-13.34,42.395-23.959,50.397
		c1.832,5.468,3.665,10.936,5.497,16.404c-0.053,5.767-0.107,11.534-0.159,17.3c12.572,4.329,34.5,20.33,38.36,40.527
		c20.063,4.211,34.976,21.167,48.393,34.853c11.499,11.765,14.759,13.337,15.178,13.85c-0.419,0.512-3.679,2.085-15.178,13.85
		c-13.417,13.686-28.33,30.642-48.393,34.853c-3.86,20.197-25.788,36.198-38.36,40.527c0.053,5.767,0.106,11.534,0.159,17.3
		c-1.833,5.468-3.665,10.936-5.497,16.404c10.619,8.002,26.529,29.996,23.959,50.397c17.78,10.205,26.723,30.94,35.254,48.102
		c7.3,14.742,9.915,17.245,10.155,17.862c-0.556,0.358-4.143,0.846-18.715,8.482c-16.99,8.87-36.412,20.388-56.795,18.193
		c-9.912,18.016-35.712,26.457-49.006,26.689c-1.732,5.501-3.464,11.002-5.195,16.503c-3.433,4.634-6.865,9.268-10.298,13.903
		c7.626,10.892,15.962,36.725,7.213,55.334c13.756,15.2,15.854,37.683,18.665,56.641c2.387,16.277,4.101,19.465,4.138,20.126
		c-0.64,0.168-4.202-0.476-20.42,2.283c-18.899,3.185-40.93,8.138-59.637-0.248c-14.994,14.071-42.139,14.127-54.855,10.24
		c-3.347,4.696-6.694,9.393-10.04,14.09c-4.697,3.346-9.394,6.693-14.09,10.04c3.887,12.716,3.832,39.861-10.24,54.855
		c8.386,18.707,3.433,40.738,0.248,59.637c-2.759,16.218-2.115,19.78-2.283,20.42c-0.66-0.038-3.849-1.751-20.126-4.138
		c-18.959-2.811-41.442-4.909-56.641-18.665c-18.609,8.749-44.442,0.413-55.334-7.213c-4.635,3.432-9.269,6.865-13.903,10.298
		c-5.501,1.731-11.002,3.463-16.503,5.195c-0.233,13.294-8.674,39.094-26.689,49.006c2.195,20.382-9.323,39.805-18.193,56.795
		c-7.636,14.571-8.124,18.158-8.482,18.715c-0.616-0.24-3.12-2.855-17.862-10.155c-17.162-8.532-37.897-17.475-48.102-35.254
		c-20.402,2.57-42.395-13.34-50.397-23.959c-5.468,1.832-10.936,3.665-16.404,5.497c-5.767-0.053-11.534-0.107-17.3-0.159
		c-4.329,12.572-20.33,34.5-40.527,38.36c-4.211,20.063-21.167,34.976-34.853,48.393c-11.765,11.499-13.337,14.759-13.85,15.178
		c-0.512-0.419-2.085-3.679-13.85-15.178c-13.686-13.417-30.642-28.33-34.853-48.393c-20.197-3.86-36.198-25.788-40.527-38.36
		c-5.767,0.053-11.534,0.106-17.3,0.159c-5.468-1.833-10.936-3.665-16.404-5.497c-8.002,10.619-29.996,26.529-50.397,23.959
		c-10.205,17.78-30.939,26.723-48.102,35.254c-14.742,7.3-17.245,9.915-17.862,10.155c-0.358-0.556-0.846-4.143-8.482-18.715
		c-8.87-16.99-20.388-36.412-18.193-56.795c-18.016-9.912-26.457-35.712-26.689-49.006c-5.501-1.732-11.002-3.464-16.503-5.195
		c-4.634-3.433-9.268-6.865-13.903-10.298c-10.892,7.626-36.726,15.962-55.334,7.213c-15.2,13.756-37.683,15.854-56.641,18.665
		c-16.277,2.387-19.465,4.101-20.126,4.138c-0.168-0.64,0.476-4.202-2.283-20.42c-3.185-18.899-8.138-40.93,0.248-59.637
		c-14.071-14.994-14.127-42.139-10.24-54.855c-4.696-3.347-9.393-6.694-14.09-10.04c-3.346-4.697-6.693-9.394-10.04-14.09
		c-12.716,3.887-39.86,3.832-54.855-10.24c-18.707,8.386-40.738,3.433-59.637,0.248c-16.218-2.759-19.78-2.115-20.42-2.283
		c0.038-0.66,1.751-3.849,4.138-20.126c2.811-18.959,4.909-41.442,18.665-56.641c-8.749-18.609-0.413-44.442,7.213-55.334
		c-3.432-4.635-6.865-9.269-10.298-13.903c-1.731-5.501-3.463-11.002-5.195-16.503c-13.294-0.233-39.094-8.674-49.006-26.689
		c-20.382,2.195-39.805-9.323-56.795-18.193c-14.571-7.636-18.158-8.124-18.715-8.482c0.24-0.616,2.855-3.12,10.155-17.862
		c8.532-17.162,17.475-37.897,35.254-48.102c-2.57-20.402,13.34-42.395,23.959-50.397c-1.832-5.468-3.665-10.936-5.498-16.404
		c0.053-5.767,0.107-11.534,0.159-17.3c-12.572-4.329-34.5-20.33-38.36-40.527c-20.063-4.211-34.976-21.167-48.393-34.853
		c-11.499-11.765-14.759-13.337-15.178-13.85c0.419-0.512,3.679-2.085,15.178-13.85c13.418-13.686,28.33-30.642,48.393-34.853
		c3.86-20.197,25.788-36.198,38.36-40.527c-0.053-5.767-0.106-11.534-0.159-17.3c1.833-5.468,3.665-10.936,5.498-16.404
		c-10.619-8.002-26.529-29.996-23.959-50.397c-17.78-10.205-26.723-30.939-35.254-48.102c-7.3-14.742-9.915-17.245-10.155-17.862
		c0.556-0.358,4.143-0.846,18.715-8.482c16.99-8.87,36.412-20.388,56.795-18.193c9.912-18.016,35.712-26.457,49.006-26.689
		c1.732-5.501,3.464-11.002,5.195-16.503c3.433-4.634,6.865-9.268,10.298-13.903c-7.626-10.892-15.962-36.726-7.213-55.334
		c-13.756-15.2-15.854-37.683-18.665-56.641c-2.388-16.277-4.101-19.465-4.138-20.126c0.64-0.168,4.202,0.476,20.42-2.283
		c18.899-3.185,40.93-8.138,59.637,0.248c14.994-14.071,42.139-14.127,54.855-10.24c3.347-4.696,6.694-9.393,10.04-14.09
		c4.697-3.346,9.393-6.693,14.09-10.04c-3.887-12.716-3.832-39.86,10.24-54.855c-8.386-18.707-3.433-40.738-0.248-59.637
		c2.759-16.218,2.115-19.78,2.283-20.42c0.66,0.038,3.849,1.751,20.126,4.138c18.959,2.811,41.442,4.909,56.641,18.665
		c18.609-8.749,44.442-0.413,55.334,7.213c4.634-3.432,9.269-6.865,13.903-10.298c5.501-1.731,11.002-3.463,16.503-5.195
		c0.233-13.294,8.674-39.094,26.689-49.006c-2.195-20.382,9.323-39.805,18.193-56.795c7.636-14.571,8.124-18.158,8.482-18.715
		c0.616,0.24,3.12,2.855,17.862,10.155c17.162,8.532,37.897,17.475,48.102,35.254c20.402-2.57,42.395,13.34,50.397,23.959
		C705.432,153.96,710.9,152.127,716.368,150.294z"/>
	<path d="M733.949,261.298c0.727,0.619,1.4,1.26,2.013,1.92c19.188,23.712,19.507,49.106,8.494,64.417
		c-15.206-11.158-22.75-35.408-11.828-63.889C733.008,262.929,733.449,262.112,733.949,261.298z M564.759,316.272
		c0.883,0.364,1.72,0.766,2.508,1.204c25.576,16.621,33.727,40.674,27.984,58.639c-17.91-5.913-32.578-26.645-30.992-57.107
		C564.367,318.114,564.535,317.2,564.759,316.272z M420.837,420.837c0.952,0.074,1.873,0.197,2.757,0.37
		c29.461,7.904,44.646,28.261,44.735,47.122c-18.861-0.089-39.218-15.274-47.122-44.735
		C421.034,422.71,420.911,421.79,420.837,420.837z M316.272,564.759c0.928-0.224,1.842-0.392,2.736-0.5
		c30.462-1.586,51.194,13.082,57.107,30.992c-17.965,5.743-42.018-2.407-58.639-27.984
		C317.037,566.479,316.636,565.642,316.272,564.759z M261.298,733.949c0.814-0.5,1.631-0.942,2.448-1.321
		c28.481-10.922,52.731-3.378,63.889,11.828c-15.311,11.014-40.705,10.695-64.417-8.494
		C262.558,735.349,261.918,734.677,261.298,733.949z M261.298,911.847c0.619-0.727,1.26-1.4,1.92-2.013
		c23.712-19.188,49.106-19.507,64.417-8.494c-11.158,15.206-35.408,22.75-63.889,11.828
		C262.929,912.788,262.112,912.347,261.298,911.847z M316.272,1081.037c0.364-0.883,0.766-1.72,1.204-2.508
		c16.621-25.577,40.674-33.727,58.639-27.984c-5.913,17.91-26.645,32.578-57.107,30.992
		C318.114,1081.429,317.2,1081.261,316.272,1081.037z M420.837,1224.959c0.074-0.952,0.197-1.873,0.37-2.757
		c7.904-29.461,28.261-44.646,47.122-44.735c-0.089,18.861-15.274,39.218-44.735,47.122
		C422.71,1224.762,421.79,1224.885,420.837,1224.959z M564.759,1329.524c-0.224-0.928-0.392-1.842-0.5-2.736
		c-1.586-30.462,13.082-51.194,30.992-57.107c5.743,17.965-2.407,42.018-27.984,58.639
		C566.479,1328.759,565.642,1329.16,564.759,1329.524z M733.949,1384.498c-0.5-0.814-0.942-1.631-1.321-2.448
		c-10.922-28.481-3.378-52.73,11.828-63.889c11.014,15.311,10.695,40.705-8.494,64.417
		C735.349,1383.238,734.677,1383.878,733.949,1384.498z M911.847,1384.498c-0.727-0.619-1.4-1.26-2.013-1.92
		c-19.188-23.712-19.507-49.106-8.494-64.417c15.206,11.158,22.75,35.408,11.828,63.889
		C912.788,1382.867,912.347,1383.684,911.847,1384.498z M1081.037,1329.524c-0.883-0.364-1.72-0.766-2.508-1.204
		c-25.577-16.621-33.727-40.674-27.984-58.639c17.91,5.913,32.578,26.645,30.992,57.107
		C1081.429,1327.682,1081.261,1328.596,1081.037,1329.524z M1224.959,1224.959c-0.952-0.074-1.873-0.197-2.757-0.37
		c-29.461-7.904-44.646-28.261-44.735-47.122c18.861,0.089,39.218,15.274,47.122,44.735
		C1224.762,1223.086,1224.885,1224.007,1224.959,1224.959z M1329.524,1081.037c-0.928,0.224-1.842,0.392-2.736,0.5
		c-30.462,1.586-51.194-13.082-57.107-30.992c17.965-5.743,42.018,2.407,58.639,27.984
		C1328.759,1079.317,1329.16,1080.154,1329.524,1081.037z M1384.498,911.847c-0.814,0.5-1.631,0.942-2.448,1.321
		c-28.481,10.922-52.73,3.378-63.889-11.828c15.311-11.014,40.705-10.695,64.417,8.494
		C1383.238,910.447,1383.878,911.119,1384.498,911.847z M1384.498,733.949c-0.619,0.727-1.26,1.4-1.92,2.013
		c-23.712,19.188-49.106,19.507-64.417,8.494c11.158-15.206,35.408-22.75,63.889-11.828
		C1382.867,733.008,1383.684,733.449,1384.498,733.949z M1329.524,564.759c-0.364,0.883-0.766,1.72-1.204,2.508
		c-16.621,25.576-40.674,33.727-58.639,27.984c5.913-17.91,26.645-32.578,57.107-30.992
		C1327.682,564.367,1328.596,564.535,1329.524,564.759z M1224.959,420.837c-0.074,0.952-0.197,1.873-0.37,2.757
		c-7.904,29.461-28.261,44.646-47.122,44.735c0.089-18.861,15.274-39.218,44.735-47.122
		C1223.086,421.034,1224.007,420.911,1224.959,420.837z M1081.037,316.272c0.224,0.928,0.392,1.842,0.5,2.736
		c1.586,30.462-13.082,51.194-30.992,57.107c-5.743-17.965,2.407-42.018,27.984-58.639
		C1079.317,317.037,1080.154,316.636,1081.037,316.272z M911.847,261.298c0.5,0.814,0.942,1.631,1.321,2.448
		c10.922,28.481,3.378,52.731-11.828,63.889c-11.014-15.311-10.695-40.705,8.494-64.417
		C910.447,262.558,911.119,261.918,911.847,261.298z M752.172,376.349c15.603,19.902,39.785,19.864,62.25,0.893
		c-17.239,1.002-33.351-3.399-42.236-17.963c-13.559-21.975-2.199-43.574-10.432-76.258c-2.061-7.947-5.737-15.762-12.001-21.258
		c55.48,0.968,76.81-61.607,72.31-93.674c-8.314-18.64-17.007-37.783,0.835-50.64c17.842,12.858,9.149,32,0.835,50.64
		c-4.5,32.066,16.83,94.641,72.31,93.674c-6.263,5.496-9.94,13.311-12.001,21.258c-8.233,32.684,3.127,54.282-10.432,76.258
		c-8.884,14.564-24.997,18.965-42.236,17.963c22.465,18.971,46.646,19.009,62.25-0.893c8.689,23.75,31.699,31.186,58.927,20.086
		c-16.704-4.374-30.669-13.539-34.618-30.135c-6.105-25.09,11.374-42.121,13.644-75.749c0.496-8.195-0.586-16.764-4.844-23.926
		c52.465,18.064,92.088-34.857,97.717-66.744c-2.147-20.297-4.499-41.189,16.443-47.904c12.996,17.742-1.187,33.261-14.854,48.42
		c-14.188,29.106-13.239,95.21,39.824,111.434c-7.655,3.291-13.567,9.588-17.982,16.509c-17.93,28.54-13.8,52.592-33.486,69.302
		c-12.95,11.106-29.634,10.312-45.719,4.032c15.503,24.984,38.489,32.493,59.479,18.387c0.925,25.273,20.511,39.455,49.836,37.312
		c-14.535-9.322-24.984-22.353-23.611-39.358c1.947-25.748,23.833-36.544,36.384-67.825c3.004-7.64,4.623-16.124,2.786-24.252
		c44.315,33.393,98.352-4.694,113.56-33.281c4.23-19.967,8.449-40.563,30.441-40.478c6.877,20.889-11.407,31.266-29.09,41.46
		c-22.488,23.297-42.013,86.459,3.44,118.286c-8.297,0.765-15.866,4.926-22.204,10.144c-25.872,21.602-29.376,45.754-53.263,55.562
		c-15.748,6.561-31.37,0.65-44.728-10.293c7.023,28.552,26.564,42.797,50.886,35.867c-6.93,24.322,7.315,43.862,35.867,50.886
		c-10.943-13.357-16.854-28.98-10.293-44.728c9.809-23.887,33.96-27.391,55.562-53.263c5.218-6.338,9.38-13.906,10.144-22.204
		c31.827,45.453,94.989,25.928,118.286,3.44c10.193-17.682,20.571-35.967,41.46-29.09c0.085,21.992-20.511,26.211-40.478,30.441
		c-28.587,15.208-66.674,69.244-33.281,113.56c-8.128-1.837-16.611-0.217-24.252,2.786c-31.281,12.55-42.077,34.436-67.825,36.384
		c-17.005,1.373-30.036-9.076-39.358-23.611c-2.143,29.325,12.039,48.911,37.312,49.836c-14.107,20.99-6.598,43.976,18.387,59.479
		c-6.28-16.085-7.074-32.769,4.032-45.719c16.71-19.686,40.762-15.556,69.302-33.486c6.921-4.416,13.218-10.327,16.509-17.982
		c16.224,53.063,82.328,54.013,111.434,39.824c15.159-13.667,30.678-27.85,48.42-14.854c-6.715,20.942-27.607,18.59-47.904,16.443
		c-31.887,5.629-84.808,45.252-66.744,97.717c-7.162-4.258-15.731-5.34-23.926-4.844c-33.628,2.27-50.659,19.748-75.749,13.644
		c-16.597-3.949-25.761-17.913-30.135-34.618c-11.1,27.227-3.664,50.237,20.086,58.927c-19.902,15.603-19.864,39.785-0.893,62.25
		c-1.002-17.239,3.399-33.351,17.963-42.236c21.975-13.559,43.574-2.199,76.258-10.432c7.947-2.061,15.762-5.737,21.258-12.001
		c-0.968,55.48,61.607,76.81,93.674,72.31c18.64-8.314,37.783-17.007,50.64,0.835c-12.858,17.842-32,9.149-50.64,0.835
		c-32.066-4.5-94.641,16.83-93.674,72.31c-5.496-6.263-13.311-9.94-21.258-12.001c-32.684-8.233-54.282,3.127-76.258-10.432
		c-14.564-8.884-18.965-24.997-17.963-42.236c-18.971,22.465-19.009,46.646,0.893,62.25c-23.75,8.689-31.186,31.699-20.086,58.927
		c4.374-16.704,13.539-30.669,30.135-34.618c25.09-6.105,42.121,11.374,75.749,13.644c8.195,0.496,16.764-0.586,23.926-4.844
		c-18.064,52.465,34.857,92.088,66.744,97.717c20.297-2.147,41.189-4.499,47.904,16.443c-17.742,12.996-33.261-1.187-48.42-14.854
		c-29.106-14.188-95.21-13.239-111.434,39.824c-3.291-7.655-9.588-13.567-16.509-17.982c-28.54-17.93-52.592-13.8-69.302-33.486
		c-11.106-12.95-10.312-29.634-4.032-45.719c-24.984,15.503-32.493,38.489-18.387,59.479c-25.273,0.925-39.455,20.511-37.312,49.836
		c9.322-14.535,22.353-24.984,39.358-23.611c25.748,1.947,36.544,23.833,67.825,36.384c7.641,3.004,16.124,4.623,24.252,2.786
		c-33.393,44.315,4.694,98.352,33.281,113.56c19.967,4.23,40.563,8.449,40.478,30.441c-20.889,6.877-31.266-11.407-41.46-29.09
		c-23.297-22.488-86.459-42.013-118.286,3.44c-0.765-8.297-4.926-15.866-10.144-22.204c-21.602-25.872-45.754-29.376-55.562-53.263
		c-6.561-15.748-0.65-31.37,10.293-44.728c-28.552,7.023-42.797,26.564-35.867,50.886c-24.322-6.93-43.862,7.315-50.886,35.867
		c13.357-10.943,28.98-16.854,44.728-10.293c23.886,9.809,27.391,33.96,53.263,55.562c6.338,5.218,13.906,9.38,22.204,10.144
		c-45.453,31.827-25.928,94.989-3.44,118.286c17.682,10.193,35.967,20.571,29.09,41.46c-21.992,0.085-26.211-20.511-30.441-40.478
		c-15.208-28.587-69.245-66.674-113.56-33.281c1.837-8.128,0.217-16.611-2.786-24.252c-12.55-31.281-34.437-42.077-36.384-67.825
		c-1.373-17.005,9.076-30.036,23.611-39.358c-29.325-2.143-48.911,12.039-49.836,37.312c-20.99-14.107-43.976-6.598-59.479,18.387
		c16.085-6.28,32.769-7.074,45.719,4.032c19.686,16.71,15.556,40.762,33.486,69.302c4.416,6.921,10.327,13.218,17.982,16.509
		c-53.063,16.224-54.012,82.328-39.824,111.434c13.667,15.159,27.85,30.678,14.854,48.42c-20.942-6.715-18.59-27.607-16.443-47.904
		c-5.63-31.887-45.252-84.808-97.717-66.744c4.258-7.162,5.34-15.731,4.844-23.926c-2.27-33.628-19.749-50.659-13.644-75.749
		c3.949-16.597,17.913-25.761,34.618-30.135c-27.227-11.1-50.237-3.664-58.927,20.086c-15.603-19.902-39.785-19.864-62.25-0.893
		c17.239-1.002,33.351,3.399,42.236,17.963c13.559,21.975,2.199,43.574,10.432,76.258c2.061,7.947,5.737,15.762,12.001,21.258
		c-55.48-0.968-76.81,61.607-72.31,93.674c8.314,18.64,17.007,37.783-0.835,50.64c-17.842-12.858-9.149-32-0.835-50.64
		c4.5-32.066-16.83-94.641-72.31-93.674c6.263-5.496,9.94-13.311,12.001-21.258c8.233-32.684-3.127-54.282,10.432-76.258
		c8.884-14.564,24.997-18.965,42.236-17.963c-22.465-18.971-46.646-19.009-62.25,0.893c-8.689-23.75-31.699-31.186-58.927-20.086
		c16.704,4.374,30.669,13.539,34.618,30.135c6.105,25.09-11.374,42.121-13.644,75.749c-0.496,8.195,0.586,16.764,4.844,23.926
		c-52.465-18.064-92.088,34.857-97.717,66.744c2.147,20.297,4.499,41.189-16.443,47.904c-12.996-17.742,1.187-33.261,14.854-48.42
		c14.189-29.106,13.239-95.21-39.824-111.434c7.655-3.291,13.567-9.588,17.982-16.509c17.93-28.54,13.8-52.592,33.486-69.302
		c12.95-11.106,29.634-10.312,45.719-4.032c-15.503-24.984-38.489-32.493-59.479-18.387c-0.925-25.273-20.511-39.455-49.836-37.312
		c14.535,9.322,24.984,22.353,23.611,39.358c-1.947,25.748-23.833,36.544-36.384,67.825c-3.004,7.641-4.623,16.124-2.786,24.252
		c-44.315-33.393-98.352,4.694-113.56,33.281c-4.23,19.967-8.449,40.563-30.441,40.478c-6.877-20.889,11.407-31.266,29.09-41.46
		c22.488-23.297,42.013-86.459-3.44-118.286c8.297-0.765,15.866-4.926,22.204-10.144c25.872-21.602,29.376-45.754,53.263-55.562
		c15.748-6.561,31.37-0.65,44.728,10.293c-7.023-28.552-26.564-42.797-50.886-35.867c6.93-24.322-7.315-43.862-35.867-50.886
		c10.943,13.357,16.854,28.98,10.293,44.728c-9.809,23.886-33.96,27.391-55.562,53.263c-5.218,6.338-9.379,13.906-10.144,22.204
		c-31.827-45.453-94.989-25.928-118.286-3.44c-10.193,17.682-20.571,35.967-41.46,29.09c-0.085-21.992,20.511-26.211,40.478-30.441
		c28.587-15.208,66.674-69.245,33.281-113.56c8.128,1.837,16.611,0.217,24.252-2.786c31.281-12.55,42.077-34.437,67.825-36.384
		c17.005-1.373,30.036,9.076,39.358,23.611c2.143-29.325-12.039-48.911-37.312-49.836c14.107-20.99,6.598-43.976-18.387-59.479
		c6.28,16.085,7.074,32.769-4.032,45.719c-16.71,19.686-40.762,15.556-69.302,33.486c-6.921,4.416-13.218,10.327-16.509,17.982
		c-16.224-53.063-82.328-54.012-111.434-39.824c-15.159,13.667-30.678,27.85-48.42,14.854c6.715-20.942,27.607-18.59,47.904-16.443
		c31.887-5.63,84.808-45.252,66.744-97.717c7.162,4.258,15.731,5.34,23.926,4.844c33.628-2.27,50.659-19.749,75.749-13.644
		c16.597,3.949,25.761,17.913,30.135,34.618c11.1-27.227,3.664-50.237-20.086-58.927c19.902-15.603,19.864-39.785,0.893-62.25
		c1.002,17.239-3.399,33.351-17.963,42.236c-21.975,13.559-43.574,2.199-76.258,10.432c-7.947,2.061-15.762,5.737-21.258,12.001
		c0.968-55.48-61.607-76.81-93.674-72.31c-18.64,8.314-37.783,17.007-50.64-0.835c12.858-17.842,32-9.149,50.64-0.835
		c32.066,4.5,94.641-16.83,93.674-72.31c5.496,6.263,13.311,9.94,21.258,12.001c32.684,8.233,54.282-3.127,76.258,10.432
		c14.564,8.884,18.965,24.997,17.963,42.236c18.971-22.465,19.009-46.646-0.893-62.25c23.75-8.689,31.186-31.699,20.086-58.927
		c-4.374,16.704-13.539,30.669-30.135,34.618c-25.09,6.105-42.121-11.374-75.749-13.644c-8.195-0.496-16.764,0.586-23.926,4.844
		c18.064-52.465-34.857-92.088-66.744-97.717c-20.297,2.147-41.189,4.499-47.904-16.443c17.742-12.996,33.261,1.187,48.42,14.854
		c29.106,14.189,95.21,13.239,111.434-39.824c3.291,7.655,9.588,13.567,16.509,17.982c28.54,17.93,52.592,13.8,69.302,33.486
		c11.106,12.95,10.312,29.634,4.032,45.719c24.984-15.503,32.493-38.489,18.387-59.479c25.273-0.925,39.455-20.511,37.312-49.836
		c-9.322,14.535-22.353,24.984-39.358,23.611c-25.748-1.947-36.544-23.833-67.825-36.384c-7.64-3.004-16.124-4.623-24.252-2.786
		c33.393-44.315-4.694-98.352-33.281-113.56c-19.967-4.23-40.563-8.449-40.478-30.441c20.889-6.877,31.266,11.407,41.46,29.09
		c23.297,22.488,86.459,42.013,118.286-3.44c0.765,8.297,4.926,15.866,10.144,22.204c21.602,25.872,45.754,29.376,55.562,53.263
		c6.561,15.748,0.65,31.37-10.293,44.728c28.552-7.023,42.797-26.564,35.867-50.886c24.322,6.93,43.862-7.315,50.886-35.867
		c-13.357,10.943-28.98,16.854-44.728,10.293c-23.887-9.809-27.391-33.96-53.263-55.562c-6.338-5.218-13.906-9.379-22.204-10.144
		c45.453-31.827,25.928-94.989,3.44-118.286c-17.682-10.193-35.967-20.571-29.09-41.46c21.992-0.085,26.211,20.511,30.441,40.478
		c15.208,28.587,69.244,66.674,113.56,33.281c-1.837,8.128-0.217,16.611,2.786,24.252c12.55,31.281,34.436,42.077,36.384,67.825
		c1.373,17.005-9.076,30.036-23.611,39.358c29.325,2.143,48.911-12.039,49.836-37.312c20.99,14.107,43.976,6.598,59.479-18.387
		c-16.085,6.28-32.769,7.074-45.719-4.032c-19.686-16.71-15.556-40.762-33.486-69.302c-4.416-6.921-10.327-13.218-17.982-16.509
		c53.063-16.224,54.013-82.328,39.824-111.434c-13.667-15.159-27.85-30.678-14.854-48.42c20.942,6.715,18.59,27.607,16.443,47.904
		c5.629,31.887,45.252,84.808,97.717,66.744c-4.258,7.162-5.34,15.731-4.844,23.926c2.27,33.628,19.748,50.659,13.644,75.749
		c-3.949,16.597-17.913,25.761-34.618,30.135C720.472,407.535,743.482,400.099,752.172,376.349z M822.898,76.362
		c-15.115,13.09-34.332,31.096-33.318,52.842c-26.709-6.963-46.203,17.645-36.744,43.499c6.641,15.939,24.087,14.083,31.444,2.37
		c6.885-10.554,0.818-20.686-2.32-20.618c-8.359-0.421-15.235,8.371-5.156,14.291c-7.684-1.193-8.589-8.663-4.966-13.32
		c7.285-9.76,28.673-3.47,31.494,6.013c13.996,36.333-19.904,69.725-55.683,75.622c-4.632,0.603-10.766,0.461-17.517,0.135
		c-6.321,2.397-12.11,4.427-16.702,5.285c-35.85,5.448-78.409-15.834-76.326-54.714c-0.247-9.89,18.151-22.482,28.095-15.451
		c4.885,3.31,6.332,10.693-0.607,14.202c7.756-8.744-1.5-14.981-9.32-11.998c-3.005,0.905-5.644,12.415,4.165,20.325
		c10.616,8.866,27.781,5.24,29.172-11.971c1.006-27.512-25.138-44.891-48.388-30.016c-5.755-20.995-29.596-32.182-48.016-39.96
		c-10.33,17.12-23.042,40.183-15.358,60.552c-27.553,1.632-38.489,31.059-21.504,52.725c11.242,13.107,27.26,5.95,30.637-7.462
		c3.287-12.165-5.614-19.926-8.577-18.892c-8.08,2.183-11.903,12.67-0.488,15.185c-7.676,1.24-10.845-5.585-8.839-11.133
		c3.912-11.533,26.198-12.16,31.811-4.013c24.539,30.23,2.617,72.463-29.589,89.127c-4.219,2.005-10.096,3.765-16.618,5.541
		c-5.271,4.233-10.15,7.953-14.251,10.187c-32.412,16.26-79.464,9.171-89.497-28.45c-3.292-9.33,10.315-26.99,21.945-23.377
		c5.668,1.638,9.327,8.213,3.812,13.695c4.675-10.713-6.056-13.784-12.571-8.53c-2.579,1.789-1.532,13.552,10.242,18.043
		c12.836,5.151,28.041-3.601,24.045-20.4c-7.545-26.477-37.78-34.926-55.295-13.594c-11.962-18.189-38.093-21.461-58.015-23.167
		c-4.534,19.474-9.497,45.337,4.105,62.334c-25.701,10.066-27.008,41.432-4.158,56.79c14.742,8.991,27.764-2.765,26.832-16.564
		c-0.633-12.586-11.497-17.216-13.995-15.317c-7.01,4.573-7.405,15.728,4.228,14.592c-6.917,3.551-12.04-1.96-11.846-7.857
		c0.157-12.178,21.158-19.661,29.014-13.647c32.679,21.167,24.881,68.107-0.599,93.909c-3.393,3.21-8.438,6.701-14.093,10.405
		c-3.705,5.654-7.195,10.7-10.405,14.093c-25.801,25.48-72.741,33.278-93.909,0.599c-6.014-7.856,1.47-28.857,13.647-29.014
		c5.897-0.194,11.408,4.929,7.857,11.846c1.135-11.633-10.02-11.238-14.592-4.228c-1.9,2.498,2.731,13.362,15.317,13.995
		c13.8,0.933,25.556-12.09,16.564-26.832c-15.357-22.849-46.723-21.542-56.79,4.158c-16.997-13.603-42.86-8.639-62.334-4.105
		c1.706,19.922,4.977,46.053,23.167,58.015c-21.332,17.515-12.883,47.75,13.594,55.295c16.799,3.996,25.551-11.209,20.4-24.045
		c-4.492-11.774-16.254-12.821-18.043-10.242c-5.254,6.515-2.183,17.246,8.53,12.571c-5.481,5.515-12.056,1.857-13.695-3.812
		c-3.614-11.63,14.047-25.237,23.377-21.945c37.621,10.033,44.709,57.085,28.45,89.497c-2.235,4.101-5.955,8.98-10.187,14.251
		c-1.776,6.522-3.537,12.4-5.541,16.618c-16.665,32.206-58.898,54.127-89.127,29.589c-8.147-5.613-7.52-27.899,4.013-31.811
		c5.549-2.006,12.373,1.163,11.133,8.839c-2.515-11.415-13.002-7.592-15.185,0.488c-1.035,2.963,6.726,11.864,18.892,8.577
		c13.412-3.377,20.569-19.395,7.462-30.637c-21.666-16.985-51.094-6.05-52.725,21.504c-20.369-7.685-43.432,5.028-60.552,15.358
		c7.778,18.42,18.965,42.261,39.96,48.016c-14.876,23.25,2.504,49.394,30.016,48.388c17.211-1.391,20.837-18.556,11.971-29.172
		c-7.91-9.81-19.42-7.171-20.325-4.165c-2.983,7.82,3.254,17.077,11.998,9.32c-3.509,6.939-10.893,5.491-14.202,0.607
		c-7.031-9.944,5.561-28.342,15.451-28.095c38.88-2.084,60.162,40.475,54.714,76.326c-0.858,4.591-2.888,10.381-5.285,16.702
		c0.326,6.752,0.468,12.886-0.135,17.517c-5.897,35.779-39.289,69.679-75.622,55.683c-9.483-2.821-15.773-24.21-6.013-31.494
		c4.657-3.623,12.127-2.718,13.32,4.966c-5.919-10.079-14.712-3.202-14.291,5.156c-0.068,3.138,10.063,9.205,20.618,2.32
		c11.712-7.357,13.569-24.802-2.37-31.444c-25.855-9.459-50.462,10.035-43.499,36.744c-21.746-1.014-39.753,18.203-52.842,33.318
		c13.09,15.115,31.096,34.332,52.842,33.318c-6.963,26.709,17.645,46.203,43.499,36.744c15.939-6.641,14.083-24.087,2.37-31.444
		c-10.554-6.885-20.686-0.818-20.618,2.32c-0.421,8.359,8.371,15.235,14.291,5.156c-1.193,7.684-8.663,8.589-13.32,4.966
		c-9.76-7.285-3.47-28.673,6.013-31.495c36.333-13.996,69.725,19.904,75.622,55.683c0.603,4.632,0.461,10.766,0.135,17.517
		c2.397,6.321,4.427,12.11,5.285,16.702c5.448,35.85-15.834,78.409-54.714,76.326c-9.89,0.247-22.482-18.151-15.451-28.095
		c3.31-4.885,10.693-6.332,14.202,0.607c-8.744-7.756-14.981,1.5-11.998,9.32c0.905,3.005,12.415,5.644,20.325-4.165
		c8.866-10.616,5.24-27.781-11.971-29.172c-27.512-1.006-44.891,25.138-30.016,48.388c-20.995,5.755-32.182,29.596-39.96,48.016
		c17.12,10.33,40.183,23.042,60.552,15.358c1.632,27.553,31.059,38.489,52.725,21.504c13.107-11.242,5.95-27.26-7.462-30.637
		c-12.165-3.287-19.926,5.614-18.892,8.577c2.183,8.08,12.67,11.903,15.185,0.488c1.24,7.676-5.585,10.845-11.133,8.839
		c-11.533-3.912-12.16-26.198-4.013-31.811c30.23-24.539,72.463-2.617,89.127,29.589c2.005,4.219,3.765,10.096,5.541,16.618
		c4.233,5.271,7.953,10.15,10.187,14.251c16.26,32.412,9.171,79.464-28.45,89.497c-9.33,3.292-26.99-10.315-23.377-21.945
		c1.638-5.668,8.213-9.327,13.695-3.812c-10.713-4.675-13.784,6.056-8.53,12.571c1.789,2.579,13.552,1.532,18.043-10.242
		c5.151-12.836-3.601-28.041-20.4-24.045c-26.477,7.545-34.926,37.78-13.594,55.295c-18.189,11.962-21.461,38.093-23.167,58.015
		c19.474,4.534,45.337,9.497,62.334-4.105c10.066,25.701,41.432,27.008,56.79,4.158c8.991-14.742-2.765-27.764-16.564-26.832
		c-12.586,0.633-17.216,11.497-15.317,13.995c4.573,7.01,15.728,7.405,14.592-4.228c3.551,6.917-1.96,12.04-7.857,11.846
		c-12.178-0.157-19.661-21.158-13.647-29.014c21.167-32.679,68.107-24.881,93.909,0.599c3.21,3.393,6.701,8.438,10.405,14.093
		c5.654,3.705,10.7,7.195,14.093,10.405c25.48,25.801,33.278,72.741,0.599,93.909c-7.856,6.014-28.857-1.47-29.014-13.647
		c-0.194-5.897,4.929-11.408,11.846-7.857c-11.633-1.135-11.238,10.02-4.228,14.592c2.498,1.9,13.362-2.731,13.995-15.317
		c0.933-13.8-12.09-25.556-26.832-16.564c-22.849,15.357-21.542,46.723,4.158,56.79c-13.603,16.997-8.639,42.86-4.105,62.334
		c19.922-1.706,46.053-4.977,58.015-23.167c17.515,21.332,47.75,12.883,55.295-13.594c3.996-16.799-11.209-25.551-24.045-20.4
		c-11.774,4.491-12.821,16.254-10.242,18.043c6.515,5.254,17.246,2.182,12.571-8.531c5.515,5.481,1.857,12.056-3.812,13.695
		c-11.63,3.614-25.237-14.047-21.945-23.377c10.033-37.621,57.085-44.709,89.497-28.45c4.101,2.235,8.98,5.955,14.251,10.188
		c6.522,1.776,12.4,3.537,16.618,5.541c32.206,16.665,54.127,58.898,29.589,89.127c-5.613,8.147-27.899,7.52-31.811-4.014
		c-2.006-5.549,1.163-12.373,8.839-11.133c-11.415,2.515-7.592,13.002,0.488,15.185c2.963,1.035,11.864-6.726,8.577-18.892
		c-3.377-13.412-19.395-20.569-30.637-7.462c-16.985,21.666-6.05,51.094,21.504,52.725c-7.685,20.369,5.028,43.432,15.358,60.552
		c18.42-7.778,42.261-18.965,48.016-39.96c23.25,14.875,49.394-2.504,48.388-30.016c-1.391-17.211-18.556-20.837-29.172-11.971
		c-9.81,7.91-7.171,19.421-4.165,20.325c7.82,2.983,17.077-3.254,9.32-11.998c6.939,3.509,5.491,10.893,0.607,14.202
		c-9.944,7.031-28.342-5.561-28.095-15.451c-2.084-38.88,40.475-60.161,76.326-54.714c4.591,0.858,10.381,2.888,16.702,5.285
		c6.752-0.326,12.886-0.468,17.517,0.135c35.779,5.897,69.679,39.289,55.683,75.622c-2.821,9.483-24.21,15.773-31.494,6.013
		c-3.623-4.657-2.718-12.127,4.966-13.32c-10.079,5.919-3.202,14.712,5.156,14.291c3.138,0.068,9.205-10.063,2.32-20.618
		c-7.357-11.712-24.802-13.569-31.444,2.37c-9.459,25.855,10.035,50.462,36.744,43.5c-1.014,21.746,18.203,39.753,33.318,52.842
		c15.115-13.09,34.332-31.096,33.318-52.842c26.709,6.963,46.203-17.645,36.744-43.5c-6.641-15.939-24.087-14.083-31.444-2.37
		c-6.885,10.554-0.818,20.686,2.32,20.618c8.359,0.421,15.235-8.371,5.156-14.291c7.684,1.193,8.589,8.662,4.966,13.32
		c-7.285,9.76-28.673,3.47-31.495-6.013c-13.996-36.333,19.904-69.725,55.683-75.622c4.632-0.603,10.766-0.461,17.517-0.135
		c6.321-2.397,12.11-4.427,16.702-5.285c35.85-5.448,78.409,15.834,76.326,54.714c0.247,9.89-18.151,22.482-28.095,15.451
		c-4.885-3.31-6.332-10.693,0.607-14.202c-7.756,8.744,1.5,14.981,9.32,11.998c3.005-0.905,5.644-12.415-4.165-20.325
		c-10.616-8.866-27.781-5.24-29.172,11.971c-1.006,27.512,25.138,44.891,48.388,30.016c5.755,20.995,29.596,32.182,48.016,39.96
		c10.33-17.12,23.042-40.183,15.358-60.552c27.553-1.632,38.489-31.059,21.504-52.725c-11.242-13.107-27.26-5.95-30.637,7.462
		c-3.287,12.165,5.614,19.926,8.577,18.892c8.08-2.183,11.903-12.67,0.488-15.185c7.676-1.24,10.845,5.585,8.839,11.133
		c-3.912,11.533-26.198,12.16-31.811,4.014c-24.539-30.23-2.617-72.463,29.589-89.127c4.219-2.005,10.096-3.765,16.618-5.541
		c5.271-4.233,10.15-7.953,14.251-10.188c32.412-16.26,79.464-9.171,89.497,28.45c3.292,9.33-10.315,26.99-21.945,23.377
		c-5.668-1.638-9.327-8.213-3.812-13.695c-4.675,10.713,6.056,13.784,12.571,8.531c2.579-1.789,1.532-13.552-10.242-18.043
		c-12.836-5.151-28.041,3.601-24.045,20.4c7.545,26.477,37.78,34.926,55.295,13.594c11.962,18.189,38.093,21.461,58.015,23.167
		c4.534-19.474,9.497-45.337-4.105-62.334c25.701-10.066,27.008-41.432,4.158-56.79c-14.742-8.991-27.764,2.765-26.832,16.564
		c0.633,12.586,11.497,17.216,13.995,15.317c7.01-4.573,7.405-15.728-4.228-14.592c6.917-3.551,12.04,1.96,11.846,7.857
		c-0.157,12.177-21.158,19.661-29.014,13.647c-32.679-21.167-24.881-68.107,0.599-93.909c3.393-3.21,8.438-6.701,14.093-10.405
		c3.705-5.654,7.195-10.7,10.405-14.093c25.801-25.48,72.741-33.278,93.909-0.599c6.014,7.856-1.47,28.857-13.647,29.014
		c-5.897,0.194-11.408-4.929-7.857-11.846c-1.135,11.633,10.02,11.238,14.592,4.228c1.9-2.499-2.731-13.362-15.317-13.995
		c-13.8-0.933-25.556,12.09-16.564,26.832c15.357,22.849,46.723,21.542,56.79-4.158c16.997,13.603,42.86,8.64,62.334,4.105
		c-1.706-19.922-4.977-46.053-23.167-58.015c21.332-17.516,12.883-47.75-13.594-55.295c-16.799-3.996-25.551,11.209-20.4,24.045
		c4.491,11.774,16.254,12.821,18.043,10.242c5.254-6.515,2.182-17.246-8.531-12.571c5.481-5.515,12.056-1.857,13.695,3.812
		c3.614,11.63-14.047,25.237-23.377,21.945c-37.621-10.033-44.709-57.085-28.45-89.497c2.235-4.101,5.955-8.98,10.188-14.251
		c1.776-6.522,3.537-12.4,5.541-16.618c16.665-32.206,58.898-54.127,89.127-29.589c8.147,5.613,7.52,27.899-4.014,31.811
		c-5.549,2.006-12.373-1.163-11.133-8.839c2.515,11.415,13.002,7.592,15.185-0.488c1.035-2.963-6.726-11.864-18.892-8.577
		c-13.412,3.377-20.569,19.395-7.462,30.637c21.666,16.985,51.094,6.05,52.725-21.504c20.369,7.685,43.432-5.028,60.552-15.358
		c-7.778-18.42-18.965-42.261-39.96-48.016c14.875-23.25-2.504-49.394-30.016-48.388c-17.211,1.391-20.837,18.556-11.971,29.172
		c7.91,9.81,19.421,7.171,20.325,4.165c2.983-7.82-3.254-17.077-11.998-9.32c3.509-6.939,10.893-5.491,14.202-0.607
		c7.031,9.944-5.561,28.342-15.451,28.095c-38.88,2.083-60.161-40.475-54.714-76.326c0.858-4.591,2.888-10.381,5.285-16.702
		c-0.326-6.752-0.468-12.886,0.135-17.517c5.897-35.779,39.289-69.679,75.622-55.683c9.483,2.821,15.773,24.21,6.013,31.495
		c-4.657,3.623-12.127,2.718-13.32-4.966c5.919,10.079,14.712,3.202,14.291-5.156c0.068-3.138-10.063-9.205-20.618-2.32
		c-11.712,7.357-13.569,24.802,2.37,31.444c25.855,9.459,50.462-10.035,43.5-36.744c21.746,1.014,39.753-18.203,52.842-33.318
		c-13.09-15.115-31.096-34.332-52.842-33.318c6.963-26.709-17.645-46.203-43.5-36.744c-15.939,6.641-14.083,24.087-2.37,31.444
		c10.554,6.885,20.686,0.818,20.618-2.32c0.421-8.359-8.371-15.235-14.291-5.156c1.193-7.684,8.662-8.589,13.32-4.966
		c9.76,7.285,3.47,28.673-6.013,31.494c-36.333,13.996-69.725-19.904-75.622-55.683c-0.603-4.632-0.461-10.766-0.135-17.517
		c-2.397-6.321-4.427-12.11-5.285-16.702c-5.448-35.85,15.834-78.409,54.714-76.326c9.89-0.247,22.482,18.151,15.451,28.095
		c-3.31,4.885-10.693,6.332-14.202-0.607c8.744,7.756,14.981-1.5,11.998-9.32c-0.905-3.005-12.415-5.644-20.325,4.165
		c-8.866,10.616-5.24,27.781,11.971,29.172c27.512,1.006,44.891-25.138,30.016-48.388c20.995-5.755,32.182-29.596,39.96-48.016
		c-17.12-10.33-40.183-23.042-60.552-15.358c-1.632-27.553-31.059-38.489-52.725-21.504c-13.107,11.242-5.95,27.26,7.462,30.637
		c12.165,3.287,19.926-5.614,18.892-8.577c-2.183-8.08-12.67-11.903-15.185-0.488c-1.24-7.676,5.585-10.845,11.133-8.839
		c11.533,3.912,12.16,26.198,4.014,31.811c-30.23,24.539-72.463,2.617-89.127-29.589c-2.005-4.219-3.765-10.096-5.541-16.618
		c-4.233-5.271-7.953-10.15-10.188-14.251c-16.26-32.412-9.171-79.464,28.45-89.497c9.33-3.292,26.99,10.315,23.377,21.945
		c-1.638,5.668-8.213,9.327-13.695,3.812c10.713,4.675,13.784-6.056,8.531-12.571c-1.789-2.579-13.552-1.532-18.043,10.242
		c-5.151,12.836,3.601,28.041,20.4,24.045c26.477-7.545,34.926-37.78,13.594-55.295c18.189-11.962,21.461-38.093,23.167-58.015
		c-19.474-4.534-45.337-9.497-62.334,4.105c-10.066-25.701-41.432-27.008-56.79-4.158c-8.991,14.742,2.765,27.764,16.564,26.832
		c12.586-0.633,17.216-11.497,15.317-13.995c-4.573-7.01-15.728-7.405-14.592,4.228c-3.551-6.917,1.96-12.04,7.857-11.846
		c12.177,0.157,19.661,21.158,13.647,29.014c-21.167,32.679-68.107,24.881-93.909-0.599c-3.21-3.393-6.701-8.438-10.405-14.093
		c-5.654-3.705-10.7-7.195-14.093-10.405c-25.48-25.801-33.278-72.741-0.599-93.909c7.856-6.014,28.857,1.47,29.014,13.647
		c0.194,5.897-4.929,11.408-11.846,7.857c11.633,1.135,11.238-10.02,4.228-14.592c-2.499-1.9-13.362,2.731-13.995,15.317
		c-0.933,13.8,12.09,25.556,26.832,16.564c22.849-15.357,21.542-46.723-4.158-56.79c13.603-16.997,8.64-42.86,4.105-62.334
		c-19.922,1.706-46.053,4.977-58.015,23.167c-17.516-21.332-47.75-12.883-55.295,13.594c-3.996,16.799,11.209,25.551,24.045,20.4
		c11.774-4.492,12.821-16.254,10.242-18.043c-6.515-5.254-17.246-2.183-12.571,8.53c-5.515-5.481-1.857-12.056,3.812-13.695
		c11.63-3.614,25.237,14.047,21.945,23.377c-10.033,37.621-57.085,44.709-89.497,28.45c-4.101-2.235-8.98-5.955-14.251-10.187
		c-6.522-1.776-12.4-3.537-16.618-5.541c-32.206-16.665-54.127-58.898-29.589-89.127c5.613-8.147,27.899-7.52,31.811,4.013
		c2.006,5.549-1.163,12.373-8.839,11.133c11.415-2.515,7.592-13.002-0.488-15.185c-2.963-1.035-11.864,6.726-8.577,18.892
		c3.377,13.412,19.395,20.569,30.637,7.462c16.985-21.666,6.05-51.094-21.504-52.725c7.685-20.369-5.028-43.432-15.358-60.552
		c-18.42,7.778-42.261,18.965-48.016,39.96c-23.25-14.876-49.394,2.504-48.388,30.016c1.391,17.211,18.556,20.837,29.172,11.971
		c9.81-7.91,7.171-19.42,4.165-20.325c-7.82-2.983-17.077,3.254-9.32,11.998c-6.939-3.509-5.491-10.893-0.607-14.202
		c9.944-7.031,28.342,5.561,28.095,15.451c2.083,38.88-40.475,60.162-76.326,54.714c-4.591-0.858-10.381-2.888-16.702-5.285
		c-6.752,0.326-12.886,0.468-17.517-0.135c-35.779-5.897-69.679-39.289-55.683-75.622c2.821-9.483,24.21-15.773,31.495-6.013
		c3.623,4.657,2.718,12.127-4.966,13.32c10.079-5.919,3.202-14.712-5.156-14.291c-3.138-0.068-9.205,10.063-2.32,20.618
		c7.357,11.712,24.802,13.569,31.444-2.37c9.459-25.855-10.035-50.462-36.744-43.499C857.23,107.458,838.013,89.452,822.898,76.362z
		"/>
	<path d="M722.868,191.332c20.142,4.876,40.082,17.435,54.86,31.576c4.571-2.934,9.02-6.34,12.264-10.741
		c-21.09-22.17-44.787-34.83-69.984-38.892c-22.709,11.649-41.334,31.012-54.54,58.615c4.445,3.184,9.728,5.048,14.983,6.426
		C690.135,220.299,705.218,202.193,722.868,191.332z"/>
	<path d="M922.928,191.332c17.65,10.861,32.732,28.968,42.417,46.983c5.254-1.378,10.537-3.242,14.983-6.426
		c-13.207-27.602-31.831-46.965-54.54-58.615c-25.197,4.062-48.894,16.722-69.984,38.892c3.244,4.402,7.692,7.807,12.264,10.741
		C882.846,208.767,902.786,196.208,922.928,191.332z"/>
	<path d="M1113.197,253.154c13.43,15.784,22.179,37.665,25.823,57.791c5.423,0.313,11.023,0.173,16.235-1.481
		c-4.031-30.332-15.76-54.503-33.758-72.6c-25.219-3.924-51.668,0.794-78.577,15.362c1.725,5.189,4.903,9.802,8.344,14.005
		C1069.689,257.35,1092.534,251.567,1113.197,253.154z"/>
	<path d="M1275.049,370.747c7.895,19.161,9.454,42.675,6.701,62.942c5.061,1.973,10.431,3.571,15.898,3.608
		c5.54-30.093,1.853-56.706-9.671-79.478c-22.772-11.525-49.385-15.211-79.478-9.671c0.037,5.468,1.635,10.837,3.608,15.898
		C1232.375,361.292,1255.888,362.852,1275.049,370.747z"/>
	<path d="M1392.642,532.599c1.587,20.663-4.196,43.508-13.078,61.932c4.203,3.441,8.817,6.619,14.005,8.344
		c14.568-26.909,19.286-53.358,15.362-78.577c-18.096-17.997-42.267-29.727-72.599-33.758c-1.654,5.212-1.794,10.812-1.481,16.235
		C1354.977,510.42,1376.858,519.169,1392.642,532.599z"/>
	<path d="M1454.464,722.868c-4.876,20.142-17.435,40.082-31.576,54.86c2.934,4.571,6.34,9.02,10.741,12.264
		c22.17-21.09,34.83-44.787,38.892-69.984c-11.649-22.709-31.012-41.334-58.615-54.54c-3.184,4.445-5.048,9.728-6.426,14.983
		C1425.497,690.135,1443.603,705.218,1454.464,722.868z"/>
	<path d="M1454.464,922.928c-10.861,17.65-28.968,32.732-46.983,42.417c1.378,5.254,3.242,10.537,6.426,14.983
		c27.602-13.207,46.965-31.831,58.615-54.54c-4.062-25.197-16.722-48.894-38.892-69.984c-4.402,3.244-7.807,7.692-10.741,12.264
		C1437.029,882.846,1449.589,902.786,1454.464,922.928z"/>
	<path d="M1392.642,1113.197c-15.784,13.43-37.665,22.179-57.791,25.823c-0.313,5.423-0.173,11.023,1.481,16.235
		c30.332-4.031,54.503-15.76,72.599-33.758c3.924-25.219-0.794-51.668-15.362-78.577c-5.189,1.725-9.802,4.903-14.005,8.344
		C1388.446,1069.689,1394.229,1092.534,1392.642,1113.197z"/>
	<path d="M1275.049,1275.049c-19.161,7.895-42.675,9.454-62.942,6.701c-1.974,5.061-3.571,10.431-3.608,15.898
		c30.093,5.54,56.706,1.853,79.478-9.671c11.525-22.772,15.211-49.385,9.671-79.478c-5.468,0.037-10.837,1.635-15.898,3.608
		C1284.504,1232.375,1282.944,1255.888,1275.049,1275.049z"/>
	<path d="M1113.197,1392.642c-20.663,1.587-43.508-4.196-61.932-13.078c-3.441,4.203-6.619,8.817-8.344,14.005
		c26.909,14.568,53.358,19.286,78.577,15.362c17.997-18.096,29.727-42.267,33.758-72.599c-5.212-1.654-10.812-1.794-16.235-1.481
		C1135.376,1354.977,1126.627,1376.858,1113.197,1392.642z"/>
	<path d="M922.928,1454.464c-20.142-4.876-40.082-17.435-54.86-31.576c-4.571,2.934-9.02,6.34-12.264,10.741
		c21.09,22.17,44.787,34.83,69.984,38.892c22.709-11.649,41.334-31.012,54.54-58.615c-4.445-3.184-9.728-5.048-14.983-6.426
		C955.661,1425.497,940.578,1443.603,922.928,1454.464z"/>
	<path d="M722.868,1454.464c-17.65-10.861-32.732-28.968-42.417-46.983c-5.254,1.378-10.537,3.242-14.983,6.426
		c13.207,27.602,31.832,46.965,54.54,58.615c25.197-4.062,48.894-16.722,69.984-38.892c-3.244-4.402-7.692-7.807-12.264-10.741
		C762.95,1437.029,743.01,1449.589,722.868,1454.464z"/>
	<path d="M532.599,1392.642c-13.43-15.784-22.179-37.665-25.823-57.791c-5.423-0.313-11.023-0.173-16.235,1.481
		c4.031,30.332,15.76,54.503,33.758,72.599c25.219,3.924,51.668-0.794,78.577-15.362c-1.725-5.189-4.903-9.802-8.344-14.005
		C576.107,1388.446,553.262,1394.229,532.599,1392.642z"/>
	<path d="M370.747,1275.049c-7.895-19.161-9.454-42.675-6.701-62.942c-5.061-1.974-10.43-3.571-15.898-3.608
		c-5.54,30.093-1.853,56.706,9.671,79.478c22.772,11.525,49.385,15.211,79.478,9.671c-0.037-5.468-1.634-10.837-3.608-15.898
		C413.421,1284.504,389.908,1282.944,370.747,1275.049z"/>
	<path d="M253.154,1113.197c-1.587-20.663,4.196-43.508,13.078-61.932c-4.203-3.441-8.817-6.619-14.005-8.344
		c-14.568,26.909-19.286,53.358-15.362,78.577c18.096,17.997,42.267,29.727,72.6,33.758c1.654-5.212,1.794-10.812,1.481-16.235
		C290.819,1135.376,268.938,1126.627,253.154,1113.197z"/>
	<path d="M191.332,922.928c4.876-20.142,17.435-40.082,31.576-54.86c-2.934-4.571-6.34-9.02-10.741-12.264
		c-22.17,21.09-34.83,44.787-38.892,69.984c11.649,22.709,31.012,41.334,58.615,54.54c3.184-4.445,5.048-9.728,6.426-14.983
		C220.299,955.661,202.193,940.578,191.332,922.928z"/>
	<path d="M191.332,722.868c10.861-17.65,28.968-32.732,46.983-42.417c-1.378-5.254-3.242-10.537-6.426-14.983
		c-27.602,13.207-46.965,31.832-58.615,54.54c4.062,25.197,16.722,48.894,38.892,69.984c4.402-3.244,7.807-7.692,10.741-12.264
		C208.767,762.95,196.208,743.01,191.332,722.868z"/>
	<path d="M253.154,532.599c15.784-13.43,37.665-22.179,57.791-25.823c0.313-5.423,0.173-11.023-1.481-16.235
		c-30.332,4.031-54.503,15.76-72.6,33.758c-3.924,25.219,0.794,51.668,15.362,78.577c5.189-1.725,9.802-4.903,14.005-8.344
		C257.35,576.107,251.567,553.262,253.154,532.599z"/>
	<path d="M370.747,370.747c19.161-7.895,42.675-9.454,62.942-6.701c1.973-5.061,3.571-10.43,3.608-15.898
		c-30.093-5.54-56.706-1.853-79.478,9.671c-11.525,22.772-15.211,49.385-9.671,79.478c5.468-0.037,10.837-1.634,15.898-3.608
		C361.292,413.421,362.852,389.908,370.747,370.747z"/>
	<path d="M532.599,253.154c20.663-1.587,43.508,4.196,61.932,13.078c3.441-4.203,6.619-8.817,8.344-14.005
		c-26.909-14.568-53.358-19.286-78.577-15.362c-17.997,18.096-29.727,42.267-33.758,72.6c5.212,1.654,10.812,1.794,16.235,1.481
		C510.42,290.819,519.169,268.938,532.599,253.154z"/>
	<path d="M757.707,411.295c8.439-4.908,16.389-10.699,23.443-17.439c-4.779,0.365-9.495-1.035-13.655-3.312
		c-3.279,3.703-7.304,6.625-11.66,8.934c-4.856-0.85-9.588-2.385-13.85-4.893c-3.253,3.451-7.305,6.239-11.963,7.369
		C738.813,406.184,748.164,409.235,757.707,411.295z"/>
	<path d="M888.089,411.295c9.543-2.06,18.894-5.111,27.685-9.341c-4.658-1.13-8.71-3.918-11.963-7.369
		c-4.262,2.509-8.994,4.043-13.85,4.893c-4.356-2.309-8.382-5.231-11.66-8.934c-4.16,2.277-8.875,3.677-13.655,3.312
		C871.7,400.596,879.65,406.387,888.089,411.295z"/>
	<path d="M1012.091,451.586c9.713,0.99,19.548,0.978,29.216-0.329c-4.081-2.514-7.073-6.418-9.1-10.705
		c-4.829,1.069-9.803,1.066-14.685,0.374c-3.429-3.542-6.355-7.565-8.329-12.1c-4.66,0.88-9.577,0.754-14.01-1.07
		C999.81,436.346,1005.581,444.31,1012.091,451.586z"/>
	<path d="M1117.573,528.223c8.931,3.943,18.289,6.971,27.888,8.716c-3.104-3.652-4.744-8.289-5.347-12.993
		c-4.923-0.476-9.653-2.016-14.081-4.182c-2.167-4.429-3.707-9.158-4.182-14.081c-4.704-0.603-9.341-2.242-12.993-5.347
		C1110.603,509.934,1113.63,519.292,1117.573,528.223z"/>
	<path d="M1194.21,633.705c7.276,6.51,15.24,12.281,23.83,16.907c-1.824-4.433-1.95-9.35-1.07-14.01
		c-4.535-1.974-8.557-4.9-12.1-8.329c-0.692-4.881-0.695-9.856,0.374-14.685c-4.287-2.027-8.191-5.019-10.705-9.1
		C1193.233,614.157,1193.22,623.992,1194.21,633.705z"/>
	<path d="M1234.501,757.707c4.908,8.439,10.699,16.389,17.439,23.443c-0.365-4.779,1.035-9.495,3.312-13.655
		c-3.703-3.279-6.625-7.304-8.934-11.66c0.85-4.856,2.385-9.588,4.893-13.85c-3.451-3.253-6.239-7.305-7.369-11.963
		C1239.612,738.813,1236.561,748.164,1234.501,757.707z"/>
	<path d="M1234.501,888.089c2.06,9.543,5.111,18.894,9.341,27.685c1.13-4.658,3.918-8.71,7.369-11.963
		c-2.509-4.262-4.043-8.994-4.893-13.85c2.309-4.356,5.231-8.382,8.934-11.66c-2.277-4.16-3.677-8.875-3.312-13.655
		C1245.2,871.7,1239.409,879.65,1234.501,888.089z"/>
	<path d="M1194.21,1012.091c-0.99,9.713-0.978,19.548,0.329,29.216c2.514-4.081,6.418-7.073,10.705-9.1
		c-1.069-4.829-1.066-9.803-0.374-14.685c3.542-3.429,7.565-6.355,12.1-8.329c-0.88-4.66-0.754-9.577,1.07-14.01
		C1209.45,999.81,1201.486,1005.581,1194.21,1012.091z"/>
	<path d="M1117.573,1117.573c-3.943,8.931-6.97,18.289-8.716,27.888c3.652-3.104,8.289-4.744,12.993-5.347
		c0.476-4.923,2.016-9.653,4.182-14.081c4.429-2.167,9.158-3.707,14.081-4.182c0.603-4.704,2.242-9.341,5.347-12.993
		C1135.862,1110.603,1126.504,1113.63,1117.573,1117.573z"/>
	<path d="M1012.091,1194.21c-6.51,7.276-12.281,15.24-16.907,23.83c4.433-1.824,9.35-1.95,14.01-1.07
		c1.974-4.535,4.9-8.557,8.329-12.1c4.881-0.692,9.856-0.695,14.685,0.374c2.027-4.287,5.019-8.191,9.1-10.705
		C1031.639,1193.233,1021.804,1193.22,1012.091,1194.21z"/>
	<path d="M888.089,1234.501c-8.439,4.908-16.389,10.699-23.443,17.439c4.779-0.365,9.495,1.035,13.655,3.312
		c3.278-3.703,7.304-6.625,11.66-8.934c4.856,0.85,9.588,2.385,13.85,4.893c3.253-3.451,7.305-6.239,11.963-7.369
		C906.983,1239.612,897.633,1236.561,888.089,1234.501z"/>
	<path d="M757.707,1234.501c-9.543,2.06-18.894,5.111-27.685,9.341c4.658,1.13,8.71,3.918,11.963,7.369
		c4.262-2.509,8.994-4.043,13.85-4.893c4.356,2.309,8.382,5.231,11.66,8.934c4.16-2.277,8.875-3.677,13.655-3.312
		C774.096,1245.2,766.146,1239.409,757.707,1234.501z"/>
	<path d="M633.705,1194.21c-9.713-0.99-19.548-0.978-29.216,0.329c4.081,2.514,7.073,6.418,9.1,10.705
		c4.829-1.069,9.803-1.066,14.685-0.374c3.429,3.542,6.355,7.565,8.329,12.1c4.66-0.88,9.577-0.754,14.01,1.07
		C645.986,1209.45,640.215,1201.486,633.705,1194.21z"/>
	<path d="M528.223,1117.573c-8.931-3.943-18.289-6.97-27.888-8.716c3.104,3.652,4.744,8.289,5.347,12.993
		c4.923,0.476,9.653,2.016,14.081,4.182c2.167,4.429,3.707,9.158,4.182,14.081c4.704,0.603,9.341,2.242,12.993,5.347
		C535.194,1135.862,532.166,1126.504,528.223,1117.573z"/>
	<path d="M451.586,1012.091c-7.276-6.51-15.24-12.281-23.83-16.907c1.824,4.433,1.95,9.35,1.07,14.01
		c4.535,1.974,8.557,4.9,12.1,8.329c0.692,4.881,0.695,9.856-0.374,14.685c4.287,2.027,8.191,5.019,10.705,9.1
		C452.564,1031.639,452.576,1021.804,451.586,1012.091z"/>
	<path d="M411.295,888.089c-4.908-8.439-10.699-16.389-17.439-23.443c0.365,4.779-1.035,9.495-3.312,13.655
		c3.703,3.278,6.625,7.304,8.934,11.66c-0.85,4.856-2.385,9.588-4.893,13.85c3.451,3.253,6.239,7.305,7.369,11.963
		C406.184,906.983,409.235,897.633,411.295,888.089z"/>
	<path d="M411.295,757.707c-2.06-9.543-5.111-18.894-9.341-27.685c-1.13,4.658-3.918,8.71-7.369,11.963
		c2.509,4.262,4.043,8.994,4.893,13.85c-2.309,4.356-5.231,8.382-8.934,11.66c2.277,4.16,3.677,8.875,3.312,13.655
		C400.596,774.096,406.387,766.146,411.295,757.707z"/>
	<path d="M451.586,633.705c0.99-9.713,0.978-19.548-0.329-29.216c-2.514,4.081-6.418,7.073-10.705,9.1
		c1.069,4.829,1.066,9.803,0.374,14.685c-3.542,3.429-7.565,6.355-12.1,8.329c0.88,4.66,0.754,9.577-1.07,14.01
		C436.346,645.986,444.31,640.215,451.586,633.705z"/>
	<path d="M528.223,528.223c3.943-8.931,6.971-18.289,8.716-27.888c-3.652,3.104-8.289,4.744-12.993,5.347
		c-0.476,4.923-2.016,9.653-4.182,14.081c-4.429,2.167-9.158,3.707-14.081,4.182c-0.603,4.704-2.242,9.341-5.347,12.993
		C509.934,535.194,519.292,532.166,528.223,528.223z"/>
	<path d="M633.705,451.586c6.51-7.276,12.281-15.24,16.907-23.83c-4.433,1.824-9.35,1.95-14.01,1.07
		c-1.974,4.535-4.9,8.557-8.329,12.1c-4.881,0.692-9.856,0.695-14.685-0.374c-2.027,4.287-5.019,8.191-9.1,10.705
		C614.157,452.564,623.992,452.576,633.705,451.586z"/>
	<path d="M786.285,370.313c4.075,2.281,8.553,3.723,13.057,4.889c6-7.328,10.572-15.783,13.663-24.731
		c-3.905-1.018-7.786-2.51-10.928-5.106C799.206,354.95,793.307,363.312,786.285,370.313z"/>
	<path d="M648.221,403.778c4.581,0.91,9.285,0.898,13.929,0.615c3.442-8.823,5.177-18.278,5.352-27.743
		c-4.029,0.239-8.18,0.018-11.971-1.479C655.762,385.174,652.736,394.95,648.221,403.778z"/>
	<path d="M527.255,478.27c4.638-0.55,9.108-2.015,13.437-3.719c0.547-9.455-0.725-18.983-3.483-28.039
		c-3.758,1.472-7.774,2.545-11.842,2.293C528.678,458.246,528.821,468.478,527.255,478.27z"/>
	<path d="M435.229,586.496c4.241-1.956,8.04-4.731,11.63-7.689c-2.401-9.161-6.555-17.83-11.977-25.59
		c-3.119,2.561-6.607,4.823-10.554,5.84C430.394,567.012,433.692,576.699,435.229,586.496z"/>
	<path d="M381.15,717.862c3.429-3.171,6.184-6.984,8.685-10.907c-5.115-7.971-11.744-14.932-19.298-20.637
		c-2.175,3.4-4.793,6.629-8.233,8.815C370.531,700.826,376.662,709.02,381.15,717.862z"/>
	<path d="M370.313,859.511c2.281-4.075,3.723-8.553,4.889-13.057c-7.328-6-15.783-10.572-24.731-13.663
		c-1.018,3.906-2.51,7.786-5.106,10.928C354.95,846.59,363.312,852.489,370.313,859.511z"/>
	<path d="M403.778,997.575c0.91-4.581,0.898-9.285,0.615-13.929c-8.823-3.442-18.278-5.177-27.743-5.352
		c0.239,4.029,0.018,8.18-1.479,11.971C385.174,990.034,394.95,993.06,403.778,997.575z"/>
	<path d="M478.27,1118.541c-0.55-4.638-2.015-9.108-3.719-13.437c-9.455-0.547-18.983,0.724-28.039,3.483
		c1.472,3.758,2.545,7.774,2.293,11.842C458.246,1117.118,468.478,1116.975,478.27,1118.541z"/>
	<path d="M586.496,1210.567c-1.956-4.241-4.731-8.04-7.689-11.63c-9.161,2.401-17.83,6.555-25.59,11.977
		c2.561,3.119,4.823,6.607,5.84,10.554C567.012,1215.402,576.699,1212.104,586.496,1210.567z"/>
	<path d="M717.862,1264.646c-3.171-3.429-6.984-6.184-10.907-8.685c-7.971,5.115-14.932,11.744-20.637,19.298
		c3.4,2.175,6.629,4.793,8.815,8.233C700.826,1275.265,709.02,1269.134,717.862,1264.646z"/>
	<path d="M859.511,1275.483c-4.075-2.281-8.553-3.723-13.057-4.889c-6,7.328-10.572,15.783-13.663,24.731
		c3.906,1.018,7.786,2.51,10.928,5.106C846.59,1290.846,852.489,1282.484,859.511,1275.483z"/>
	<path d="M997.575,1242.018c-4.581-0.91-9.285-0.898-13.929-0.615c-3.442,8.823-5.177,18.278-5.352,27.743
		c4.029-0.239,8.18-0.018,11.971,1.479C990.034,1260.622,993.06,1250.846,997.575,1242.018z"/>
	<path d="M1118.541,1167.526c-4.638,0.55-9.108,2.015-13.437,3.719c-0.547,9.455,0.724,18.983,3.483,28.039
		c3.758-1.472,7.774-2.545,11.842-2.293C1117.118,1187.55,1116.975,1177.318,1118.541,1167.526z"/>
	<path d="M1210.567,1059.3c-4.241,1.956-8.04,4.731-11.63,7.689c2.401,9.161,6.555,17.83,11.977,25.59
		c3.119-2.561,6.607-4.823,10.554-5.84C1215.402,1078.784,1212.104,1069.097,1210.567,1059.3z"/>
	<path d="M1264.646,927.934c-3.429,3.171-6.184,6.984-8.685,10.907c5.115,7.971,11.744,14.932,19.298,20.637
		c2.175-3.4,4.793-6.629,8.233-8.815C1275.265,944.97,1269.134,936.776,1264.646,927.934z"/>
	<path d="M1275.483,786.285c-2.281,4.075-3.723,8.553-4.889,13.057c7.328,6,15.783,10.572,24.731,13.663
		c1.018-3.905,2.51-7.786,5.106-10.928C1290.846,799.206,1282.484,793.307,1275.483,786.285z"/>
	<path d="M1242.018,648.221c-0.91,4.581-0.898,9.285-0.615,13.929c8.823,3.442,18.278,5.177,27.743,5.352
		c-0.239-4.029-0.018-8.18,1.479-11.971C1260.622,655.762,1250.846,652.736,1242.018,648.221z"/>
	<path d="M1167.526,527.255c0.55,4.638,2.015,9.108,3.719,13.437c9.455,0.547,18.983-0.725,28.039-3.483
		c-1.472-3.758-2.545-7.774-2.293-11.842C1187.55,528.678,1177.318,528.821,1167.526,527.255z"/>
	<path d="M1059.3,435.229c1.956,4.241,4.731,8.04,7.689,11.63c9.161-2.401,17.83-6.555,25.59-11.977
		c-2.561-3.119-4.823-6.607-5.84-10.554C1078.784,430.394,1069.097,433.692,1059.3,435.229z"/>
	<path d="M927.934,381.15c3.171,3.429,6.984,6.184,10.907,8.685c7.971-5.115,14.932-11.744,20.637-19.298
		c-3.4-2.175-6.629-4.793-8.815-8.233C944.97,370.531,936.776,376.662,927.934,381.15z"/>
	<path d="M859.511,370.313c-4.075,2.281-8.553,3.723-13.057,4.889c-6-7.328-10.572-15.783-13.663-24.731
		c3.906-1.018,7.786-2.51,10.928-5.106C846.59,354.95,852.489,363.312,859.511,370.313z"/>
	<path d="M717.862,381.15c-3.171,3.429-6.984,6.184-10.907,8.685c-7.971-5.115-14.932-11.744-20.637-19.298
		c3.4-2.175,6.629-4.793,8.815-8.233C700.826,370.531,709.02,376.662,717.862,381.15z"/>
	<path d="M586.496,435.229c-1.956,4.241-4.731,8.04-7.689,11.63c-9.161-2.401-17.83-6.555-25.59-11.977
		c2.561-3.119,4.823-6.607,5.84-10.554C567.012,430.394,576.699,433.692,586.496,435.229z"/>
	<path d="M478.27,527.255c-0.55,4.638-2.015,9.108-3.719,13.437c-9.455,0.547-18.983-0.725-28.039-3.483
		c1.472-3.758,2.545-7.774,2.293-11.842C458.246,528.678,468.478,528.821,478.27,527.255z"/>
	<path d="M403.778,648.221c0.91,4.581,0.898,9.285,0.615,13.929c-8.823,3.442-18.278,5.177-27.743,5.352
		c0.239-4.029,0.018-8.18-1.479-11.971C385.174,655.762,394.95,652.736,403.778,648.221z"/>
	<path d="M370.313,786.285c2.281,4.075,3.723,8.553,4.889,13.057c-7.328,6-15.783,10.572-24.731,13.663
		c-1.018-3.905-2.51-7.786-5.106-10.928C354.95,799.206,363.312,793.307,370.313,786.285z"/>
	<path d="M381.15,927.934c3.429,3.171,6.184,6.984,8.685,10.907c-5.115,7.971-11.744,14.932-19.298,20.637
		c-2.175-3.4-4.793-6.629-8.233-8.815C370.531,944.97,376.662,936.776,381.15,927.934z"/>
	<path d="M435.229,1059.3c4.241,1.956,8.04,4.731,11.63,7.689c-2.401,9.161-6.555,17.83-11.977,25.59
		c-3.119-2.561-6.607-4.823-10.554-5.84C430.394,1078.784,433.692,1069.097,435.229,1059.3z"/>
	<path d="M527.255,1167.526c4.638,0.55,9.108,2.015,13.437,3.719c0.547,9.455-0.725,18.983-3.483,28.039
		c-3.758-1.472-7.774-2.545-11.842-2.293C528.678,1187.55,528.821,1177.318,527.255,1167.526z"/>
	<path d="M648.221,1242.018c4.581-0.91,9.285-0.898,13.929-0.615c3.442,8.823,5.177,18.278,5.352,27.743
		c-4.029-0.239-8.18-0.018-11.971,1.479C655.762,1260.622,652.736,1250.846,648.221,1242.018z"/>
	<path d="M786.285,1275.483c4.075-2.281,8.553-3.723,13.057-4.889c6,7.328,10.572,15.783,13.663,24.731
		c-3.905,1.018-7.786,2.51-10.928,5.106C799.206,1290.846,793.307,1282.484,786.285,1275.483z"/>
	<path d="M927.934,1264.646c3.171-3.429,6.984-6.184,10.907-8.685c7.971,5.115,14.932,11.744,20.637,19.298
		c-3.4,2.175-6.629,4.793-8.815,8.233C944.97,1275.265,936.776,1269.134,927.934,1264.646z"/>
	<path d="M1059.3,1210.567c1.956-4.241,4.731-8.04,7.689-11.63c9.161,2.401,17.83,6.555,25.59,11.977
		c-2.561,3.119-4.823,6.607-5.84,10.554C1078.784,1215.402,1069.097,1212.104,1059.3,1210.567z"/>
	<path d="M1167.526,1118.541c0.55-4.638,2.015-9.108,3.719-13.437c9.455-0.547,18.983,0.724,28.039,3.483
		c-1.472,3.758-2.545,7.774-2.293,11.842C1187.55,1117.118,1177.318,1116.975,1167.526,1118.541z"/>
	<path d="M1242.018,997.575c-0.91-4.581-0.898-9.285-0.615-13.929c8.823-3.442,18.278-5.177,27.743-5.352
		c-0.239,4.029-0.018,8.18,1.479,11.971C1260.622,990.034,1250.846,993.06,1242.018,997.575z"/>
	<path d="M1275.483,859.511c-2.281-4.075-3.723-8.553-4.889-13.057c7.328-6,15.783-10.572,24.731-13.663
		c1.018,3.906,2.51,7.786,5.106,10.928C1290.846,846.59,1282.484,852.489,1275.483,859.511z"/>
	<path d="M1264.646,717.862c-3.429-3.171-6.184-6.984-8.685-10.907c5.115-7.971,11.744-14.932,19.298-20.637
		c2.175,3.4,4.793,6.629,8.233,8.815C1275.265,700.826,1269.134,709.02,1264.646,717.862z"/>
	<path d="M1210.567,586.496c-4.241-1.956-8.04-4.731-11.63-7.689c2.401-9.161,6.555-17.83,11.977-25.59
		c3.119,2.561,6.607,4.823,10.554,5.84C1215.402,567.012,1212.104,576.699,1210.567,586.496z"/>
	<path d="M1118.541,478.27c-4.638-0.55-9.108-2.015-13.437-3.719c-0.547-9.455,0.724-18.983,3.483-28.039
		c3.758,1.472,7.774,2.545,11.842,2.293C1117.118,458.246,1116.975,468.478,1118.541,478.27z"/>
	<path d="M997.575,403.778c-4.581,0.91-9.285,0.898-13.929,0.615c-3.442-8.823-5.177-18.278-5.352-27.743
		c4.029,0.239,8.18,0.018,11.971-1.479C990.034,385.174,993.06,394.95,997.575,403.778z"/>
	<path d="M822.898,318.517c-8.976-0.223-18.918-5.216-21.868-18.38c-20.937,13.037-10.422,39.057,8.663,46.366
		c4.634,1.759,9.057,2.617,13.205,2.745c4.148-0.128,8.571-0.987,13.205-2.745c19.085-7.309,29.6-33.329,8.663-46.366
		C841.816,313.301,831.874,318.293,822.898,318.517z"/>
	<path d="M978.76,343.203c-8.467-2.986-16.38-10.806-15.118-24.239c-23.941,5.929-21.981,33.925-6.089,46.774
		c3.864,3.105,7.805,5.288,11.71,6.692c3.985,1.16,8.456,1.71,13.407,1.47c20.41-1.054,38.451-22.551,22.567-41.42
		C998.364,344.089,987.366,345.764,978.76,343.203z"/>
	<path d="M1119.366,414.845c-7.13-5.457-12.239-15.339-6.888-27.724c-24.601-1.759-31.388,25.472-20.245,42.603
		c2.715,4.147,5.789,7.441,9.069,9.983c3.431,2.335,7.514,4.24,12.297,5.541c19.737,5.305,43.537-9.565,34.262-32.419
		C1137.736,421.745,1126.759,419.94,1119.366,414.845z"/>
	<path d="M1230.951,526.43c-5.095-7.393-6.9-18.37,2.016-28.496c-22.854-9.275-37.724,14.526-32.419,34.262
		c1.301,4.783,3.206,8.865,5.541,12.297c2.542,3.281,5.836,6.354,9.983,9.069c17.131,11.144,44.362,4.357,42.603-20.245
		C1246.29,538.669,1236.407,533.56,1230.951,526.43z"/>
	<path d="M1302.593,667.036c-2.561-8.605-0.885-19.603,10.723-26.478c-18.869-15.883-40.366,2.158-41.42,22.567
		c-0.241,4.951,0.309,9.422,1.469,13.407c1.404,3.906,3.587,7.846,6.692,11.71c12.849,15.892,40.845,17.852,46.774-6.089
		C1313.399,683.416,1305.579,675.503,1302.593,667.036z"/>
	<path d="M1327.279,822.898c0.223-8.976,5.216-18.918,18.38-21.868c-13.037-20.937-39.057-10.422-46.366,8.663
		c-1.759,4.634-2.617,9.057-2.745,13.205c0.128,4.148,0.987,8.571,2.745,13.205c7.309,19.085,33.329,29.6,46.366,8.663
		C1332.495,841.816,1327.503,831.874,1327.279,822.898z"/>
	<path d="M1302.593,978.76c2.986-8.467,10.806-16.38,24.239-15.118c-5.929-23.941-33.925-21.981-46.774-6.089
		c-3.105,3.864-5.288,7.805-6.692,11.71c-1.16,3.985-1.71,8.456-1.469,13.407c1.054,20.41,22.551,38.451,41.42,22.567
		C1301.708,998.364,1300.032,987.366,1302.593,978.76z"/>
	<path d="M1230.951,1119.366c5.457-7.13,15.339-12.239,27.724-6.888c1.759-24.601-25.472-31.388-42.603-20.245
		c-4.147,2.715-7.441,5.789-9.983,9.069c-2.335,3.431-4.24,7.514-5.541,12.297c-5.305,19.737,9.565,43.537,32.419,34.262
		C1224.051,1137.736,1225.856,1126.759,1230.951,1119.366z"/>
	<path d="M1119.366,1230.951c7.393-5.095,18.37-6.9,28.496,2.016c9.275-22.854-14.526-37.724-34.262-32.419
		c-4.783,1.301-8.865,3.206-12.297,5.541c-3.281,2.542-6.354,5.836-9.069,9.983c-11.144,17.131-4.357,44.362,20.245,42.603
		C1107.127,1246.29,1112.236,1236.407,1119.366,1230.951z"/>
	<path d="M978.76,1302.593c8.605-2.561,19.603-0.885,26.478,10.723c15.883-18.869-2.158-40.366-22.567-41.42
		c-4.951-0.241-9.422,0.309-13.407,1.469c-3.906,1.404-7.846,3.587-11.71,6.692c-15.892,12.849-17.852,40.845,6.089,46.774
		C962.38,1313.399,970.293,1305.579,978.76,1302.593z"/>
	<path d="M822.898,1327.279c8.976,0.223,18.918,5.216,21.868,18.38c20.937-13.037,10.422-39.057-8.663-46.366
		c-4.634-1.759-9.057-2.617-13.205-2.745c-4.148,0.128-8.571,0.987-13.205,2.745c-19.085,7.309-29.6,33.329-8.663,46.366
		C803.98,1332.495,813.922,1327.503,822.898,1327.279z"/>
	<path d="M667.036,1302.593c8.467,2.986,16.38,10.806,15.118,24.239c23.941-5.929,21.981-33.925,6.089-46.774
		c-3.864-3.105-7.805-5.288-11.71-6.692c-3.985-1.16-8.456-1.71-13.407-1.469c-20.41,1.054-38.451,22.551-22.567,41.42
		C647.432,1301.708,658.43,1300.032,667.036,1302.593z"/>
	<path d="M526.43,1230.951c7.13,5.457,12.239,15.339,6.888,27.724c24.601,1.759,31.388-25.472,20.245-42.603
		c-2.715-4.147-5.789-7.441-9.069-9.983c-3.431-2.335-7.514-4.24-12.297-5.541c-19.737-5.305-43.537,9.565-34.262,32.419
		C508.06,1224.051,519.037,1225.856,526.43,1230.951z"/>
	<path d="M414.845,1119.366c5.095,7.393,6.9,18.37-2.016,28.496c22.854,9.275,37.723-14.526,32.419-34.262
		c-1.301-4.783-3.206-8.865-5.541-12.297c-2.542-3.281-5.836-6.354-9.983-9.069c-17.131-11.144-44.362-4.357-42.603,20.245
		C399.506,1107.127,409.389,1112.236,414.845,1119.366z"/>
	<path d="M343.203,978.76c2.561,8.605,0.885,19.603-10.723,26.478c18.869,15.883,40.366-2.158,41.42-22.567
		c0.241-4.951-0.31-9.422-1.47-13.407c-1.404-3.906-3.587-7.846-6.692-11.71c-12.849-15.892-40.845-17.852-46.774,6.089
		C332.397,962.38,340.217,970.293,343.203,978.76z"/>
	<path d="M318.517,822.898c-0.223,8.976-5.216,18.918-18.38,21.868c13.037,20.937,39.057,10.422,46.366-8.663
		c1.759-4.634,2.617-9.057,2.745-13.205c-0.128-4.148-0.987-8.571-2.745-13.205c-7.309-19.085-33.329-29.6-46.366-8.663
		C313.301,803.98,318.293,813.922,318.517,822.898z"/>
	<path d="M343.203,667.036c-2.986,8.467-10.806,16.38-24.239,15.118c5.929,23.941,33.925,21.981,46.774,6.089
		c3.105-3.864,5.288-7.805,6.692-11.71c1.16-3.985,1.71-8.456,1.47-13.407c-1.054-20.41-22.551-38.451-41.42-22.567
		C344.089,647.432,345.764,658.43,343.203,667.036z"/>
	<path d="M414.845,526.43c-5.457,7.13-15.339,12.239-27.724,6.888c-1.759,24.601,25.472,31.388,42.603,20.245
		c4.147-2.715,7.441-5.789,9.983-9.069c2.335-3.431,4.24-7.514,5.541-12.297c5.305-19.737-9.565-43.537-32.419-34.262
		C421.745,508.06,419.94,519.037,414.845,526.43z"/>
	<path d="M526.43,414.845c-7.393,5.095-18.37,6.9-28.496-2.016c-9.275,22.854,14.526,37.723,34.262,32.419
		c4.783-1.301,8.865-3.206,12.297-5.541c3.281-2.542,6.354-5.836,9.069-9.983c11.144-17.131,4.357-44.362-20.245-42.603
		C538.669,399.506,533.56,409.389,526.43,414.845z"/>
	<path d="M667.036,343.203c-8.605,2.561-19.603,0.885-26.478-10.723c-15.883,18.869,2.158,40.366,22.567,41.42
		c4.951,0.241,9.422-0.31,13.407-1.47c3.906-1.404,7.846-3.587,11.71-6.692c15.892-12.849,17.852-40.845-6.089-46.774
		C683.416,332.397,675.503,340.217,667.036,343.203z"/>
	<path d="M822.101,314.253c0.945-24.116-1.755-58.533-17.043-77.292c-3.545,3.986-6.806,8.316-11.106,11.539
		c12.424,17.491,15.793,38.591,12.891,59.588C810.965,311.857,816.296,315.008,822.101,314.253z"/>
	<path d="M664.96,339.394c-6.554-23.228-19.756-55.126-40.093-68.243c-2.14,4.887-3.903,10.012-6.997,14.406
		c17.221,12.796,26.946,31.822,30.674,52.688C653.629,340.557,659.672,341.906,664.96,339.394z"/>
	<path d="M523.279,411.864c-13.411-20.066-35.824-46.322-59.219-52.513c-0.525,5.309-0.618,10.728-2.203,15.863
		c20.333,6.848,35.46,21.938,45.454,40.63C512.862,416.471,519.026,415.887,523.279,411.864z"/>
	<path d="M410.927,524.569c-18.955-14.94-48.385-32.985-72.548-31.643c1.141,5.211,2.727,10.394,2.807,15.767
		c21.453,0.229,40.504,9.906,55.785,24.596C402.443,532.17,408.126,529.709,410.927,524.569z"/>
	<path d="M338.902,666.476c-22.644-8.351-56.21-16.419-78.776-7.676c2.696,4.603,5.806,9.043,7.542,14.128
		c20.474-6.411,41.583-3.095,60.655,6.153C333.182,676.327,337.826,672.231,338.902,666.476z"/>
	<path d="M314.253,823.695c-24.116-0.945-58.533,1.755-77.292,17.043c3.986,3.545,8.316,6.806,11.539,11.106
		c17.491-12.424,38.591-15.793,59.588-12.891C311.857,834.831,315.008,829.5,314.253,823.695z"/>
	<path d="M339.394,980.836c-23.228,6.554-55.126,19.756-68.243,40.093c4.887,2.14,10.012,3.903,14.406,6.997
		c12.796-17.221,31.822-26.946,52.688-30.674C340.557,992.167,341.906,986.124,339.394,980.836z"/>
	<path d="M411.864,1122.517c-20.066,13.411-46.322,35.824-52.513,59.219c5.309,0.525,10.728,0.618,15.863,2.203
		c6.848-20.333,21.938-35.46,40.63-45.454C416.471,1132.934,415.887,1126.77,411.864,1122.517z"/>
	<path d="M524.569,1234.869c-14.94,18.955-32.985,48.385-31.643,72.548c5.211-1.141,10.394-2.727,15.767-2.807
		c0.229-21.453,9.906-40.504,24.596-55.785C532.17,1243.353,529.709,1237.671,524.569,1234.869z"/>
	<path d="M666.476,1306.894c-8.351,22.644-16.419,56.21-7.676,78.776c4.603-2.696,9.043-5.806,14.128-7.542
		c-6.411-20.474-3.095-41.583,6.153-60.655C676.327,1312.614,672.231,1307.97,666.476,1306.894z"/>
	<path d="M823.695,1331.543c-0.945,24.116,1.755,58.533,17.043,77.292c3.545-3.986,6.806-8.316,11.106-11.539
		c-12.424-17.491-15.793-38.591-12.891-59.588C834.831,1333.939,829.5,1330.788,823.695,1331.543z"/>
	<path d="M980.836,1306.402c6.554,23.228,19.756,55.125,40.093,68.243c2.14-4.886,3.903-10.012,6.997-14.406
		c-17.221-12.796-26.946-31.822-30.674-52.688C992.167,1305.239,986.124,1303.89,980.836,1306.402z"/>
	<path d="M1122.517,1233.932c13.411,20.066,35.824,46.322,59.219,52.513c0.525-5.309,0.618-10.728,2.203-15.863
		c-20.333-6.848-35.46-21.938-45.454-40.63C1132.934,1229.325,1126.77,1229.909,1122.517,1233.932z"/>
	<path d="M1234.869,1121.227c18.955,14.939,48.385,32.985,72.548,31.643c-1.141-5.211-2.727-10.394-2.807-15.767
		c-21.453-0.229-40.504-9.906-55.785-24.596C1243.353,1113.626,1237.671,1116.087,1234.869,1121.227z"/>
	<path d="M1306.894,979.32c22.644,8.351,56.21,16.419,78.776,7.676c-2.696-4.603-5.806-9.043-7.542-14.128
		c-20.474,6.411-41.583,3.095-60.655-6.153C1312.614,969.469,1307.97,973.565,1306.894,979.32z"/>
	<path d="M1331.543,822.101c24.116,0.945,58.533-1.755,77.292-17.043c-3.986-3.545-8.316-6.806-11.539-11.106
		c-17.491,12.424-38.591,15.793-59.588,12.891C1333.939,810.965,1330.788,816.296,1331.543,822.101z"/>
	<path d="M1306.402,664.96c23.228-6.554,55.125-19.756,68.243-40.093c-4.886-2.14-10.012-3.903-14.406-6.997
		c-12.796,17.221-31.822,26.946-52.688,30.674C1305.239,653.629,1303.89,659.672,1306.402,664.96z"/>
	<path d="M1233.932,523.279c20.066-13.411,46.322-35.824,52.513-59.219c-5.309-0.525-10.728-0.618-15.863-2.203
		c-6.848,20.333-21.938,35.46-40.63,45.454C1229.325,512.862,1229.909,519.026,1233.932,523.279z"/>
	<path d="M1121.227,410.927c14.939-18.955,32.985-48.385,31.643-72.548c-5.211,1.141-10.394,2.727-15.767,2.807
		c-0.229,21.453-9.906,40.504-24.596,55.785C1113.626,402.443,1116.087,408.126,1121.227,410.927z"/>
	<path d="M979.32,338.902c8.351-22.644,16.419-56.21,7.676-78.776c-4.603,2.696-9.043,5.806-14.128,7.542
		c6.411,20.474,3.095,41.583-6.153,60.655C969.469,333.182,973.565,337.826,979.32,338.902z"/>
	<path d="M823.695,314.253c-0.945-24.116,1.755-58.533,17.043-77.292c3.545,3.986,6.806,8.316,11.106,11.539
		c-12.424,17.491-15.793,38.591-12.891,59.588C834.831,311.857,829.5,315.008,823.695,314.253z"/>
	<path d="M666.476,338.902c-8.351-22.644-16.419-56.21-7.676-78.776c4.603,2.696,9.043,5.806,14.128,7.542
		c-6.411,20.474-3.095,41.583,6.153,60.655C676.327,333.182,672.231,337.826,666.476,338.902z"/>
	<path d="M524.569,410.927c-14.94-18.955-32.985-48.385-31.643-72.548c5.211,1.141,10.394,2.727,15.767,2.807
		c0.229,21.453,9.906,40.504,24.596,55.785C532.17,402.443,529.709,408.126,524.569,410.927z"/>
	<path d="M411.864,523.279c-20.066-13.411-46.322-35.824-52.513-59.219c5.309-0.525,10.728-0.618,15.863-2.203
		c6.848,20.333,21.938,35.46,40.63,45.454C416.471,512.862,415.887,519.026,411.864,523.279z"/>
	<path d="M339.394,664.96c-23.228-6.554-55.126-19.756-68.243-40.093c4.887-2.14,10.012-3.903,14.406-6.997
		c12.796,17.221,31.822,26.946,52.688,30.674C340.557,653.629,341.906,659.672,339.394,664.96z"/>
	<path d="M314.253,822.101c-24.116,0.945-58.533-1.755-77.292-17.043c3.986-3.545,8.316-6.806,11.539-11.106
		c17.491,12.424,38.591,15.793,59.588,12.891C311.857,810.965,315.008,816.296,314.253,822.101z"/>
	<path d="M338.902,979.32c-22.644,8.351-56.21,16.419-78.776,7.676c2.696-4.603,5.806-9.043,7.542-14.128
		c20.474,6.411,41.583,3.095,60.655-6.153C333.182,969.469,337.826,973.565,338.902,979.32z"/>
	<path d="M410.927,1121.227c-18.955,14.939-48.385,32.985-72.548,31.643c1.141-5.211,2.727-10.394,2.807-15.767
		c21.453-0.229,40.504-9.906,55.785-24.596C402.443,1113.626,408.126,1116.087,410.927,1121.227z"/>
	<path d="M523.279,1233.932c-13.411,20.066-35.824,46.322-59.219,52.513c-0.525-5.309-0.618-10.728-2.203-15.863
		c20.333-6.848,35.46-21.938,45.454-40.63C512.862,1229.325,519.026,1229.909,523.279,1233.932z"/>
	<path d="M664.96,1306.402c-6.554,23.228-19.756,55.125-40.093,68.243c-2.14-4.886-3.903-10.012-6.997-14.406
		c17.221-12.796,26.946-31.822,30.674-52.688C653.629,1305.239,659.672,1303.89,664.96,1306.402z"/>
	<path d="M822.101,1331.543c0.945,24.116-1.755,58.533-17.043,77.292c-3.545-3.986-6.806-8.316-11.106-11.539
		c12.424-17.491,15.793-38.591,12.891-59.588C810.965,1333.939,816.296,1330.788,822.101,1331.543z"/>
	<path d="M979.32,1306.894c8.351,22.644,16.419,56.21,7.676,78.776c-4.603-2.696-9.043-5.806-14.128-7.542
		c6.411-20.474,3.095-41.583-6.153-60.655C969.469,1312.614,973.565,1307.97,979.32,1306.894z"/>
	<path d="M1121.227,1234.869c14.939,18.955,32.985,48.385,31.643,72.548c-5.211-1.141-10.394-2.727-15.767-2.807
		c-0.229-21.453-9.906-40.504-24.596-55.785C1113.626,1243.353,1116.087,1237.671,1121.227,1234.869z"/>
	<path d="M1233.932,1122.517c20.066,13.411,46.322,35.824,52.513,59.219c-5.309,0.525-10.728,0.618-15.863,2.203
		c-6.848-20.333-21.938-35.46-40.63-45.454C1229.325,1132.934,1229.909,1126.77,1233.932,1122.517z"/>
	<path d="M1306.402,980.836c23.228,6.554,55.125,19.756,68.243,40.093c-4.886,2.14-10.012,3.903-14.406,6.997
		c-12.796-17.221-31.822-26.946-52.688-30.674C1305.239,992.167,1303.89,986.124,1306.402,980.836z"/>
	<path d="M1331.543,823.695c24.116-0.945,58.533,1.755,77.292,17.043c-3.986,3.545-8.316,6.806-11.539,11.106
		c-17.491-12.424-38.591-15.793-59.588-12.891C1333.939,834.831,1330.788,829.5,1331.543,823.695z"/>
	<path d="M1306.894,666.476c22.644-8.351,56.21-16.419,78.776-7.676c-2.696,4.603-5.806,9.043-7.542,14.128
		c-20.474-6.411-41.583-3.095-60.655,6.153C1312.614,676.327,1307.97,672.231,1306.894,666.476z"/>
	<path d="M1234.869,524.569c18.955-14.94,48.385-32.985,72.548-31.643c-1.141,5.211-2.727,10.394-2.807,15.767
		c-21.453,0.229-40.504,9.906-55.785,24.596C1243.353,532.17,1237.671,529.709,1234.869,524.569z"/>
	<path d="M1122.517,411.864c13.411-20.066,35.824-46.322,59.219-52.513c0.525,5.309,0.618,10.728,2.203,15.863
		c-20.333,6.848-35.46,21.938-45.454,40.63C1132.934,416.471,1126.77,415.887,1122.517,411.864z"/>
	<path d="M980.836,339.394c6.554-23.228,19.756-55.126,40.093-68.243c2.14,4.887,3.903,10.012,6.997,14.406
		c-17.221,12.796-26.946,31.822-30.674,52.688C992.167,340.557,986.124,341.906,980.836,339.394z"/>
</g>
</svg>
