<?xml version="1.0" encoding="utf-8"?>

<!DOCTYPE svg PUBLIC "-//W3C//DTD SVG 1.1//EN" "http://www.w3.org/Graphics/SVG/1.1/DTD/svg11.dtd">
<svg version="1.1" id="Layer_1" xmlns="http://www.w3.org/2000/svg" xmlns:xlink="http://www.w3.org/1999/xlink" x="0px" y="0px"
	 viewBox="0 0 1566.1025 1620.9443" enable-background="new 0 0 1566.1025 1620.9443" xml:space="preserve">
<g>
	<path fill="#f5f5f5" d="M697.7851,659.6177c-0.6449-8.4926-5.0521-16.3723-12.0659-21.3471
		C686.364,646.8454,690.8418,654.6851,697.7851,659.6177z"/>
	<path fill="#f5f5f5" d="M871.062,661.2023c7.0323-4.8048,11.6528-12.5613,12.4543-21.1229
		C876.4126,644.9252,871.8621,652.7229,871.062,661.2023z"/>
	<path fill="#f5f5f5" d="M956.3281,812.0567c7.6773,3.6878,16.7049,3.8109,24.5201,0.2242
		C973.0999,808.5519,964.0716,808.5099,956.3281,812.0567z"/>
	<path fill="#f5f5f5" d="M868.3175,961.3266c0.6449,8.4926,5.0521,16.3723,12.0659,21.3472
		C879.7386,974.0989,875.2607,966.2592,868.3175,961.3266z"/>
	<path fill="#f5f5f5" d="M695.0406,959.7421c-7.0323,4.8048-11.6528,12.5613-12.4543,21.1229
		C689.69,976.0192,694.2405,968.2214,695.0406,959.7421z"/>
	<path fill="#f5f5f5" d="M609.7745,808.8876c-7.6773-3.6877-16.7049-3.8109-24.5201-0.2242
		C593.0027,812.3924,602.031,812.4344,609.7745,808.8876z"/>
	<polygon fill="#f5f5f5" points="580.0146,211.8283 580.0172,211.8271 580.0149,211.8279 	"/>
	<polygon fill="#f5f5f5" points="163.0922,686.9852 163.0924,686.9824 163.0919,686.9847 	"/>
	<polygon fill="#f5f5f5" points="366.1288,1285.629 366.1265,1285.6274 366.1283,1285.629 	"/>
	<polygon fill="#f5f5f5" points="986.088,1409.116 986.0854,1409.1173 986.0877,1409.1165 	"/>
	<polygon fill="#f5f5f5" points="1403.0104,933.9592 1403.0103,933.962 1403.0106,933.9597 	"/>
	<polygon fill="#f5f5f5" points="1199.9738,335.3154 1199.9761,335.3169 1199.9742,335.3154 	"/>
	<polygon fill="#f5f5f5" points="997.0017,215.6415 996.9992,215.6402 997.0015,215.641 	"/>
	<polygon fill="#f5f5f5" points="374.888,327.7704 374.8857,327.7718 374.8875,327.7704 	"/>
	<polygon fill="#f5f5f5" points="160.9376,922.6011 160.9377,922.6038 160.9373,922.6015 	"/>
	<polygon fill="#f5f5f5" points="569.1009,1405.3029 569.1034,1405.3042 569.1011,1405.3033 	"/>
	<polygon fill="#f5f5f5" points="1191.2146,1293.174 1191.2169,1293.1725 1191.2151,1293.174 	"/>
	<polygon fill="#f5f5f5" points="1405.165,698.3433 1405.1649,698.3405 1405.1653,698.3428 	"/>
	<path fill="#f5f5f5" d="M788.5109,213.4365c-4.7685-14.2662-10.6003-28.1681-17.6112-41.5604
		c-8.8762-16.9603-19.6249-33.0032-32.1116-47.5173c-4.0984-15.7171-5.5094-32.1008-2.5536-48.0005
		c2.0044-10.7825,6.0363-21.246,12.1673-30.3401c6.131-9.0936,14.4055-16.7991,24.1389-21.8528
		c5.5391-2.8755,11.5573-4.8818,17.7521-5.58c6.181,0.8114,12.1614,2.9274,17.6471,5.9037
		c9.6393,5.2308,17.7714,13.0864,23.7352,22.2905c5.9637,9.2047,9.8035,19.7402,11.6104,30.5576
		c2.6646,15.9512,0.9542,32.3063-3.431,47.9458c-12.7501,14.2833-23.7904,30.127-32.9753,46.9221
		C799.6246,185.467,793.5395,199.2599,788.5109,213.4365z M268.7331,507.2262c-14.7391-3.0035-29.6944-4.9039-44.7979-5.5285
		c-19.1261-0.7931-38.3941,0.494-57.207,4.0509c-15.6606-4.3092-30.5548-11.2791-42.8465-21.7888
		c-8.3357-7.1271-15.3815-15.8506-20.1917-25.7073c-4.8097-9.8564-7.3457-20.875-6.8556-31.8312
		c0.2793-6.2348,1.5509-12.4498,4.0436-18.1638c3.7932-4.9472,8.6159-9.0684,13.9363-12.331
		c9.3497-5.7325,20.2189-8.8474,31.1718-9.41c10.9534-0.5624,21.9973,1.3799,32.2688,5.2238
		c15.1464,5.668,28.4552,15.3268,39.8068,26.9442c5.9946,18.1836,14.1955,35.6666,24.1481,52.0185
		C250.0676,483.6167,258.9701,495.783,268.7331,507.2262z M263.2735,1104.2618c-9.9706,11.2627-19.0941,23.2642-27.1868,36.0319
		c-10.2499,16.1672-18.7692,33.4973-25.0953,51.5682c-11.5622,11.4078-25.0454,20.8217-40.2929,26.2117
		c-10.3401,3.6555-21.4177,5.3955-32.359,4.6329c-10.9408-0.7628-21.7512-4.0759-30.9945-9.9785
		c-5.2598-3.3593-10.0064-7.568-13.7085-12.5837c-2.3878-5.7585-3.5455-11.9958-3.7108-18.2346
		c-0.2897-10.9634,2.4474-21.9337,7.4366-31.7006c4.9896-9.7671,12.1937-18.3602,20.6584-25.3337
		c12.4818-10.2832,27.501-16.9795,43.2378-21.0016c18.7448,3.9003,37.9859,5.5396,57.1234,5.0964
		C233.4943,1108.6218,248.4819,1106.9952,263.2735,1104.2618z M777.5917,1407.5078c4.7685,14.2662,10.6003,28.1681,17.6112,41.5604
		c8.8762,16.9602,19.6249,33.0032,32.1116,47.5172c4.0984,15.7172,5.5094,32.1008,2.5536,48.0006
		c-2.0044,10.7825-6.0363,21.246-12.1673,30.3401c-6.131,9.0936-14.4055,16.7992-24.1389,21.8528
		c-5.5391,2.8755-11.5573,4.8818-17.7521,5.5801c-6.181-0.8115-12.1614-2.9275-17.6471-5.9038
		c-9.6393-5.2307-17.7714-13.0863-23.7352-22.2905c-5.9637-9.2047-9.8035-19.7402-11.6104-30.5575
		c-2.6646-15.9512-0.9542-32.3064,3.431-47.9459c12.7501-14.2832,23.7904-30.127,32.9753-46.922
		C766.478,1435.4773,772.5631,1421.6844,777.5917,1407.5078z M1297.3695,1113.7181c14.7391,3.0035,29.6945,4.9039,44.798,5.5284
		c19.1261,0.7932,38.394-0.494,57.207-4.0508c15.6606,4.3092,30.5548,11.2791,42.8464,21.7888
		c8.3358,7.1271,15.3815,15.8505,20.1917,25.7072c4.8098,9.8564,7.3458,20.8751,6.8557,31.8313
		c-0.2794,6.2347-1.5509,12.4497-4.0437,18.1637c-3.7932,4.9473-8.6158,9.0685-13.9363,12.3311
		c-9.3497,5.7324-20.2189,8.8473-31.1718,9.4099c-10.9534,0.5624-21.9973-1.3799-32.2688-5.2239
		c-15.1465-5.668-28.4552-15.3268-39.8069-26.9442c-5.9946-18.1835-14.1956-35.6665-24.1481-52.0184
		C1316.035,1137.3276,1307.1326,1125.1614,1297.3695,1113.7181z M1302.8291,516.6825
		c9.9707-11.2627,19.0941-23.2642,27.1868-36.0319c10.25-16.1672,18.7692-33.4973,25.0953-51.5682
		c11.5623-11.4079,25.0454-20.8217,40.293-26.2117c10.3401-3.6554,21.4177-5.3955,32.359-4.6329
		c10.9407,0.7628,21.7511,4.0759,30.9944,9.9785c5.2599,3.3593,10.0063,7.568,13.7085,12.5837
		c2.3878,5.7586,3.5455,11.9958,3.7108,18.2347c0.2897,10.9633-2.4475,21.9337-7.4366,31.7005
		c-4.9896,9.7671-12.1937,18.3602-20.6584,25.3337c-12.4818,10.2832-27.501,16.9795-43.2378,21.0016
		c-18.7446-3.9003-37.9858-5.5396-57.1233-5.0963C1332.6083,512.3225,1317.6207,513.9491,1302.8291,516.6825z M790.3669,10.4722
		c-3.8812,0.5258-7.702,1.4904-11.3962,2.8075c-0.7001,0.2496-1.4073,0.5026-2.0981,0.7779l-0.0005-0.0012
		c-2.072,0.8261-4.0944,1.7717-6.0721,2.7985c-11.338,5.8856-20.9858,14.8525-28.1275,25.4445
		c-7.1412,10.5921-11.8126,22.766-14.1475,35.3252c-2.1183,11.3954-2.3057,23.0042-1.028,34.5146
		c-5.674-5.7116-11.648-11.122-17.9156-16.1819c-25.4924-20.572-55.8724-35.285-88.0942-41.1546
		c-7.4943-1.3665-15.0886-2.2799-22.7053-2.6151l-0.0082-0.0088c-12.6948-0.5588-25.4431,0.4421-37.8198,3.272
		c-19.8034,4.5275-38.6479,13.9233-53.2886,28.0074c-14.6396,14.0841-24.8839,32.9228-27.4624,53.0733
		c-2.5783,20.1505,2.8212,41.4736,15.6954,57.1879c7.4048,9.0383,17.1318,16.1507,27.9948,20.4544
		c10.8629,4.3043,22.8441,5.7804,34.4291,4.2672c7.5378-0.9845,14.8803-3.2356,21.6943-6.604
		c-3.7324,1.278-7.5835,2.2094-11.4954,2.7204c-9.9469,1.2992-20.2319,0.0108-29.5577-3.6847
		c-9.3259-3.6954-17.6794-9.8144-24.0372-17.5741c-11.0529-13.4912-15.6795-31.7582-13.4653-49.0575
		c2.2135-17.2994,10.9955-33.505,23.5641-45.5965c12.5681-12.0915,28.7725-20.1526,45.7747-24.04
		c17.0021-3.8871,34.7789-3.6932,51.9371-0.5646c27.6649,5.0445,53.7681,17.6852,75.6499,35.3486
		c15.0142,12.1197,28.0659,26.5626,38.9932,42.4822c0.1107,0.2921,0.2189,0.5855,0.331,0.877
		c0.2238,0.582,0.4592,1.1582,0.688,1.7377c-6.4577-8.5681-12.967-16.3249-19.4039-23.0687
		c-8.4165-8.8178-28.9022-24.9728-38.2391-30.155c-14.6165-8.1127-29.9958-13.3008-45.934-15.4954
		c-11.9822-1.65-34.8303,0.8928-45.0495,5.0137c-23.5542,9.4984-39.0294,29.3278-39.9127,51.1428
		c-0.9774,24.1496,19.2235,43.3975,42.2795,40.2844c1.1158-0.1507,2.147-0.3111,3.0923-0.4753
		c2.7144,3.84,6.3882,6.8322,9.9988,7.0368c0.45,0.0255,0.8712-0.0038,1.2978-0.0626c-4.369,6.4213-9.8263,12.1117-16.0702,16.732
		c-3.2811,2.4278-6.7823,4.5803-10.441,6.3888c5.7566-1.9713,11.2159-4.7988,16.108-8.4182
		c7.0559-5.2208,12.9225-12.0355,17.0601-19.7745c0.0283-0.0532,0.0492-0.1126,0.0775-0.1659
		c2.2532-3.6516,3.5803-8.4865,3.7975-12.3183c0.408-7.1999-5.0979-13.3674-12.2978-13.7755
		c-7.1999-0.4081-13.3673,5.0979-13.7754,12.2978c-0.1739,3.0679,1.0824,6.913,3.1351,10.3491
		c-12.2943,0.622-23.1656-4.8947-30.0007-15.328c-10.1444-15.4855-8.8538-33.5662,3.5864-50.2272
		c10.3043-13.8013,25.259-21.5809,46.1478-24.008c37.355-4.3405,74.5322,13.4367,106.0574,50.7128
		c10.6085,12.544,32.7971,46.5097,41.962,64.2338c2.4777,4.7918,5.0739,10.1422,7.6215,15.6585
		c10.8612,37.7762,13.5633,78.1055,10.8587,117.4861c-1.1357,16.5331-3.1738,32.9283-5.8502,49.2267
		c-3.6691-13.996-8.7466-27.5771-15.4818-40.4427c-10.011-19.1246-23.6201-36.4739-40.4171-50.0324
		c-16.797-13.5584-36.8199-23.2553-58.0556-27.1279c-4.939-0.9006-9.9437-1.5025-14.9633-1.7234l0.0004-0.0035
		c-8.366-0.3681-16.7678,0.2914-24.9244,2.1563c-13.0514,2.9839-25.4705,9.1758-35.1187,18.4578
		c-9.6481,9.2819-16.3996,21.6974-18.0982,34.9771c-1.6992,13.2797,1.8593,27.3325,10.3441,37.6887
		c4.8801,5.9566,11.2905,10.6439,18.4493,13.481c7.1587,2.8367,15.0554,3.8095,22.6908,2.8122
		c4.9676-0.6488,9.8069-2.1324,14.2973-4.3523c-2.4598,0.8423-4.9977,1.456-7.576,1.7928
		c-6.5553,0.8563-13.3339,0.0071-19.48-2.4283c-6.1461-2.4354-11.6514-6.468-15.8409-11.5819
		c-7.2844-8.8912-10.3327-20.9302-8.8743-32.3304c1.4589-11.4013,7.2464-22.081,15.5292-30.0504
		c8.2832-7.969,18.9622-13.2812,30.1674-15.8427c11.2052-2.5617,22.9206-2.434,34.2277-0.3721
		c18.2326,3.3245,35.4349,11.6554,49.8558,23.2954c14.4208,11.6406,26.0961,26.5329,34.6911,42.9518
		c13.3093,25.4247,19.1141,54.0975,19.8796,82.9103c-7.598,33.7509-16.9971,67.2326-25.8849,100.8055
		c-8.7492-11.1635-30.8725-17.965-39.2048-45.7975l0.0002-0.0032c-12.6793-42.3517,3.0526-116.2469-21.4288-132.1188
		c5.8715,15.2988-48.0438,104.6926-36.3242,143.8423c8.3538,27.9037,38.1223,34.5318,64.4631,40.3454
		c-18.1065,5.4651-40.791,15.7726-71.6799,5.5908c-1.2101-0.3988-2.4259-0.8217-3.6469-1.2673
		c-0.2479,1.2759-0.5127,2.5356-0.7952,3.778c-7.2078,31.715-27.7383,45.8336-41.759,58.5273
		c8.6047-25.5655,18.2794-54.4877-1.3183-76.0362c-27.4966-30.2322-131.8905-30.1462-141.9694-43.0669
		c0.9716,29.1601,72.3942,53.7938,102.1391,86.4995l0.0029,0.0015c19.5477,21.4933,13.9646,43.9551,19.0164,57.2084
		c-33.347-9.7008-66.8796-18.9166-99.714-29.8143c-24.2903-15.5161-45.8615-35.2775-60.7794-59.7929
		c-9.6338-15.8317-16.371-33.5152-18.9063-51.8737c-2.5349-18.3583-0.8001-37.3928,5.7552-54.7279
		c4.0652-10.7507,9.998-20.8536,17.9719-29.1323c7.9737-8.2787,18.0326-14.6881,29.132-17.6746
		c11.0995-2.986,23.2342-2.4362,33.7545,2.1942c10.5192,4.6303,19.2613,13.4511,23.1217,24.2775
		c2.2205,6.2268,2.8359,13.0233,1.7526,19.5449c-1.0834,6.5217-3.852,12.7672-7.9665,17.9417
		c-1.6183,2.0352-3.453,3.893-5.4433,5.566c4.2178-2.7022,7.9847-6.083,11.1026-10.0043
		c4.7925-6.0272,8.0317-13.2943,9.2935-20.8905c1.2615-7.5965,0.5519-15.506-2.0344-22.7591
		c-4.4964-12.6105-14.7007-22.907-26.9542-28.3003c-12.2533-5.3938-26.3723-6.0128-39.3004-2.5342
		c-12.9283,3.4788-24.6384,10.9252-33.9261,20.5678c-5.8045,6.0262-10.7029,12.8842-14.7023,20.2415l0.0032,0.0015
		c-2.3996,4.4143-4.4651,9.0125-6.2408,13.7084c-7.6346,20.1907-9.6538,42.3463-6.7009,63.7297
		c2.9529,21.3835,10.7978,41.9908,22.0193,60.4312c7.5488,12.4058,16.5654,23.7603,26.664,34.1223
		c-15.3437-6.113-30.4413-12.8228-45.1916-20.3768c-35.1337-17.9936-68.2916-41.1085-95.0542-69.8969
		c-3.4121-5.0277-6.657-10.0115-9.4844-14.6056c-10.458-16.9932-28.1138-53.5209-33.3894-69.0792
		c-15.6766-46.2341-11.7327-87.2538,11.252-117.0186c12.8529-16.6443,27.2308-25.4442,44.3694-27.1543
		c20.6901-2.0651,36.8462,6.1544,44.8812,22.8323c5.4133,11.2368,4.5328,23.3959-2.3409,33.6081
		c-1.8852-3.5309-4.5315-6.5902-7.2495-8.0236c-6.3788-3.3638-14.2769-0.9196-17.6407,5.4593s-0.9195,14.2769,5.4594,17.6407
		c3.3949,1.7902,8.2215,3.1469,12.5121,3.0998c0.0602,0.0032,0.1219,0.016,0.1821,0.0191
		c8.7643,0.4466,17.6284-1.0648,25.7403-4.4172c5.6239-2.3245,10.862-5.5435,15.5199-9.4586
		c-3.4364,2.2018-7.0863,4.0912-10.8585,5.6501c-7.1787,2.9665-14.8685,4.7071-22.6232,5.1384
		c0.2704-0.3351,0.5127-0.6809,0.723-1.0796c1.6869-3.1989,1.0182-7.8896-0.8717-12.1957c0.6283-0.7252,1.2975-1.5259,2.002-2.4041
		c14.5584-18.1474,8.4866-45.3814-12.7072-56.9993c-19.1453-10.4944-44.1152-7.4633-64.401,7.8175
		c-8.8011,6.6299-22.7635,24.8931-27.5299,36.0097c-6.34,14.7867-9.8271,30.6385-10.4151,47.3451
		c-0.3758,10.6721,2.8993,36.5549,6.1129,48.3134c2.4578,8.9929,5.7461,18.5702,9.7561,28.5218
		c-0.3784-0.4949-0.7507-0.9939-1.1339-1.4857c-0.1919-0.2463-0.3874-0.4904-0.5806-0.7359
		c-8.0031-17.5724-13.6454-36.2033-16.2852-55.3172c-3.8472-27.857-1.2143-56.74,8.7323-83.0433
		c6.169-16.3136,15.1713-31.6437,27.2705-44.2052c12.0994-12.5614,27.3631-22.2868,44.2044-26.8181
		c16.8416-4.5318,35.2549-3.6976,51.2175,3.3283c15.963,7.0252,29.2267,20.4103,35.0846,36.8378
		c3.3689,9.449,4.3029,19.7618,2.659,29.6575c-1.6437,9.8958-5.8445,19.3718-12.0877,27.2236
		c-2.4554,3.0879-5.2395,5.9069-8.2595,8.4454c6.4001-4.1006,12.1157-9.2302,16.8468-15.1803
		c7.2714-9.1448,12.1861-20.1709,14.101-31.6975c1.9155-11.5264,0.8387-23.5281-3.0856-34.5336
		c-6.8231-19.1346-22.3065-34.758-40.9-42.9417c-18.5935-8.1836-40.0169-9.123-59.6337-3.8447
		c-19.6173,5.2793-37.3862,16.5781-51.4787,31.2094c-8.8078,9.1441-16.2403,19.5498-22.3089,30.7141l0.0033,0.0115
		c-3.6411,6.6983-6.7754,13.6758-9.4699,20.8012c-11.5898,30.6329-14.6533,64.2488-10.1763,96.6992
		c1.1025,7.9795,2.6566,15.888,4.6236,23.6949c-9.2024-7.0312-19.2448-12.8579-30.1001-16.9203
		c-11.9642-4.477-24.8033-6.7537-37.5611-6.0984c-12.7579,0.6557-25.4161,4.2966-36.3061,10.9747
		c-1.8996,1.1648-3.7529,2.4098-5.5292,3.7589l0.0007,0.0012c-0.5921,0.4498-1.1736,0.9252-1.7486,1.3963
		c-3.0337,2.4857-5.8307,5.2616-8.283,8.3156c-1.4852,3.6241-2.5603,7.4153-3.2668,11.2732
		c-0.1339,0.7311-0.2684,1.4701-0.3753,2.2059l-0.0014-0.0001c-0.3205,2.2074-0.5128,4.4317-0.6125,6.6578
		c-0.5719,12.7618,2.3697,25.6005,7.9718,37.0814c5.6024,11.4805,13.8097,21.613,23.5188,29.9147
		c8.8096,7.5322,18.7694,13.4989,29.3765,18.1476c-7.7834,2.058-15.4559,4.5265-22.9718,7.4245
		c-30.5621,11.791-58.4939,30.7444-79.688,55.7145c-4.9306,5.807-9.5187,11.9272-13.6174,18.3558l-0.0117,0.0027
		c-6.8313,10.7146-12.3387,22.2554-16.0763,34.3889c-5.9808,19.414-7.266,40.4318-2.3892,60.153
		c4.8774,19.7203,16.07,38.0115,32.2316,50.3198c16.1617,12.3082,37.3278,18.2936,57.3739,15.0013
		c11.5298-1.8936,22.5528-6.7612,31.7115-14.017c9.1591-7.2554,16.4281-16.8934,20.9101-27.6829
		c2.9162-7.0202,4.638-14.5046,5.128-22.0898c-0.7594,3.8714-1.8784,7.6722-3.3917,11.3155
		c-3.8483,9.2639-10.1066,17.5267-17.9699,23.7554c-7.8632,6.2288-17.3393,10.4037-27.2382,12.0298
		c-17.2102,2.8265-35.3431-2.3002-49.2177-12.8674c-13.875-10.5667-23.5185-26.2749-27.7057-43.2054
		c-4.1875-16.9301-3.0664-34.994,2.0681-51.662c5.1347-16.6678,14.1911-31.966,25.4796-45.2611
		c18.2011-21.4363,42.1999-37.7219,68.4378-47.8405c18.003-6.9427,37.0368-11.0244,56.2872-12.528
		c0.3083,0.0502,0.6165,0.1032,0.925,0.1519c0.6158,0.0972,1.2326,0.1815,1.8489,0.273c-10.649,1.3085-20.6212,3.0673-29.68,5.2699
		c-11.8447,2.8801-36.0782,12.5436-45.2346,18.0386c-14.334,8.6018-26.5167,19.3267-36.3864,32.0322
		c-7.42,9.552-16.6419,30.6103-18.1828,41.5209c-3.5512,25.1478,5.884,48.4644,24.3346,60.1368
		c20.4254,12.9212,47.1951,5.0508,56.0271-16.473c0.4274-1.0416,0.8041-2.0148,1.1345-2.9156
		c4.6828-0.4307,9.1109-2.1163,11.0935-5.1409c0.2471-0.377,0.4323-0.7563,0.5947-1.1552
		c3.3765,6.9943,5.5759,14.5657,6.4552,22.2832c0.462,4.0554,0.5755,8.1638,0.3124,12.2366
		c1.1711-5.971,1.4521-12.1127,0.7637-18.159c-0.9934-8.721-3.9618-17.2089-8.5952-24.6617
		c-0.0319-0.0511-0.0729-0.0989-0.1049-0.1501c-2.0357-3.7771-5.5593-7.3439-8.7692-9.4478
		c-6.0313-3.9533-14.1255-2.2689-18.0788,3.7625c-3.9533,6.0313-2.2688,14.1254,3.7625,18.0787
		c2.57,1.6845,6.528,2.519,10.5302,2.4594c-5.6085,10.9583-15.8218,17.6146-28.2748,18.3174
		c-18.483,1.0426-33.4961-9.1155-41.7048-28.2195c-6.8001-15.8245-6.0601-32.6654,2.2823-51.9692
		c14.9185-34.5206,48.9026-57.8284,96.9473-66.492c16.1676-2.9152,56.6771-5.1482,76.6091-4.2232
		c5.3886,0.2501,11.3203,0.6769,17.3714,1.2288c38.1458,9.4821,74.4229,27.3066,107.1752,49.3392
		c13.7503,9.2501,26.9298,19.2128,39.7065,29.6797c-13.9555-3.8205-28.2557-6.2137-42.7653-6.8138
		c-21.5679-0.8925-43.3973,2.2186-63.5378,9.9861c-20.1404,7.7674-38.5496,20.2593-52.5212,36.7136
		c-3.2495,3.827-6.2731,7.8602-8.9741,12.0969l-0.0029-0.0021c-4.5018,7.0611-8.1315,14.6671-10.5947,22.6633
		c-3.9416,12.7948-4.7887,26.646-1.5744,39.6426c3.2143,12.9963,10.5907,25.0511,21.242,33.162
		c10.651,8.1114,24.6003,12.056,37.8114,9.886c7.5986-1.248,14.8631-4.456,20.8996-9.2371
		c6.036-4.7813,10.8268-11.1335,13.7809-18.2448c1.9219-4.6265,3.0568-9.5591,3.3795-14.5579
		c-0.5005,2.5514-1.2379,5.0562-2.2354,7.4574c-2.5361,6.1052-6.6608,11.551-11.843,15.6561
		c-5.1822,4.1049-11.4272,6.8564-17.9507,7.9277c-11.3421,1.8629-23.2924-1.5167-32.4361-8.4799
		c-9.1444-6.9641-15.4995-17.316-18.2598-28.4739c-2.7597-11.158-2.0207-23.0624,1.3635-34.0471
		c3.384-10.9849,9.3524-21.0668,16.7916-29.8281c11.9953-14.1276,27.8113-24.8598,45.1023-31.5286
		c17.2914-6.6685,36.0263-9.3334,54.5429-8.5675c28.6731,1.1862,56.4069,10.4954,81.7422,24.239
		c25.4301,23.4554,49.7266,48.3362,74.3576,72.8197c-14.0424,1.9952-30.9944,17.7538-59.2642,11.0536l-0.0027-0.0018
		c-43.0172-10.1953-99.1465-60.7672-125.1326-47.5015c16.1849,2.5646,66.6446,93.9534,106.409,103.3788
		c28.3423,6.7173,48.9666-15.749,67.1717-35.654c-4.3203,18.4132-6.736,43.2123-30.9982,64.8719
		c-0.9504,0.8487-1.9245,1.6901-2.9209,2.5247c0.981,0.8527,1.9395,1.7118,2.8743,2.5777
		c23.8621,22.0997,25.8238,46.9389,29.8067,65.428c-17.838-20.2347-38.0481-43.0743-66.5084-36.8765
		c-39.9302,8.6967-92.0526,99.1474-108.2818,101.4156c25.7392,13.7386,82.7839-35.7983,125.9804-45.2052l0.0027-0.0018
		c28.3876-6.1821,45.0485,9.8839,59.0521,12.1356c-25.0746,24.029-49.822,48.4612-75.6769,71.4477
		c-25.5825,13.278-53.4819,22.0785-82.1719,22.7401c-18.5275,0.4272-37.2104-2.58-54.3771-9.5635
		c-17.1661-6.9839-32.7832-18.0035-44.5182-32.3481c-7.2777-8.8959-13.0608-19.0853-16.2433-30.1302
		c-3.1828-11.0448-3.704-22.9607-0.7407-34.0663c2.9639-11.1055,9.5073-21.3395,18.7775-28.1352
		c9.2695-6.7947,21.2796-9.9552,32.5858-7.8853c6.5028,1.1904,12.6965,4.0557,17.8027,8.2547
		c5.1063,4.1991,9.1307,9.7195,11.5547,15.87c0.9535,2.4191,1.645,4.937,2.0987,7.4971c-0.2313-5.0038-1.2757-9.9565-3.1127-14.6173
		c-2.8235-7.164-7.4973-13.6028-13.4449-18.4937c-5.948-4.8907-13.1527-8.231-20.7271-9.6177
		c-13.1692-2.4113-27.1884,1.2776-37.9859,9.1929c-10.7978,7.9148-18.3934,19.8326-21.8449,32.7681
		c-3.4514,12.9357-2.8577,26.8,0.8492,39.6647c2.3166,8.04,5.8066,15.7111,10.1785,22.8533l0.0029-0.0021
		c2.6231,4.2853,5.5725,8.3731,8.7514,12.259c13.6684,16.7071,31.846,29.5335,51.841,37.668
		c19.9951,8.1345,41.764,11.6443,63.3446,11.1464c14.5181-0.3346,28.8597-2.4659,42.8828-6.0306
		c-12.9659,10.2316-26.3254,19.9515-40.2426,28.9486c-33.1497,21.4299-69.7469,38.588-108.0596,47.371
		c-6.0602,0.441-11.9987,0.7593-17.391,0.9109c-19.9456,0.5603-60.4074-2.4131-76.519-5.6235
		c-47.8782-9.5406-81.4304-33.4661-95.7151-68.2538c-7.988-19.4531-8.4199-36.3047-1.3316-52.0022
		c8.5567-18.9507,23.753-28.8325,42.2139-27.4521c12.4381,0.9304,22.5279,7.7724,27.9351,18.8314
		c-4.0004-0.1328-7.9731,0.6292-10.5734,2.2665c-6.1025,3.8423-7.9348,11.9044-4.0925,18.0069s11.9044,7.9348,18.0069,4.0925
		c3.2478-2.045,6.8361-5.5466,8.9405-9.2859c0.0329-0.0505,0.0748-0.0975,0.1076-0.1481c4.7689-7.3668,7.892-15.799,9.0447-24.5004
		c0.7989-6.0328,0.6302-12.1785-0.4314-18.17c0.1885,4.0769,0,8.1826-0.5361,12.2288c-1.0203,7.7001-3.3578,15.23-6.8616,22.1614
		c-0.155-0.4017-0.3333-0.7845-0.5734-1.1659c-1.9269-3.0604-6.3235-4.8267-10.9976-5.343
		c-0.3139-0.9067-0.6727-1.8866-1.081-2.9359c-8.4369-21.6816-35.0581-30.0403-55.7165-17.4948
		c-18.661,11.3331-28.5211,34.4733-25.4303,59.6817c1.341,10.937,10.1763,32.1604,17.4204,41.8464
		c9.6356,12.8839,21.6202,23.8298,35.7945,32.6924c9.0544,5.6614,33.1071,15.7666,44.8971,18.8627
		c9.017,2.3679,18.9553,4.3088,29.5786,5.8119c-0.6178,0.0802-1.236,0.1532-1.8536,0.2391
		c-0.3093,0.043-0.6184,0.0903-0.9276,0.1349c-19.2197-1.8553-38.1757-6.2844-56.0487-13.5552
		c-26.0485-10.5968-49.7454-27.3185-67.5515-49.0841c-11.0435-13.4993-19.8186-28.9605-24.6476-45.7195
		c-4.8288-16.7591-5.6194-34.8405-1.123-51.6912c4.4961-16.8511,14.4252-32.3804,28.4912-42.6915
		c14.0655-10.3117,32.2892-15.106,49.4448-11.9653c9.8675,1.8069,19.2657,6.1545,27.0137,12.5259
		c7.7481,6.3715,13.8542,14.7474,17.5325,24.0801c1.4465,3.6703,2.4957,7.491,3.1842,11.3756
		c-0.3511-7.593-1.9357-15.1076-4.7231-22.1799c-4.284-10.8696-11.3754-20.6389-20.4003-28.0606
		c-9.0244-7.4221-19.9566-12.4904-31.4498-14.5946c-19.9825-3.6583-41.2545,1.939-57.6386,13.9496
		c-16.384,12.0107-27.9092,30.0942-33.1465,49.722c-5.2367,19.6287-4.336,40.6664,1.2887,60.1866
		c3.5151,12.1998,8.8105,23.8394,15.4447,34.6771l0.0116,0.0029c3.9804,6.5024,8.4558,12.7056,13.2794,18.6018
		c20.7339,25.3534,48.3145,44.8145,78.6558,57.1625c7.4616,3.0349,15.0877,5.6432,22.8322,7.8433
		c-10.6904,4.4539-20.7577,10.2375-29.7035,17.6073c-9.8593,8.1228-18.2505,18.1035-24.0619,29.4796
		c-5.8111,11.3766-8.9871,24.1593-8.6486,36.9294c0.059,2.2275,0.2105,4.455,0.4906,6.6678l0.0014-0.0001
		c0.0935,0.7377,0.2144,1.479,0.3349,2.2125c0.6358,3.8701,1.6413,7.6803,3.0601,11.3311c2.396,3.0983,5.1417,5.9249,8.1295,8.4657
		c0.5662,0.4814,1.139,0.9674,1.7227,1.428l-0.0008,0.0011c1.7514,1.3813,3.5816,2.66,5.4596,3.8594
		c10.7661,6.8762,23.3555,10.7479,36.0993,11.6368c12.7436,0.8885,25.6223-1.153,37.6663-5.4105
		c10.9278-3.8632,21.0751-9.5052,30.4045-16.3671c-2.1094,7.7697-3.8079,15.6484-5.0562,23.6064
		c-5.0697,32.363-2.6214,66.0294,8.4062,96.8691c2.5637,7.1735,5.5699,14.207,9.0879,20.9708l-0.0035,0.0115
		c5.8635,11.2734,13.1044,21.8134,21.7435,31.1169c13.8226,14.8865,31.3819,26.5084,50.8994,32.1455
		c19.517,5.6362,40.954,5.0887,59.6941-2.7535c18.7401-7.8423,34.5066-23.1799,41.6785-42.1865
		c4.1249-10.9319,5.421-22.912,3.7166-34.4714c-1.7038-11.5597-6.4161-22.6738-13.519-31.9501
		c-4.6215-6.0356-10.2423-11.2689-16.5664-15.4858c2.973,2.5934,5.7051,5.4628,8.1036,8.595
		c6.0986,7.9647,10.1253,17.516,11.5878,27.4402c1.4626,9.9241,0.3402,20.218-3.201,29.6039
		c-6.1573,16.3176-19.6636,29.4579-35.7524,36.1901c-16.0885,6.7328-34.5139,7.2301-51.2698,2.3911
		c-16.7556-4.8386-31.8389-14.8414-43.7066-27.6221c-11.8674-12.7806-20.5878-28.2728-26.4575-44.6965
		c-9.4638-26.4807-11.5681-55.4071-7.2121-83.1891c2.9889-19.0625,8.971-37.587,17.2941-55.0101
		c0.1976-0.2419,0.3976-0.4823,0.594-0.7251c0.3921-0.4847,0.7734-0.9768,1.1608-1.4647
		c-4.1913,9.8766-7.6543,19.3921-10.2761,28.3385c-3.4281,11.6979-7.176,37.5165-6.9954,48.1936
		c0.2824,16.7145,3.4791,32.6276,9.5476,47.5277c4.5622,11.2019,18.1883,29.7174,26.8667,36.5071
		c20.003,15.6493,44.9133,19.1365,64.2473,8.994c21.4028-11.2284,27.9716-38.3468,13.7475-56.7573
		c-0.6884-0.891-1.3429-1.7039-1.9578-2.4404c1.9684-4.2708,2.7227-8.9484,1.0946-12.1777
		c-0.2029-0.4025-0.4389-0.7526-0.7031-1.0925c7.7455,0.573,15.4022,2.454,22.5254,5.5513
		c3.743,1.6276,7.3578,3.5835,10.7534,5.8477c-4.5855-3.9996-9.7639-7.3138-15.3444-9.7408
		c-8.0493-3.5002-16.8842-5.1735-25.6552-4.8872c-0.0603,0.0021-0.1221,0.0137-0.1824,0.0159
		c-4.289-0.1256-9.1396,1.1426-12.5667,2.8704c-6.4393,3.2466-9.0276,11.0986-5.781,17.5378
		c3.2466,6.4393,11.0986,9.0276,17.5379,5.781c2.7439-1.3834,5.4456-4.3939,7.3951-7.8896
		c6.6859,10.3362,7.3438,22.5093,1.7259,33.6453c-8.3386,16.5281-24.6423,24.4508-45.2912,22.0077
		c-17.1045-2.0232-31.3191-11.0845-43.8654-27.9611c-22.4365-30.1802-25.6296-71.2651-9.1101-117.2048
		c5.5592-15.4592,23.88-51.658,34.6471-68.457c2.911-4.5416,6.2464-9.4652,9.7499-14.4297
		c27.2846-28.2942,60.8597-50.7988,96.3166-68.147c14.886-7.283,30.1037-13.7155,45.5566-19.5469
		c-10.2864,10.1755-19.5091,21.3633-27.2835,33.6289c-11.5569,18.2321-19.7773,38.6925-23.1208,60.0184
		c-3.3434,21.3258-1.7297,43.5146,5.5344,63.8416c1.6896,4.7277,3.6706,9.3628,5.9891,13.8203l-0.0033,0.0013
		c3.8642,7.4293,8.6363,14.3757,14.3297,20.507c9.1098,9.8109,20.6817,17.4702,33.5443,21.1848
		c12.8624,3.7145,26.9903,3.3538,39.3402-1.8151c12.3501-5.1682,22.741-15.2764,27.4673-27.8026
		c2.7185-7.2045,3.5726-15.0997,2.4503-22.718c-1.1227-7.618-4.2285-14.9431-8.91-21.057
		c-3.0457-3.9775-6.7501-7.4268-10.9178-10.2057c1.9593,1.7092,3.7598,3.6002,5.3406,5.6647
		c4.0192,5.2489,6.6731,11.5439,7.6371,18.0845c0.9639,6.5403,0.2242,13.3243-2.1097,19.5095
		c-4.0578,10.754-12.9597,19.4135-23.5619,23.8506c-10.6032,4.4373-22.7459,4.765-33.789,1.5765
		c-11.0429-3.1891-20.9829-9.7813-28.8039-18.2045c-7.8211-8.4231-13.5681-18.6328-17.4361-29.4561
		c-6.2372-17.452-7.6236-36.5151-4.7534-54.824c2.8706-18.3091,9.9301-35.8665,19.8517-51.5193
		c15.3638-24.2385,37.2927-43.6022,61.8627-58.6714c33.0281-10.2955,66.7236-18.8964,100.2425-27.9858
		c-5.2932,13.1588-0.1219,35.7189-20.0594,56.8511l-0.0029,0.0015c-30.338,32.1564-102.1992,55.4797-103.7039,84.6172
		c10.3134-12.7343,114.6884-10.7391,142.7332-40.4635c19.9885-21.1864,10.8443-50.2808,2.7086-75.9993
		c13.7861,12.9481,34.0551,27.4398,40.6817,59.2812c0.2597,1.2474,0.5014,2.5117,0.726,3.792
		c1.2289-0.4232,2.4522-0.8239,3.6694-1.2004c31.0699-9.6152,53.5622,1.1053,71.5657,6.9008
		c-26.4427,5.3308-56.3275,11.4135-65.1901,39.1597c-12.4336,38.929,39.8379,129.2937,33.6876,144.4827
		c24.7676-15.4215,10.3897-89.5922,23.8413-131.7048l-0.0001-0.0033c8.8398-27.6754,31.0839-34.0713,40.0357-45.0729
		c8.2724,33.7299,17.0577,67.3778,24.0371,101.262c-1.2922,28.7941-7.6204,57.356-21.3925,82.533
		c-8.8937,16.2589-20.8395,30.9353-35.4708,42.3102c-14.6313,11.3744-31.9831,19.3893-50.2734,22.3798
		c-11.343,1.8547-23.0588,1.7683-34.2153-0.9979c-11.1564-2.7661-21.7365-8.2727-29.8726-16.3917
		c-8.1357-8.1195-13.727-18.9033-14.9771-30.3293c-1.2497-11.425,2.0183-23.4064,9.4641-32.1628
		c4.2823-5.0364,9.8605-8.9677,16.05-11.2902c6.1897-2.3226,12.9827-3.0477,19.5212-2.0717c2.5717,0.3838,5.098,1.0438,7.542,1.9309
		c-4.4491-2.3016-9.2604-3.8734-14.2153-4.6129c-7.616-1.1368-15.5291-0.3086-22.7385,2.3967
		c-7.2095,2.7058-13.7046,7.2751-18.6927,13.1414c-8.6728,10.1993-12.4877,24.1847-11.0316,37.4933
		c1.4554,13.3085,7.9788,25.8455,17.4555,35.3022c9.4769,9.4568,21.7806,15.8748,34.7753,19.0969
		c8.1211,2.0138,16.5094,2.8268,24.8807,2.6118l-0.0003-0.0035c5.0227-0.1292,10.0376-0.6394,14.9922-1.4495
		c21.303-3.4836,41.4998-12.8127,58.542-26.0618s30.9662-30.3466,41.3253-49.2848c6.9693-12.7404,12.2943-26.2263,16.2188-40.1528
		c2.3778,16.3445,4.1158,32.7742,4.949,49.3254c1.9839,39.4233-1.4552,79.6965-13.0054,117.2678
		c-2.6481,5.4688-5.3417,10.7708-7.9066,15.5165c-9.4875,17.5535-32.2936,51.1077-43.1296,63.4556
		c-32.2017,36.6935-69.6978,53.7877-106.9671,48.7649c-20.8408-2.8087-35.6508-10.8605-45.701-24.8479
		c-12.1335-16.8857-13.0932-34.9871-2.6673-50.2844c7.0248-10.3065,17.9951-15.6235,30.276-14.7767
		c-2.1152,3.3981-3.4417,7.2195-3.3239,10.29c0.2763,7.2062,6.3421,12.824,13.5482,12.5476
		c7.2061-0.2762,12.8239-6.342,12.5476-13.5482c-0.147-3.8352-1.3855-8.6935-3.5716-12.3856
		c-0.0273-0.0538-0.0471-0.1136-0.0745-0.1674c-3.9954-7.8134-9.7363-14.7341-16.6956-20.0831
		c-4.8251-3.7083-10.2318-6.635-15.9514-8.7113c3.6249,1.8751,7.0862,4.0913,10.3223,6.5786
		c6.1584,4.7338,11.5107,10.5231,15.7616,17.0231c-0.4255-0.0665-0.846-0.1035-1.2964-0.0863
		c-3.6138,0.1385-7.3417,3.063-10.1259,6.8528c-0.9422-0.1815-1.9702-0.3607-3.0831-0.5317
		c-22.9953-3.5343-43.5447,15.3411-43.0092,39.5044c0.4842,21.8275,15.5941,41.9366,38.9707,51.8641
		c10.1422,4.3071,32.9398,7.2673,44.9503,5.8368c15.9756-1.9028,31.4473-6.8088,46.2097-14.6528
		c9.4301-5.0106,30.2078-20.7883,38.7842-29.4507c6.5591-6.6249,13.2092-14.2614,19.8225-22.71
		c-0.2394,0.5752-0.4854,1.1471-0.7197,1.7249c-0.1174,0.2894-0.231,0.5807-0.347,0.8707
		c-11.2166,15.7172-24.5302,29.9189-39.7635,41.7621c-22.2012,17.2603-48.5312,29.4215-76.2837,33.9592
		c-17.2126,2.8143-34.9899,2.6831-51.9181-1.5143c-16.9282-4.1976-32.9825-12.5537-45.3274-24.873
		c-12.3455-12.3193-20.8296-28.6829-22.7263-46.0199c-1.8975-17.3369,3.0624-35.5162,14.3602-48.803
		c6.4986-7.6421,14.9627-13.6073,24.3546-17.1316c9.3919-3.5243,19.6987-4.6244,29.6202-3.1436
		c3.9019,0.5825,7.7353,1.5841,11.4437,2.9302c-6.7513-3.4924-14.0515-5.8773-21.5699-6.9996
		c-11.5554-1.7247-23.5615-0.468-34.5014,3.637c-10.9398,4.1044-20.7953,11.0377-28.3642,19.9391
		c-13.1595,15.4762-18.948,36.6969-16.7386,56.8912c2.2095,20.1943,12.1077,39.2172,26.4872,53.5667
		c14.3806,14.3495,33.0502,24.0884,52.7675,28.9773c12.3229,3.0558,25.0508,4.2896,37.7536,3.963l0.0084-0.0087
		c7.6215-0.1958,15.2313-0.9702,22.7493-2.1993c32.3237-5.2794,62.9677-19.4343,88.832-39.5367
		c6.3592-4.9445,12.4311-10.2448,18.2086-15.8516c-1.488,11.4851-1.5129,23.0953,0.3966,34.5276
		c2.1049,12.5999,6.5528,24.8572,13.4991,35.5781c6.9468,10.7208,16.429,19.8627,27.6575,25.9546
		c1.9586,1.0627,3.9634,2.0452,6.0198,2.9091l0.0007-0.0012c0.6855,0.2878,1.388,0.5537,2.0834,0.8162
		c3.6696,1.3844,7.4721,2.4187,11.343,3.0154c3.8812-0.5258,7.702-1.4904,11.3963-2.8075c0.7001-0.2496,1.4073-0.5027,2.0981-0.778
		l0.0005,0.0012c2.072-0.826,4.0944-1.7717,6.0721-2.7985c11.338-5.8855,20.9858-14.8524,28.1275-25.4445
		c7.1412-10.592,11.8126-22.766,14.1475-35.3252c2.1183-11.3954,2.3057-23.0043,1.028-34.5146
		c5.674,5.7117,11.648,11.1219,17.9156,16.182c25.4924,20.5719,55.8724,35.2849,88.0942,41.1545
		c7.4943,1.3665,15.0887,2.2799,22.7053,2.6151l0.0082,0.0088c12.6947,0.5587,25.4431-0.4421,37.8198-3.272
		c19.8034-4.5275,38.6479-13.9233,53.2885-28.0074c14.6396-14.0841,24.884-32.9229,27.4624-53.0732
		c2.5784-20.1506-2.8212-41.4736-15.6953-57.188c-7.4049-9.0382-17.1318-16.1506-27.9949-20.4543
		c-10.8629-4.3043-22.8441-5.7805-34.4291-4.2673c-7.5378,0.9846-14.8803,3.2357-21.6943,6.604
		c3.7324-1.278,7.5835-2.2094,11.4954-2.7203c9.9469-1.2992,20.2319-0.0109,29.5577,3.6847
		c9.3258,3.6953,17.6794,9.8143,24.0372,17.574c11.0529,13.4912,15.6794,31.7582,13.4653,49.0575
		c-2.2135,17.2994-10.9955,33.5051-23.5642,45.5966c-12.5681,12.0916-28.7725,20.1526-45.7747,24.04
		c-17.0021,3.8871-34.7789,3.6932-51.9371,0.5646c-27.6649-5.0444-53.7681-17.6853-75.6499-35.3486
		c-15.0142-12.1198-28.0659-26.5626-38.9932-42.4822c-0.1107-0.2922-0.2189-0.5856-0.331-0.8771
		c-0.2238-0.5819-0.4592-1.1581-0.688-1.7377c6.4577,8.5681,12.967,16.325,19.4039,23.0687
		c8.4166,8.8177,28.9022,24.9728,38.2391,30.155c14.6165,8.1127,29.9958,13.3008,45.934,15.4954
		c11.9822,1.6499,34.8303-0.8928,45.0495-5.0137c23.5542-9.4984,39.0294-29.3279,39.9127-51.1428
		c0.9774-24.1495-19.2235-43.3976-42.2795-40.2844c-1.1158,0.1506-2.147,0.3112-3.0923,0.4753
		c-2.7144-3.8401-6.3882-6.8322-9.9988-7.0369c-0.45-0.0255-0.8712,0.0039-1.2978,0.0626
		c4.369-6.4213,9.8263-12.1117,16.0702-16.7319c3.2811-2.4277,6.7823-4.5802,10.441-6.3888
		c-5.7566,1.9713-11.2159,4.7988-16.108,8.4181c-7.0559,5.2208-12.9225,12.0355-17.0601,19.7745
		c-0.0284,0.0532-0.0492,0.1125-0.0775,0.1659c-2.2532,3.6516-3.5803,8.4865-3.7975,12.3182
		c-0.408,7.2,5.0979,13.3674,12.2978,13.7755c7.1998,0.4081,13.3673-5.0979,13.7754-12.2979
		c0.1738-3.0679-1.0824-6.913-3.1351-10.3491c12.2943-0.6219,23.1655,4.8948,30.0007,15.328
		c10.1444,15.4855,8.8538,33.5663-3.5864,50.2272c-10.3043,13.8013-25.259,21.5808-46.1478,24.0081
		c-37.355,4.3405-74.5322-13.4368-106.0574-50.7129c-10.6085-12.5439-32.7971-46.5096-41.962-64.2338
		c-2.4777-4.7917-5.0739-10.1422-7.6215-15.6584c-10.8612-37.7762-13.5633-78.1056-10.8587-117.4861
		c1.1357-16.5332,3.1738-32.9283,5.8502-49.2267c3.6691,13.996,8.7466,27.577,15.4818,40.4427
		c10.011,19.1245,23.6201,36.4739,40.4171,50.0323c16.797,13.5585,36.8199,23.2552,58.0556,27.1279
		c4.939,0.9005,9.9437,1.5024,14.9633,1.7234l-0.0004,0.0035c8.366,0.368,16.7678-0.2915,24.9244-2.1564
		c13.0514-2.9839,25.4705-9.1759,35.1187-18.4578c9.6481-9.282,16.3996-21.6974,18.0982-34.9772
		c1.6992-13.2797-1.8593-27.3325-10.3441-37.6886c-4.8801-5.9567-11.2905-10.6439-18.4493-13.4811
		c-7.1587-2.8367-15.0554-3.8096-22.6909-2.8123c-4.9675,0.6489-9.8068,2.1324-14.2972,4.3523
		c2.4598-0.8423,4.9977-1.4561,7.576-1.7927c6.5552-0.8563,13.3339-0.0071,19.48,2.4282
		c6.1461,2.4354,11.6514,6.468,15.8409,11.5819c7.2843,8.8912,10.3327,20.9302,8.8743,32.3304
		c-1.4588,11.4012-7.2463,22.0811-15.5292,30.0504c-8.2832,7.969-18.9622,13.2811-30.1674,15.8427
		c-11.2052,2.5618-22.9206,2.434-34.2277,0.3721c-18.2326-3.3243-35.4349-11.6554-49.8558-23.2954
		c-14.4208-11.6405-26.0961-26.5328-34.6911-42.9518c-13.3093-25.4246-19.1142-54.0974-19.8796-82.9103
		c7.598-33.7509,16.9971-67.2325,25.8849-100.8054c8.7492,11.1635,30.8725,17.965,39.2048,45.7975l-0.0002,0.0032
		c12.6793,42.3517-3.0527,116.2469,21.4288,132.1188c-5.8715-15.2988,48.0438-104.6925,36.3242-143.8423
		c-8.3538-27.9037-38.1223-34.5319-64.4631-40.3453c18.1064-5.4651,40.791-15.7727,71.6799-5.5908
		c1.2101,0.3988,2.4259,0.8217,3.6469,1.2673c0.2479-1.2759,0.5127-2.5356,0.7952-3.7781
		c7.2079-31.715,27.7384-45.8335,41.759-58.5273c-8.6047,25.5656-18.2794,54.4878,1.3182,76.0363
		c27.4966,30.2322,131.8906,30.1461,141.9694,43.0669c-0.9716-29.16-72.3942-53.7938-102.1391-86.4996l-0.0029-0.0015
		c-19.5477-21.4933-13.9646-43.9551-19.0164-57.2084c33.347,9.7007,66.8796,18.9165,99.714,29.8142
		c24.2902,15.5161,45.8615,35.2775,60.7793,59.793c9.6338,15.8317,16.371,33.5151,18.9064,51.8737
		c2.5348,18.3583,0.8,37.3928-5.7552,54.7279c-4.0653,10.7507-9.998,20.8536-17.9719,29.1323
		c-7.9736,8.2787-18.0326,14.688-29.132,17.6746c-11.0996,2.986-23.2343,2.4363-33.7545-2.1941
		c-10.5192-4.6304-19.2612-13.4512-23.1217-24.2776c-2.2205-6.2268-2.8359-13.0232-1.7526-19.5449s3.8519-12.7671,7.9664-17.9417
		c1.6183-2.0353,3.453-3.8931,5.4432-5.566c-4.2178,2.7021-7.9846,6.083-11.1025,10.0043
		c-4.7925,6.0272-8.0317,13.2944-9.2936,20.8905c-1.2615,7.5966-0.5519,15.5061,2.0344,22.7592
		c4.4963,12.6105,14.7007,22.907,26.9542,28.3003c12.2533,5.3938,26.3722,6.0128,39.3004,2.5342
		c12.9282-3.4789,24.6383-10.9252,33.926-20.5679c5.8046-6.0261,10.7029-12.8842,14.7023-20.2415l-0.0032-0.0015
		c2.3995-4.4144,4.4651-9.0126,6.2408-13.7085c7.6345-20.1907,9.6538-42.3462,6.7009-63.7296
		c-2.953-21.3835-10.7979-41.9908-22.0193-60.4313c-7.5488-12.4058-16.5654-23.7603-26.6641-34.1222
		c15.3438,6.113,30.4413,12.8228,45.1915,20.3767c35.1337,17.9937,68.2917,41.1085,95.0543,69.897
		c3.412,5.0277,6.6569,10.0115,9.4844,14.6056c10.458,16.9932,28.1138,53.5209,33.3894,69.0791
		c15.6765,46.2341,11.7325,87.2539-11.2521,117.0187c-12.8528,16.6443-27.2308,25.4442-44.3694,27.1543
		c-20.6902,2.0651-36.8462-6.1545-44.8811-22.8323c-5.4133-11.2369-4.533-23.396,2.3408-33.6082
		c1.8853,3.5309,4.5315,6.5902,7.2495,8.0236c6.3789,3.3638,14.277,0.9196,17.6407-5.4592
		c3.3638-6.3789,0.9196-14.277-5.4594-17.6407c-3.3949-1.7902-8.2216-3.1469-12.5121-3.0997
		c-0.0603-0.0032-0.1218-0.016-0.1821-0.0192c-8.7643-0.4465-17.6283,1.0648-25.7404,4.4172
		c-5.6239,2.3246-10.8619,5.5435-15.5199,9.4586c3.4364-2.2017,7.0863-4.0912,10.8585-5.65
		c7.1787-2.9666,14.8685-4.7072,22.6232-5.1384c-0.2704,0.3352-0.5127,0.6809-0.7229,1.0796
		c-1.687,3.199-1.0182,7.8896,0.8717,12.1957c-0.6283,0.7252-1.2976,1.5259-2.0021,2.4042
		c-14.5585,18.1473-8.4867,45.3813,12.7073,56.9993c19.1453,10.4944,44.1152,7.4633,64.401-7.8176
		c8.8011-6.6298,22.7635-24.8931,27.5299-36.0096c6.34-14.7867,9.827-30.6385,10.415-47.3451
		c0.3759-10.6721-2.8992-36.5549-6.1129-48.3135c-2.4578-8.9929-5.7461-18.5702-9.7561-28.5217
		c0.3784,0.4949,0.7507,0.9938,1.1339,1.4856c0.1919,0.2463,0.3875,0.4904,0.5806,0.736
		c8.0032,17.5724,13.6455,36.2032,16.2853,55.3171c3.8472,27.8571,1.2142,56.7401-8.7323,83.0433
		c-6.1689,16.3136-15.1713,31.6437-27.2704,44.2052c-12.0995,12.5614-27.3632,22.2869-44.2045,26.8181
		c-16.8416,4.5319-35.2549,3.6976-51.2175-3.3282c-15.963-7.0253-29.2267-20.4103-35.0846-36.8379
		c-3.3689-9.449-4.3029-19.7617-2.6591-29.6575s5.8445-19.3718,12.0876-27.2236c2.4554-3.0878,5.2396-5.9069,8.2595-8.4454
		c-6.4001,4.1006-12.1157,9.2302-16.8468,15.1803c-7.2714,9.1449-12.1862,20.1709-14.1011,31.6976
		c-1.9154,11.5264-0.8387,23.5281,3.0857,34.5336c6.823,19.1345,22.3065,34.7579,40.9,42.9418
		c18.5935,8.1836,40.0168,9.123,59.6337,3.8447c19.6173-5.2793,37.3862-16.5781,51.4788-31.2094
		c8.8077-9.1442,16.2402-19.5499,22.3088-30.7141l-0.0033-0.0116c3.6411-6.6982,6.7754-13.6757,9.47-20.8011
		c11.5897-30.6328,14.6532-64.2488,10.1763-96.6992c-1.1025-7.9794-2.6567-15.8879-4.6237-23.6948
		c9.2024,7.0311,19.2448,12.8579,30.1001,16.9203c11.9642,4.4771,24.8033,6.7538,37.561,6.0985
		c12.7581-0.6558,25.4161-4.2966,36.3062-10.9749c1.8997-1.1648,3.7529-2.4098,5.5293-3.7588l-0.0009-0.0012
		c0.5922-0.4497,1.1736-0.9252,1.7487-1.3962c3.0337-2.4857,5.8307-5.2616,8.283-8.3156c1.4852-3.6241,2.5602-7.4154,3.2667-11.2733
		c0.1339-0.7311,0.2683-1.4701,0.3754-2.2059l0.0013,0.0001c0.3206-2.2074,0.5128-4.4316,0.6124-6.6577
		c0.572-12.7618-2.3696-25.6005-7.9718-37.0814c-5.6023-11.4806-13.8097-21.613-23.5188-29.9147
		c-8.8096-7.5322-18.7694-13.4989-29.3765-18.1476c7.7833-2.0581,15.4558-4.5265,22.9717-7.4244
		c30.5621-11.791,58.4939-30.7445,79.6881-55.7146c4.9305-5.807,9.5187-11.9271,13.6173-18.3557l0.0117-0.0027
		c6.8313-10.7146,12.3387-22.2554,16.0763-34.3889c5.9808-19.414,7.266-40.4317,2.3892-60.153
		c-4.8774-19.7203-16.0701-38.0115-32.2316-50.3198c-16.1617-12.3082-37.3279-18.2936-57.3739-15.0013
		c-11.5298,1.8936-22.5529,6.7612-31.7115,14.017c-9.1591,7.2554-16.4281,16.8934-20.91,27.6829
		c-2.9163,7.0201-4.6381,14.5045-5.1279,22.0898c0.7594-3.8713,1.8783-7.6722,3.3917-11.3155
		c3.8483-9.2639,10.1066-17.5267,17.9698-23.7554c7.8633-6.2287,17.3394-10.4036,27.2383-12.0298
		c17.2101-2.8265,35.343,2.3003,49.2177,12.8675c13.875,10.5667,23.5184,26.2748,27.7057,43.2054
		c4.1875,16.9301,3.0664,34.994-2.0681,51.662c-5.1346,16.6678-14.191,31.9659-25.4796,45.2611
		c-18.201,21.4363-42.1998,37.7219-68.4377,47.8405c-18.0031,6.9427-37.0369,11.0244-56.2872,12.528
		c-0.3083-0.0502-0.6165-0.1031-0.9249-0.1519c-0.616-0.0972-1.2327-0.1814-1.849-0.2729
		c10.649-1.3085,20.6212-3.0673,29.6801-5.2699c11.8446-2.8801,36.0781-12.5437,45.2345-18.0386
		c14.334-8.6019,26.5167-19.3268,36.3865-32.0323c7.4199-9.5519,16.6418-30.6102,18.1827-41.5208
		c3.5511-25.1478-5.884-48.4644-24.3347-60.1368c-20.4254-12.9212-47.1951-5.0507-56.027,16.473
		c-0.4275,1.0416-0.8041,2.0148-1.1346,2.9156c-4.6827,0.4307-9.1108,2.1162-11.0934,5.1409
		c-0.2472,0.377-0.4324,0.7564-0.5947,1.1552c-3.3765-6.9943-5.5759-14.5657-6.4552-22.2832
		c-0.462-4.0554-0.5754-8.1638-0.3124-12.2366c-1.1711,5.971-1.4521,12.1127-0.7637,18.1591
		c0.9934,8.7209,3.9618,17.2089,8.5952,24.6617c0.0319,0.0512,0.0729,0.0989,0.1049,0.1501
		c2.0358,3.7772,5.5593,7.3439,8.7692,9.4479c6.0313,3.9533,14.1255,2.2688,18.0789-3.7625
		c3.9532-6.0313,2.2687-14.1254-3.7626-18.0787c-2.5699-1.6846-6.528-2.5191-10.5302-2.4595
		c5.6085-10.9582,15.8218-17.6146,28.2748-18.3173c18.483-1.0427,33.4961,9.1154,41.7048,28.2195
		c6.8,15.8245,6.0601,32.6654-2.2823,51.9691c-14.9186,34.5206-48.9027,57.8285-96.9474,66.4921
		c-16.1676,2.9152-56.677,5.1482-76.609,4.2231c-5.3887-0.2501-11.3203-0.6769-17.3715-1.2288
		c-38.1458-9.4821-74.423-27.3066-107.1752-49.3391c-13.7504-9.2501-26.9299-19.2129-39.7065-29.6797
		c13.9556,3.8204,28.2557,6.2137,42.7654,6.8137c21.5679,0.8925,43.3973-2.2186,63.5378-9.986
		c20.1404-7.7675,38.5496-20.2593,52.5212-36.7137c3.2494-3.827,6.2731-7.8602,8.9741-12.0969l0.0028,0.0021
		c4.5018-7.0611,8.1316-14.6671,10.5947-22.6633c3.9417-12.7948,4.7887-26.646,1.5745-39.6426
		c-3.2144-12.9964-10.5907-25.0511-21.2419-33.1621c-10.651-8.1114-24.6003-12.056-37.8114-9.886
		c-7.5986,1.2479-14.8632,4.4559-20.8995,9.2371c-6.036,4.7813-10.8269,11.1335-13.7809,18.2448
		c-1.9219,4.6264-3.0568,9.5591-3.3795,14.5579c0.5005-2.5514,1.2379-5.0562,2.2355-7.4574
		c2.5361-6.1052,6.6608-11.551,11.843-15.6561c5.1821-4.1049,11.4271-6.8564,17.9507-7.9277
		c11.342-1.8628,23.2924,1.5167,32.436,8.4799c9.1444,6.9641,15.4996,17.316,18.2599,28.4739
		c2.7596,11.158,2.0206,23.0624-1.3635,34.0471c-3.384,10.9849-9.3524,21.0668-16.7917,29.8281
		c-11.9952,14.1277-27.8113,24.8598-45.1022,31.5286c-17.2915,6.6685-36.0264,9.3335-54.543,8.5675
		c-28.673-1.1862-56.4069-10.4954-81.7422-24.239c-25.4302-23.4554-49.7267-48.3362-74.3577-72.8197
		c14.0425-1.9952,30.9944-17.7538,59.2642-11.0536l0.0027,0.0018c43.0173,10.1953,99.1465,60.7671,125.1327,47.5015
		c-16.1849-2.5646-66.6445-93.9535-106.4091-103.3788c-28.3422-6.7173-48.9666,15.7489-67.1716,35.654
		c4.3203-18.4132,6.736-43.2124,30.9982-64.872c0.9504-0.8486,1.9246-1.6901,2.9209-2.5247
		c-0.981-0.8527-1.9395-1.7118-2.8743-2.5777c-23.8621-22.0997-25.8237-46.9388-29.8066-65.428
		c17.838,20.2346,38.0481,43.0743,66.5084,36.8764c39.9302-8.6966,92.0526-99.1474,108.2817-101.4156
		c-25.7391-13.7386-82.7838,35.7983-125.9803,45.2052l-0.0028,0.0018c-28.3876,6.1822-45.0485-9.8838-59.052-12.1356
		c25.0746-24.029,49.822-48.4612,75.6768-71.4477c25.5825-13.2779,53.4819-22.0784,82.1719-22.74
		c18.5276-0.4272,37.2106,2.5799,54.3771,9.5635c17.1661,6.9839,32.7832,18.0035,44.5182,32.3481
		c7.2778,8.8959,13.0608,19.0853,16.2434,30.1302c3.1827,11.0448,3.704,22.9607,0.7406,34.0663
		c-2.9639,11.1055-9.5072,21.3395-18.7775,28.1352c-9.2695,6.7947-21.2795,9.9552-32.5857,7.8853
		c-6.5028-1.1904-12.6965-4.0557-17.8027-8.2546c-5.1063-4.1992-9.1307-9.7195-11.5547-15.8701
		c-0.9535-2.4191-1.645-4.937-2.0988-7.4971c0.2313,5.0038,1.2758,9.9565,3.1127,14.6173
		c2.8235,7.164,7.4974,13.6028,13.4449,18.4937c5.948,4.8907,13.1527,8.231,20.7272,9.6177
		c13.1692,2.4113,27.1884-1.2776,37.9858-9.1929c10.7979-7.9148,18.3934-19.8326,21.8448-32.7681
		c3.4514-12.9357,2.8578-26.8-0.8491-39.6647c-2.3167-8.04-5.8066-15.7111-10.1786-22.8533l-0.0028,0.0021
		c-2.6232-4.2853-5.5725-8.3731-8.7515-12.2589c-13.6683-16.7072-31.8461-29.5336-51.8411-37.668
		c-19.9951-8.1345-41.764-11.6442-63.3446-11.1463c-14.5182,0.3345-28.8597,2.4659-42.8828,6.0305
		c12.9659-10.2315,26.3254-19.9515,40.2427-28.9486c33.1497-21.4299,69.7468-38.5881,108.0596-47.3709
		c6.0602-0.4411,11.9987-0.7593,17.391-0.9109c19.9456-0.5603,60.4073,2.4131,76.519,5.6235
		c47.8782,9.5407,81.4304,33.4661,95.7151,68.2538c7.988,19.4531,8.4199,36.3047,1.3315,52.0022
		c-8.5566,18.9507-23.7529,28.8326-42.2139,27.4521c-12.4381-0.9304-22.528-7.7724-27.9351-18.8314
		c4.0005,0.1328,7.973-0.6292,10.5734-2.2665c6.1025-3.8423,7.9349-11.9044,4.0925-18.0069s-11.9044-7.9348-18.007-4.0924
		c-3.2478,2.0449-6.8361,5.5466-8.9404,9.2859c-0.033,0.0506-0.0748,0.0975-0.1077,0.1481
		c-4.7689,7.3668-7.8921,15.7991-9.0448,24.5004c-0.7988,6.0327-0.6302,12.1785,0.4315,18.1699
		c-0.1886-4.0769,0-8.1826,0.5361-12.2288c1.0203-7.7002,3.3578-15.2301,6.8616-22.1614c0.155,0.4017,0.3333,0.7844,0.5735,1.1659
		c1.9269,3.0604,6.3235,4.8266,10.9976,5.3429c0.314,0.9067,0.6727,1.8867,1.0811,2.9359
		c8.4369,21.6816,35.0581,30.0403,55.7164,17.4948c18.661-11.3331,28.5211-34.4732,25.4303-59.6817
		c-1.3409-10.937-10.1763-32.1604-17.4204-41.8464c-9.6356-12.8839-21.6201-23.8298-35.7944-32.6923
		c-9.0544-5.6614-33.1071-15.7666-44.8971-18.8627c-9.017-2.368-18.9553-4.3088-29.5787-5.8118
		c0.6179-0.0803,1.2361-0.1532,1.8536-0.2391c0.3093-0.043,0.6184-0.0903,0.9276-0.1349
		c19.2197,1.8553,38.1757,6.2844,56.0487,13.5552c26.0485,10.5967,49.7455,27.3184,67.5515,49.084
		c11.0435,13.4994,19.8186,28.9606,24.6476,45.7195c4.8289,16.7591,5.6194,34.8406,1.1229,51.6912
		c-4.4961,16.8511-14.4252,32.3804-28.4912,42.6915c-14.0654,10.3117-32.2891,15.106-49.4447,11.9652
		c-9.8676-1.8069-19.2656-6.1544-27.0137-12.5259c-7.748-6.3714-13.8542-14.7474-17.5325-24.08
		c-1.4465-3.6703-2.4957-7.491-3.1842-11.3756c0.3511,7.593,1.9357,15.1075,4.7231,22.1799
		c4.2839,10.8696,11.3754,20.6389,20.4003,28.0607c9.0244,7.422,19.9567,12.4904,31.4498,14.5945
		c19.9825,3.6583,41.2545-1.939,57.6387-13.9496c16.3839-12.0106,27.9092-30.0941,33.1465-49.7219
		c5.2366-19.6288,4.3359-40.6665-1.2887-60.1866c-3.5151-12.1998-8.8105-23.8394-15.4448-34.6771l-0.0116-0.0029
		c-3.9803-6.5024-8.4558-12.7055-13.2794-18.6017c-20.7339-25.3535-48.3145-44.8145-78.6558-57.1625
		c-7.4617-3.035-15.0878-5.6433-22.8323-7.8433c10.6904-4.4539,20.7577-10.2375,29.7036-17.6073
		c9.8593-8.1227,18.2505-18.1035,24.0619-29.4796c5.8112-11.3766,8.9871-24.1593,8.6486-36.9294
		c-0.059-2.2275-0.2104-4.455-0.4906-6.6679l-0.0013,0.0001c-0.0935-0.7377-0.2145-1.479-0.335-2.2124
		c-0.6359-3.8702-1.6414-7.6804-3.0601-11.3311c-2.396-3.0983-5.1417-5.9249-8.1295-8.4657
		c-0.5663-0.4815-1.1389-0.9674-1.7227-1.428l0.0007-0.0012c-1.7513-1.3813-3.5815-2.6599-5.4596-3.8593
		c-10.766-6.8762-23.3555-10.748-36.0994-11.6369c-12.7435-0.8885-25.6222,1.153-37.6663,5.4105
		c-10.9279,3.8632-21.0751,9.5053-30.4045,16.3671c2.1094-7.7696,3.808-15.6484,5.0562-23.6064
		c5.0697-32.363,2.6215-66.0294-8.4061-96.8691c-2.5637-7.1735-5.5699-14.2071-9.0879-20.9709l0.0035-0.0115
		c-5.8635-11.2734-13.1044-21.8133-21.7435-31.1169c-13.8226-14.8865-31.382-26.5084-50.8994-32.1456
		c-19.517-5.6362-40.954-5.0887-59.6941,2.7535c-18.74,7.8424-34.5066,23.18-41.6785,42.1866
		c-4.1249,10.9319-5.421,22.912-3.7167,34.4714c1.7039,11.5597,6.4161,22.6738,13.519,31.9501
		c4.6216,6.0356,10.2423,11.2689,16.5664,15.4858c-2.973-2.5934-5.7052-5.4628-8.1036-8.5951
		c-6.0985-7.9647-10.1252-17.5159-11.5878-27.4401c-1.4626-9.9241-0.3402-20.2181,3.2009-29.6039
		c6.1573-16.3177,19.6637-29.4579,35.7524-36.19c16.0884-6.7328,34.5139-7.2302,51.2698-2.3911
		c16.7556,4.8385,31.8389,14.8414,43.7065,27.622c11.8674,12.7807,20.5879,28.2728,26.4575,44.6966
		c9.4639,26.4807,11.5681,55.4071,7.2122,83.1891c-2.9889,19.0624-8.9709,37.587-17.2941,55.0101
		c-0.1976,0.2419-0.3976,0.4823-0.594,0.7252c-0.3921,0.4847-0.7734,0.9767-1.1609,1.4647
		c4.1913-9.8766,7.6543-19.3922,10.2761-28.3386c3.4281-11.6978,7.176-37.5164,6.9954-48.1935
		c-0.2823-16.7145-3.479-32.6276-9.5475-47.5277c-4.5623-11.2019-18.1884-29.7175-26.8668-36.5071
		c-20.0029-15.6493-44.9133-19.1365-64.2472-8.994c-21.4028,11.2284-27.9717,38.3468-13.7476,56.7574
		c0.6884,0.891,1.3429,1.7038,1.9578,2.4404c-1.9684,4.2708-2.7228,8.9484-1.0946,12.1777c0.2029,0.4025,0.439,0.7526,0.7031,1.0926
		c-7.7455-0.573-15.4022-2.454-22.5254-5.5512c-3.743-1.6276-7.3578-3.5835-10.7534-5.8477
		c4.5856,3.9997,9.7639,7.3139,15.3444,9.7408c8.0493,3.5002,16.8843,5.1734,25.6553,4.8872
		c0.0602-0.002,0.1221-0.0137,0.1824-0.0158c4.2889,0.1256,9.1396-1.1426,12.5667-2.8704
		c6.4393-3.2466,9.0276-11.0986,5.7811-17.5379c-3.2466-6.4393-11.0986-9.0275-17.538-5.781
		c-2.7438,1.3834-5.4456,4.3939-7.395,7.8897c-6.6859-10.3362-7.3439-22.5094-1.726-33.6454
		c8.3386-16.5281,24.6423-24.4507,45.2913-22.0077c17.1044,2.0232,31.3191,11.0845,43.8654,27.9611
		c22.4365,30.1801,25.6296,71.2651,9.1101,117.2048c-5.5592,15.4592-23.88,51.6579-34.6471,68.457
		c-2.9109,4.5416-6.2463,9.4652-9.7499,14.4297c-27.2845,28.2942-60.8597,50.7989-96.3165,68.1469
		c-14.886,7.283-30.1036,13.7155-45.5566,19.5469c10.2864-10.1756,19.5092-21.3633,27.2836-33.629
		c11.5569-18.2321,19.7772-38.6925,23.1207-60.0184c3.3434-21.3258,1.7297-43.5146-5.5343-63.8416
		c-1.6897-4.7276-3.6707-9.3628-5.9891-13.8203l0.0032-0.0014c-3.8641-7.4293-8.6362-14.3757-14.3296-20.507
		c-9.1099-9.8109-20.6818-17.4701-33.5443-21.1848c-12.8623-3.7145-26.9902-3.3538-39.3401,1.8151
		c-12.3502,5.1683-22.7411,15.2765-27.4673,27.8026c-2.7185,7.2045-3.5726,15.0998-2.4503,22.7181
		c1.1227,7.618,4.2285,14.9431,8.91,21.057c3.0457,3.9776,6.7501,7.4268,10.9177,10.2057
		c-1.9592-1.7091-3.7598-3.6002-5.3406-5.6647c-4.0192-5.2489-6.6731-11.5439-7.6371-18.0844
		c-0.9639-6.5403-0.2242-13.3244,2.1097-19.5096c4.0579-10.754,12.9598-19.4135,23.5619-23.8506
		c10.6031-4.4372,22.7458-4.765,33.7889-1.5765c11.043,3.189,20.983,9.7812,28.804,18.2044
		c7.8212,8.4231,13.5681,18.6328,17.436,29.4561c6.2373,17.4521,7.6237,36.5152,4.7535,54.824
		c-2.8707,18.3091-9.9302,35.8664-19.8518,51.5193c-15.3638,24.2386-37.2927,43.6021-61.8627,58.6714
		c-33.0281,10.2954-66.7236,18.8964-100.2425,27.9857c5.2932-13.1588,0.1219-35.7189,20.0594-56.8511l0.0029-0.0015
		c30.3381-32.1564,102.1992-55.4798,103.7039-84.6172c-10.3135,12.7343-114.6884,10.7392-142.7333,40.4635
		c-19.9885,21.1865-10.8443,50.2808-2.7086,75.9994c-13.7862-12.9481-34.0551-27.4398-40.6817-59.2813
		c-0.2597-1.2474-0.5014-2.5117-0.726-3.7919c-1.2289,0.4232-2.4522,0.8238-3.6695,1.2004
		c-31.0699,9.6153-53.5621-1.1054-71.5656-6.9007c26.4427-5.3309,56.3275-11.4135,65.1901-39.1598
		c12.4336-38.9289-39.8379-129.2936-33.6876-144.4826c-24.7676,15.4215-10.3897,89.5921-23.8413,131.7048l0.0001,0.0032
		c-8.8398,27.6755-31.0839,34.0713-40.0358,45.0729c-8.2723-33.7298-17.0576-67.3777-24.037-101.262
		c1.2922-28.794,7.6204-57.3559,21.3925-82.5329c8.8937-16.2589,20.8395-30.9353,35.4708-42.3102
		c14.6313-11.3744,31.9831-19.3893,50.2734-22.3798c11.343-1.8547,23.0588-1.7683,34.2152,0.998
		c11.1565,2.766,21.7366,8.2726,29.8727,16.3917c8.1357,8.1195,13.727,18.9033,14.9771,30.3293
		c1.2497,11.425-2.0183,23.4063-9.4641,32.1628c-4.2823,5.0364-9.8605,8.9677-16.0501,11.2903
		c-6.1896,2.3226-12.9827,3.0477-19.5212,2.0717c-2.5717-0.3838-5.098-1.0439-7.542-1.931
		c4.4491,2.3016,9.2604,3.8734,14.2153,4.613c7.616,1.1368,15.5291,0.3085,22.7385-2.3968
		c7.2094-2.7058,13.7046-7.2751,18.6927-13.1414c8.6728-10.1992,12.4877-24.1846,11.0316-37.4932
		c-1.4554-13.3086-7.9788-25.8455-17.4555-35.3022c-9.4769-9.4568-21.7806-15.8748-34.7753-19.0969
		c-8.1211-2.0138-16.5095-2.8269-24.8808-2.6118l0.0004,0.0035c-5.0228,0.1291-10.0376,0.6394-14.9922,1.4495
		c-21.303,3.4836-41.4998,12.8127-58.542,26.0616c-17.0422,13.2491-30.9662,30.3466-41.3253,49.2849
		c-6.9693,12.7404-12.2943,26.2263-16.2188,40.1528c-2.3778-16.3446-4.1158-32.7743-4.949-49.3254
		c-1.9839-39.4234,1.4552-79.6965,13.0054-117.2678c2.6481-5.4688,5.3417-10.7708,7.9066-15.5165
		c9.4875-17.5535,32.2936-51.1077,43.1296-63.4556c32.2017-36.6934,69.6978-53.7877,106.9671-48.7648
		c20.8408,2.8087,35.6508,10.8605,45.701,24.8479c12.1335,16.8857,13.0932,34.987,2.6672,50.2844
		c-7.0247,10.3065-17.9951,15.6235-30.2759,14.7768c2.1152-3.3981,3.4417-7.2195,3.3239-10.2901
		c-0.2763-7.2061-6.342-12.824-13.5482-12.5477c-7.2062,0.2763-12.8239,6.3421-12.5476,13.5483
		c0.147,3.8352,1.3854,8.6935,3.5716,12.3857c0.0273,0.0538,0.0471,0.1136,0.0745,0.1673
		c3.9954,7.8134,9.7363,14.7342,16.6956,20.0832c4.8251,3.7082,10.2318,6.6351,15.9514,8.7113
		c-3.6249-1.8752-7.0862-4.0913-10.3224-6.5787c-6.1584-4.7337-11.5107-10.523-15.7615-17.0231
		c0.4254,0.0666,0.846,0.1036,1.2964,0.0863c3.6138-0.1386,7.3417-3.063,10.1259-6.8528c0.9422,0.1815,1.9703,0.3607,3.0831,0.5318
		c22.9953,3.5343,43.5447-15.3411,43.0092-39.5045c-0.4843-21.8275-15.5942-41.9366-38.9708-51.8642
		c-10.1422-4.3071-32.9398-7.2673-44.9503-5.8367c-15.9756,1.9028-31.4473,6.8088-46.2097,14.6528
		c-9.4301,5.0106-30.2078,20.7883-38.7842,29.4507c-6.5591,6.625-13.2092,14.2614-19.8225,22.7099
		c0.2394-0.5752,0.4854-1.147,0.7197-1.7248c0.1174-0.2894,0.231-0.5807,0.347-0.8708
		c11.2166-15.7171,24.5302-29.9189,39.7635-41.762C902.724,93.794,929.054,81.6327,956.8065,77.095
		c17.2125-2.8143,34.9899-2.6831,51.9181,1.5143c16.9283,4.1977,32.9825,12.5538,45.3275,24.8731
		c12.3455,12.3193,20.8296,28.6828,22.7263,46.0198c1.8975,17.3369-3.0625,35.5162-14.3602,48.803
		c-6.4985,7.6421-14.9628,13.6073-24.3546,17.1315c-9.3918,3.5243-19.6987,4.6244-29.6201,3.1436
		c-3.9019-0.5825-7.7353-1.5841-11.4437-2.9302c6.7513,3.4924,14.0515,5.8774,21.5699,6.9996
		c11.5553,1.7248,23.5615,0.468,34.5013-3.6369c10.9399-4.1043,20.7954-11.0377,28.3643-19.9391
		c13.1594-15.4762,18.948-36.697,16.7386-56.8913c-2.2096-20.1943-12.1078-39.2172-26.4873-53.5667
		c-14.3806-14.3495-33.0502-24.0883-52.7675-28.9772c-12.3229-3.0558-25.0508-4.2896-37.7536-3.963l-0.0084,0.0086
		c-7.6215,0.1959-15.2313,0.9702-22.7493,2.1995c-32.3237,5.2794-62.9677,19.4343-88.8321,39.5367
		c-6.3591,4.9445-12.431,10.2447-18.2086,15.8516c1.488-11.4851,1.5129-23.0954-0.3966-34.5276
		c-2.1049-12.5998-6.5528-24.8572-13.4991-35.578c-6.9468-10.7209-16.429-19.8627-27.6575-25.9546
		c-1.9586-1.0627-3.9634-2.0452-6.0198-2.909l-0.0007,0.0012c-0.6855-0.2879-1.388-0.5538-2.0835-0.8162
		C798.0403,12.1032,794.2379,11.0689,790.3669,10.4722z M668.4832,607.7764c24.6307-17.2214,46.1616-42.8251,66.3063-55.2651
		c-9.7997,38.3159-18.3489,76.8415-22.2188,116.1113c-0.4906,4.9782-0.905,9.9639-1.2431,14.9549
		c-4.4503-2.2844-8.9354-4.5009-13.4535-6.6481c-35.6398-16.938-73.0554-29.4833-110.9362-40.8492
		C607.9854,625.2375,641.0257,619.9965,668.4832,607.7764z M550.2275,808.3431c-2.5988-29.9415-14.0068-61.3896-14.7078-85.0555
		c28.2827,27.6447,57.3723,54.3113,89.4459,77.2977c4.066,2.914,8.1766,5.7657,12.3298,8.554
		c-4.2035,2.7119-8.3656,5.4879-12.4841,8.3271c-32.4887,22.3959-62.061,48.5261-90.8445,75.649
		C535.1004,869.4664,547.0817,838.2321,550.2275,808.3431z M664.7956,1011.0389c-27.2295-12.7202-60.1684-18.5646-81.0141-29.7904
		c38.0824-10.6711,75.7211-22.5302,111.6647-38.8136c4.5566-2.0642,9.0815-4.1982,13.5728-6.4009
		c0.2468,4.9963,0.5699,9.9888,0.9694,14.9751c3.1511,39.334,10.9944,78.0095,20.0917,116.4982
		C710.1663,1054.701,689.1073,1028.7079,664.7956,1011.0389z M897.6193,1013.168c-24.6307,17.2214-46.1616,42.8251-66.3062,55.2651
		c9.7997-38.3159,18.3489-76.8416,22.2188-116.1113c0.4906-4.9782,0.905-9.9639,1.2431-14.9548
		c4.4503,2.2844,8.9354,4.5008,13.4535,6.648c35.6398,16.938,73.0554,29.4834,110.9362,40.8492
		C958.1172,995.7068,925.0769,1000.9479,897.6193,1013.168z M1015.8751,812.6013c2.5988,29.9415,14.0068,61.3896,14.7078,85.0554
		c-28.2827-27.6447-57.3723-54.3113-89.4459-77.2977c-4.066-2.914-8.1766-5.7657-12.3298-8.554
		c4.2035-2.7119,8.3655-5.4879,12.4841-8.327c32.4887-22.396,62.061-48.5262,90.8445-75.649
		C1031.0022,751.478,1019.0209,782.7122,1015.8751,812.6013z M901.307,609.9054c27.2295,12.7202,60.1684,18.5646,81.0141,29.7904
		c-38.0824,10.6711-75.7211,22.5302-111.6647,38.8136c-4.5566,2.0642-9.0815,4.1982-13.5728,6.4009
		c-0.2468-4.9963-0.5699-9.9887-0.9694-14.975c-3.1511-39.334-10.9944-78.0096-20.0917-116.4982
		C855.9363,566.2433,876.9953,592.2365,901.307,609.9054z M730.4979,717.4937c5.3033-43.4375,17.5613-85.7728,28.8224-128.2382
		c5.307,26.6729,9.7964,57.5042,25.0295,79.2191c15.6276-21.4327,20.6801-52.1768,26.474-78.7482
		c10.4827,42.6642,21.9644,85.2166,26.4725,128.7439c40.2697-17.126,83.0621-27.6779,125.4688-39.1581
		c-20.4459,17.9325-44.9019,37.2361-56.0911,61.2858c26.3751,2.8175,55.5265-8.1789,81.4349-16.447
		c-31.707,30.4105-62.8176,61.6301-98.2593,87.2978c34.9664,26.3116,65.5009,58.0949,96.6464,89.0801
		c-25.7529-8.7405-54.6983-20.2682-81.1205-17.9335c10.7474,24.2503,34.8463,43.9979,54.9609,62.3013
		c-42.1896-12.2538-84.782-23.5865-124.7317-41.4461c-5.3033,43.4376-17.5613,85.7728-28.8225,128.2382
		c-5.307-26.6729-9.7964-57.5042-25.0294-79.2191c-15.6276,21.4327-20.6801,52.1768-26.474,78.7482
		c-10.4827-42.6642-21.9644-85.2166-26.4725-128.7439c-40.2697,17.126-83.0621,27.6779-125.4688,39.1581
		c20.4459-17.9325,44.9019-37.2361,56.0911-61.2857c-26.3751-2.8176-55.5265,8.1789-81.4349,16.4469
		c31.707-30.4104,62.8176-61.6301,98.2592-87.2978c-34.9664-26.3116-65.5008-58.0949-96.6463-89.0801
		c25.7529,8.7404,54.6983,20.2681,81.1205,17.9334c-10.7474-24.2502-34.8463-43.9979-54.9609-62.3013
		C647.9558,688.3015,690.5481,699.6342,730.4979,717.4937z M785.2565,569.3273c-1.4887-2.0875-2.9285-4.1063-4.3555-6.0195
		c1.4535,0.6484,2.9182,1.3017,4.3927,1.9534c1.4861-0.6246,2.9626-1.251,4.4277-1.8727
		C788.2595,565.2753,786.7831,567.2673,785.2565,569.3273z M575.3162,687.99c-2.5522,0.2455-5.0203,0.483-7.3907,0.7623
		c1.2883-0.9345,2.5864-1.8764,3.888-2.8275c0.2021-1.5993,0.3979-3.1912,0.592-4.7708
		C573.3087,683.3633,574.2956,685.6379,575.3162,687.99z M573.1111,929.1349c-1.0635,2.3329-2.0919,4.5892-3.0352,6.7817
		c-0.1652-1.5829-0.3318-3.1781-0.5046-4.7809c-1.2841-0.9747-2.5647-1.9402-3.8357-2.8981
		C568.1005,928.5602,570.5638,928.8428,573.1111,929.1349z M780.8461,1051.6171c1.4887,2.0875,2.9285,4.1062,4.3555,6.0194
		c-1.4535-0.6483-2.9183-1.3016-4.3927-1.9534c-1.4861,0.6246-2.9626,1.2511-4.4277,1.8728
		C777.8431,1055.6691,779.3195,1053.677,780.8461,1051.6171z M990.7864,932.9543c2.5522-0.2455,5.0203-0.483,7.3907-0.7623
		c-1.2883,0.9346-2.5864,1.8765-3.888,2.8275c-0.2021,1.5993-0.3979,3.1912-0.592,4.7708
		C992.7939,937.5811,991.807,935.3064,990.7864,932.9543z M992.9915,691.8094c1.0635-2.333,2.0919-4.5892,3.0352-6.7817
		c0.1652,1.5829,0.3318,3.1781,0.5046,4.7808c1.2841,0.9747,2.5647,1.9402,3.8357,2.8981
		C998.0021,692.3842,995.5388,692.1016,992.9915,691.8094z M785.55,537.2228c-4.8259,0.4142-9.3899,0.4024-13.6021,0.4531
		c0.3382-1.5789,0.6716-3.1584,0.9979-4.739c4.5928-17.4316,9.0461-34.8821,13.1225-52.3886
		c3.7556,17.5781,7.889,35.1071,12.1622,52.6198c0.2973,1.5863,0.6018,3.1717,0.911,4.7565
		C794.931,537.7968,790.3675,537.7252,785.55,537.2228z M547.6598,671.6835c-2.0542,4.3864-4.3465,8.333-6.4087,12.0063
		c-1.1983-1.0823-2.3995-2.1608-3.6052-3.2338c-12.7998-12.6932-25.6858-25.2751-38.8086-37.5587
		c17.1008,5.5366,34.3482,10.7215,51.6512,15.7771c1.5225,0.5357,3.0477,1.0647,4.5748,1.5893
		C552.8474,663.8464,550.5036,667.7627,547.6598,671.6835z M545.161,944.9329c2.7717,3.9722,5.0434,7.9306,7.1934,11.5532
		c-1.5364,0.4965-3.071,0.9976-4.6031,1.5053c-17.3925,4.7383-34.7318,9.6069-51.9311,14.8299
		c13.3453-12.0414,26.4592-24.3857,39.489-36.8427c1.2252-1.0507,2.4459-2.1071,3.6637-3.1672
		C540.9677,936.5218,543.1874,940.5096,545.161,944.9329z M780.5526,1083.7216c4.8259-0.4143,9.3898-0.4023,13.6021-0.453
		c-0.3382,1.5789-0.6716,3.1583-0.9979,4.739c-4.5928,17.4315-9.0461,34.8821-13.1225,52.3885
		c-3.7556-17.5781-7.889-35.1072-12.1622-52.6198c-0.2973-1.5864-0.6018-3.1718-0.911-4.7566
		C771.1716,1083.1475,775.7351,1083.2191,780.5526,1083.7216z M1018.4428,949.2608c2.0542-4.3864,4.3465-8.333,6.4088-12.0062
		c1.1982,1.0823,2.3994,2.1608,3.6051,3.2337c12.7998,12.6932,25.6858,25.2751,38.8086,37.5587
		c-17.1008-5.5366-34.3481-10.7215-51.6511-15.7771c-1.5225-0.5357-3.0477-1.0647-4.5748-1.5892
		C1013.2552,957.0979,1015.599,953.1816,1018.4428,949.2608z M1020.9416,676.0115c-2.7717-3.9722-5.0434-7.9307-7.1934-11.5532
		c1.5364-0.4966,3.071-0.9976,4.6031-1.5054c17.3925-4.7383,34.7318-9.6069,51.9311-14.8299
		c-13.3453,12.0415-26.4592,24.3857-39.489,36.8427c-1.2251,1.0507-2.4459,2.107-3.6637,3.1672
		C1025.1349,684.4226,1022.9152,680.4347,1020.9416,676.0115z"/>
	<path fill="#f5f5f5" d="M640.11,369.4556c-2.1627,1.6003-4.4708,3.0191-6.8824,4.2113l-0.0001,0.0003
		c3.7944-1.2992,7.3928-3.1627,10.617-5.5484c4.65-3.4407,8.5165-7.9315,11.2432-13.032c0.0188-0.0351,0.0324-0.0742,0.0511-0.1093
		c1.485-2.4064,2.3595-5.5929,2.5026-8.1182c0.2689-4.745-3.3596-8.8095-8.1046-9.0785s-8.8095,3.3597-9.0784,8.1046
		s4.6423,12.316,9.3872,12.5849c0.2966,0.0168,0.5742-0.0027,0.8553-0.0414C647.8216,362.661,644.225,366.4109,640.11,369.4556z"/>
	<path fill="#f5f5f5" d="M329.6491,713.7546c0.3045,2.6731,0.3792,5.3814,0.2058,8.066l0.0003,0.0002
		c0.772-3.9356,0.9574-7.9837,0.5034-11.9688c-0.6547-5.7474-2.6106-11.3412-5.6644-16.2529
		c-0.021-0.0338-0.0481-0.0652-0.0691-0.0989c-1.3415-2.4893-3.6638-4.8398-5.7792-6.2264
		c-3.9748-2.6053-9.3091-1.4952-11.9145,2.4796c-2.6054,3.9748-1.4952,9.3091,2.4796,11.9145
		c3.9748,2.6053,12.9872,2.1376,15.5925-1.8372c0.1628-0.2484,0.2848-0.4986,0.3918-0.7614
		C327.6206,703.679,329.0698,708.6686,329.6491,713.7546z"/>
	<path fill="#f5f5f5" d="M472.5904,1154.7712c2.4673,1.0728,4.8501,2.3623,7.0883,3.8547l0.0003-0.0001
		c-3.0223-2.6364-6.4354-4.8209-10.1136-6.4204c-5.3048-2.3066-11.1271-3.4098-16.9076-3.2208
		c-0.0398,0.0012-0.0805,0.009-0.1202,0.0104c-2.8265-0.0829-6.0233,0.7531-8.2819,1.8917
		c-4.2437,2.1396-5.9495,7.3143-3.8099,11.558c2.1396,4.2438,7.3143,5.9495,11.558,3.8099
		c4.2437-2.1396,8.3448-10.1783,6.2052-14.422c-0.1337-0.2653-0.2894-0.496-0.4635-0.7201
		C462.8503,1151.4901,467.8961,1152.7299,472.5904,1154.7712z"/>
	<path fill="#f5f5f5" d="M925.9926,1251.4888c2.1627-1.6003,4.4708-3.0192,6.8824-4.2113l0.0001-0.0004
		c-3.7944,1.2993-7.3928,3.1628-10.617,5.5485c-4.65,3.4407-8.5165,7.9315-11.2432,13.032
		c-0.0188,0.0352-0.0324,0.0742-0.0511,0.1093c-1.485,2.4065-2.3595,5.5929-2.5026,8.1182
		c-0.2689,4.745,3.3596,8.8096,8.1046,9.0785s8.8095-3.3596,9.0784-8.1046c0.2689-4.7449-4.6423-12.3159-9.3872-12.5848
		c-0.2966-0.0168-0.5742,0.0027-0.8553,0.0413C918.281,1258.2833,921.8776,1254.5334,925.9926,1251.4888z"/>
	<path fill="#f5f5f5" d="M1236.4535,907.1897c-0.3046-2.6731-0.3793-5.3814-0.2058-8.066l-0.0004-0.0002
		c-0.772,3.9356-0.9573,7.9837-0.5033,11.9688c0.6547,5.7474,2.6106,11.3412,5.6643,16.2529
		c0.0211,0.0338,0.0481,0.0652,0.0692,0.0989c1.3414,2.4893,3.6638,4.8398,5.7792,6.2264
		c3.9749,2.6053,9.3091,1.4952,11.9146-2.4796c2.6053-3.9748,1.4951-9.3091-2.4796-11.9144
		c-3.9749-2.6054-12.9872-2.1376-15.5924,1.8371c-0.163,0.2485-0.2848,0.4986-0.3918,0.7614
		C1238.4821,917.2654,1237.0328,912.2758,1236.4535,907.1897z"/>
	<path fill="#f5f5f5" d="M1093.5122,466.1732c-2.4673-1.0728-4.8501-2.3623-7.0883-3.8548l-0.0004,0.0002
		c3.0223,2.6364,6.4354,4.821,10.1136,6.4204c5.3047,2.3067,11.1271,3.4098,16.9076,3.2209
		c0.0398-0.0013,0.0804-0.0091,0.1202-0.0104c2.8264,0.0829,6.0233-0.7531,8.2817-1.8918c4.2438-2.1396,5.9495-7.3143,3.8099-11.558
		c-2.1396-4.2437-7.3143-5.9495-11.558-3.8099c-4.2438,2.1396-8.3448,10.1784-6.2053,14.422
		c0.1338,0.2653,0.2894,0.4959,0.4635,0.72C1103.2523,469.4542,1098.2065,468.2144,1093.5122,466.1732z"/>
	<path fill="#f5f5f5" d="M934.0337,372.1434c2.1331,1.6396,4.4149,3.1004,6.8044,4.3364v0.0003
		c-3.77-1.3684-7.3337-3.2974-10.5137-5.7417c-4.5864-3.5252-8.3701-8.0859-11.003-13.2354
		c-0.0181-0.0355-0.0311-0.0748-0.0491-0.1102c-1.4407-2.4332-2.2568-5.6351-2.3538-8.1626
		c-0.1821-4.7491,3.5202-8.7466,8.2693-8.9287s8.7466,3.5202,8.9287,8.2693c0.1821,4.7491-4.8668,12.229-9.6158,12.4111
		c-0.2969,0.0114-0.574-0.0132-0.8544-0.057C926.4478,365.2089,929.9751,369.0239,934.0337,372.1434z"/>
	<path fill="#f5f5f5" d="M478.9386,460.5532c2.4865-1.0275,4.8925-2.2732,7.1577-3.7245l0.0003,0.0002
		c-3.07,2.5807-6.5225,4.7025-10.2293,6.2343c-5.3461,2.2093-11.1876,3.2057-16.9637,2.9112
		c-0.0398-0.002-0.0803-0.0105-0.12-0.0126c-2.8275,0.0311-6.0086-0.8631-8.2459-2.0429
		c-4.2039-2.2169-5.8147-7.4219-3.5978-11.6258c2.2168-4.2039,7.4219-5.8147,11.6258-3.5979s8.1573,10.3293,5.9404,14.5331
		c-0.1385,0.2628-0.2984,0.4905-0.4765,0.7115C469.1402,463.6556,474.2078,462.5083,478.9386,460.5532z"/>
	<path fill="#f5f5f5" d="M327.9562,898.882c0.3534-2.6671,0.4776-5.3736,0.3533-8.0609l0.0003-0.0002
		c0.6999,3.949,0.8112,7.9998,0.2844,11.976c-0.7597,5.7345-2.8176,11.2916-5.9607,16.1466
		c-0.0217,0.0334-0.0493,0.0643-0.0709,0.0976c-1.3868,2.4643-3.7518,4.772-5.8922,6.1197
		c-4.0218,2.5322-9.3349,1.3248-11.8671-2.6971c-2.5323-4.0218-1.3247-9.3349,2.697-11.8671
		c4.0218-2.5322,13.024-1.8997,15.5563,2.122c0.1583,0.2513,0.2756,0.5037,0.3778,0.7684
		C325.7437,908.9188,327.284,903.9565,327.9562,898.882z"/>
	<path fill="#f5f5f5" d="M632.0688,1248.8009c-2.1331-1.6395-4.4149-3.1003-6.8043-4.3364v-0.0002
		c3.77,1.3684,7.3337,3.2974,10.5137,5.7416c4.5864,3.5253,8.3701,8.0859,11.003,13.2355c0.0181,0.0354,0.0311,0.0747,0.0491,0.1102
		c1.4407,2.4331,2.2568,5.6351,2.3538,8.1626c0.1821,4.749-3.5202,8.7466-8.2693,8.9287c-4.7491,0.182-8.7466-3.5203-8.9287-8.2693
		c-0.1821-4.7491,4.8668-12.2291,9.6158-12.4111c0.2968-0.0114,0.574,0.0132,0.8544,0.057
		C639.6548,1255.7355,636.1274,1251.9204,632.0688,1248.8009z"/>
	<path fill="#f5f5f5" d="M1087.1639,1160.3912c-2.4865,1.0275-4.8925,2.2732-7.1576,3.7245l-0.0004-0.0002
		c3.0701-2.5806,6.5226-4.7024,10.2294-6.2343c5.3461-2.2094,11.1876-3.2057,16.9636-2.9113
		c0.0398,0.0021,0.0803,0.0105,0.12,0.0127c2.8275-0.0311,6.0085,0.863,8.2458,2.0428c4.204,2.2169,5.8147,7.4219,3.5979,11.6257
		c-2.2168,4.204-7.4219,5.8147-11.6257,3.5979s-8.1572-10.3292-5.9404-14.5331c0.1385-0.2627,0.2983-0.4905,0.4766-0.7114
		C1096.9624,1157.2888,1091.8948,1158.436,1087.1639,1160.3912z"/>
	<path fill="#f5f5f5" d="M1238.1464,722.0624c-0.3534,2.6671-0.4775,5.3737-0.3533,8.061l-0.0002,0.0002
		c-0.7-3.9491-0.8113-7.9999-0.2845-11.976c0.7598-5.7345,2.8176-11.2916,5.9607-16.1465c0.0217-0.0334,0.0493-0.0643,0.0709-0.0977
		c1.3868-2.4643,3.7518-4.772,5.8922-6.1197c4.0217-2.5322,9.3348-1.3247,11.8671,2.6971c2.5323,4.0218,1.3247,9.3349-2.697,11.8671
		s-13.024,1.8997-15.5563-2.1219c-0.1582-0.2514-0.2755-0.5037-0.3778-0.7684
		C1240.3589,712.0255,1238.8186,716.9879,1238.1464,722.0624z"/>
	<path fill="#f5f5f5" d="M789.9789,52.902c-0.3957,0.0469-0.7922,0.141-1.1821,0.2856c-2.637,0.9778-3.9755,3.8938-2.9976,6.5308
		c0.5203,1.4034,1.5576,3.0734,2.8162,4.176c0.0166,0.0166,0.0432,0.0112,0.0599,0.0275c0.3845,0.3815,0.7825,0.7496,1.1927,1.1037
		c0.4167-0.3465,0.8213-0.7073,1.2127-1.0817c0.0171-0.0161,0.0435-0.0102,0.0605-0.0264c1.2786-1.0794,2.3462-2.7301,2.8922-4.1238
		c1.0259-2.6187-0.259-5.5586-2.8777-6.5845C790.7684,53.0575,790.3737,52.9561,789.9789,52.902z"/>
	<path fill="#f5f5f5" d="M1442.5901,437.6866c-0.2384-0.3193-0.5182-0.6156-0.8384-0.881c-2.1653-1.7948-5.3599-1.496-7.1547,0.6693
		c-0.9552,1.1523-1.8828,2.8856-2.2084,4.5269c-0.006,0.0227,0.012,0.043,0.0061,0.0657c-0.1381,0.5237-0.2579,1.0524-0.3595,1.5848
		c0.5084,0.1876,1.0233,0.3576,1.5432,0.5094c0.0225,0.0067,0.0305,0.0326,0.0531,0.0391c1.5741,0.5676,3.5375,0.6668,5.0175,0.4428
		c2.7808-0.4209,4.6843-3.0036,4.2634-5.7845C1442.8502,438.4481,1442.7406,438.0556,1442.5901,437.6866z"/>
	<path fill="#f5f5f5" d="M1435.6625,1195.2567c0.1573-0.3661,0.274-0.7566,0.3438-1.1665c0.4717-2.7727-1.3844-5.3898-4.157-5.8615
		c-1.4756-0.2511-3.4404-0.1877-5.0247,0.351c-0.0226,0.0061-0.0313,0.0319-0.0538,0.0381
		c-0.5226,0.1423-1.0404,0.3029-1.5521,0.4811c0.0917,0.5342,0.2019,1.0649,0.3304,1.5912
		c0.0054,0.0228-0.0131,0.0427-0.0074,0.0656c0.2955,1.647,1.1913,3.397,2.1254,4.5665c1.7549,2.1978,4.9434,2.5551,7.1411,0.8
		C1435.1331,1195.8628,1435.4182,1195.5717,1435.6625,1195.2567z"/>
	<path fill="#f5f5f5" d="M776.1237,1568.0424c0.3958-0.0469,0.7922-0.141,1.1822-0.2856c2.637-0.9778,3.9755-3.8937,2.9976-6.5308
		c-0.5203-1.4034-1.5576-3.0734-2.8162-4.176c-0.0166-0.0165-0.0432-0.0111-0.0599-0.0275
		c-0.3845-0.3815-0.7825-0.7496-1.1927-1.1038c-0.4167,0.3466-0.8213,0.7074-1.2127,1.0818
		c-0.0171,0.016-0.0436,0.0101-0.0605,0.0264c-1.2786,1.0795-2.3462,2.7301-2.8922,4.1239
		c-1.0259,2.6187,0.259,5.5586,2.8777,6.5845C775.3342,1567.8868,775.7289,1567.9883,776.1237,1568.0424z"/>
	<path fill="#f5f5f5" d="M123.5125,1183.2578c0.2385,0.3192,0.5182,0.6156,0.8384,0.881c2.1653,1.7948,5.3598,1.496,7.1546-0.6694
		c0.9552-1.1523,1.8828-2.8856,2.2084-4.5269c0.006-0.0227-0.0119-0.0431-0.0061-0.0658c0.1381-0.5237,0.258-1.0524,0.3595-1.5847
		c-0.5084-0.1876-1.0232-0.3577-1.5432-0.5094c-0.0224-0.0067-0.0306-0.0326-0.0531-0.0392
		c-1.5741-0.5675-3.5375-0.6667-5.0174-0.4427c-2.7808,0.4209-4.6844,3.0037-4.2635,5.7844
		C123.2524,1182.4963,123.3619,1182.8888,123.5125,1183.2578z"/>
	<path fill="#f5f5f5" d="M130.4401,425.6876c-0.1573,0.3662-0.274,0.7566-0.3438,1.1666c-0.4717,2.7727,1.3844,5.3898,4.157,5.8615
		c1.4756,0.2511,3.4404,0.1877,5.0247-0.351c0.0226-0.0061,0.0313-0.0318,0.0538-0.0381c0.5226-0.1423,1.0404-0.3028,1.5522-0.4811
		c-0.0917-0.5341-0.2019-1.0649-0.3304-1.5911c-0.0054-0.0228,0.013-0.0428,0.0074-0.0656
		c-0.2955-1.647-1.1913-3.3969-2.1253-4.5666c-1.7549-2.1978-4.9434-2.555-7.1412-0.8
		C130.9695,425.0816,130.6844,425.3727,130.4401,425.6876z"/>
	<circle fill="#f5f5f5" cx="760.6053" cy="708.377" r="17.9547"/>
	<circle fill="#f5f5f5" cx="683.4114" cy="778.8633" r="17.9547"/>
	<circle fill="#f5f5f5" cx="705.8572" cy="880.9584" r="17.9547"/>
	<circle fill="#f5f5f5" cx="805.4972" cy="912.5673" r="17.9547"/>
	<circle fill="#f5f5f5" cx="882.6912" cy="842.0811" r="17.9547"/>
	<circle fill="#f5f5f5" cx="860.2454" cy="739.9859" r="17.9547"/>
	<circle fill="#f5f5f5" cx="807.3605" cy="708.8046" r="17.9547"/>
	<circle fill="#f5f5f5" cx="707.1591" cy="738.586" r="17.9547"/>
	<circle fill="#f5f5f5" cx="682.85" cy="840.2536" r="17.9547"/>
	<circle fill="#f5f5f5" cx="758.7421" cy="912.1398" r="17.9547"/>
	<circle fill="#f5f5f5" cx="858.9435" cy="882.3583" r="17.9547"/>
	<circle fill="#f5f5f5" cx="883.2526" cy="780.6907" r="17.9547"/>
	<path fill="#f5f5f5" d="M767.2505,782.5172c1.9813-1.4744,3.544-3.5521,4.3759-6.0759c2.1494-6.5207-1.3943-13.5491-7.915-15.6985
		c-2.9262-0.9645-5.9547-0.7827-8.5985,0.3003c-2.2914,1.7066-4.0092,4.2074-4.692,7.2118
		c-1.5216,6.6951,2.6722,13.356,9.3673,14.8776C762.3794,783.7214,764.9655,783.4542,767.2505,782.5172z"/>
	<path fill="#f5f5f5" d="M799.3607,782.8108c2.2675,0.9786,4.8483,1.2931,7.4498,0.7517
		c6.7218-1.3989,11.0368-7.9821,9.6379-14.7039c-0.6277-3.0164-2.2996-5.5482-4.5593-7.2964
		c-2.6237-1.1311-5.6483-1.3684-8.5916-0.4575c-6.5588,2.0298-10.2305,8.9922-8.2007,15.5512
		C795.8822,779.1944,797.4067,781.3004,799.3607,782.8108z"/>
	<path fill="#f5f5f5" d="M815.1614,810.7658c0.2863,2.453,1.3043,4.8453,3.0739,6.8276c4.5724,5.1218,12.4311,5.567,17.5529,0.9947
		c2.2984-2.0519,3.6551-4.7656,4.0392-7.5967c-0.3323-2.8377-1.6391-5.5757-3.8996-7.6693
		c-5.0373-4.6653-12.9028-4.3638-17.5681,0.6735C816.5541,805.9452,815.4925,808.3184,815.1614,810.7658z"/>
	<path fill="#f5f5f5" d="M798.8521,838.4272c-1.9813,1.4744-3.544,3.5522-4.3759,6.0759
		c-2.1494,6.5207,1.3943,13.5492,7.915,15.6985c2.9262,0.9645,5.9547,0.7827,8.5985-0.3003
		c2.2914-1.7066,4.0092-4.2073,4.692-7.2118c1.5216-6.695-2.6722-13.356-9.3673-14.8776
		C803.7231,837.223,801.1371,837.4902,798.8521,838.4272z"/>
	<path fill="#f5f5f5" d="M766.7419,838.1336c-2.2675-0.9787-4.8483-1.2932-7.4498-0.7517
		c-6.7217,1.3989-11.0367,7.9821-9.6378,14.7039c0.6277,3.0164,2.2995,5.5482,4.5593,7.2964
		c2.6237,1.1311,5.6483,1.3683,8.5916,0.4575c6.5588-2.0298,10.2305-8.9922,8.2007-15.5511
		C770.2204,841.7499,768.6959,839.6439,766.7419,838.1336z"/>
	<path fill="#f5f5f5" d="M750.9412,810.1785c-0.2863-2.453-1.3043-4.8453-3.0739-6.8275
		c-4.5724-5.1218-12.4311-5.5671-17.5529-0.9947c-2.2984,2.0518-3.6551,4.7655-4.0392,7.5967
		c0.3323,2.8377,1.6391,5.5757,3.8996,7.6693c5.0373,4.6653,12.9028,4.3638,17.5681-0.6735
		C749.5485,814.9991,750.6101,812.6259,750.9412,810.1785z"/>
</g>
</svg>
