<?xml version="1.0" encoding="utf-8"?>

<!DOCTYPE svg PUBLIC "-//W3C//DTD SVG 1.1//EN" "http://www.w3.org/Graphics/SVG/1.1/DTD/svg11.dtd">
<svg version="1.1" id="Layer_1" xmlns="http://www.w3.org/2000/svg" xmlns:xlink="http://www.w3.org/1999/xlink" x="0px" y="0px"
	 viewBox="0 0 1665.385 1665.385" enable-background="new 0 0 1665.385 1665.385" xml:space="preserve">
<path fill="#ebebeb" id="path831" d="M1227.605,58.888c0.241,18.084-9.332,39.588-4.068,72.707c0.62,3.893,0.614,4.332-0.031,3.283h0.005
	c-2.191-3.581-4.144-14.654-4.827-18.692c-2.995-17.68-0.126-35.844,2.181-49.204c2.774-16.083,3.472-29.579,3.472-29.579
	C1226.653,39.644,1227.55,54.878,1227.605,58.888L1227.605,58.888z M58.888,437.779c18.084-0.241,39.588,9.332,72.707,4.068
	c3.893-0.62,4.332-0.614,3.283,0.031v-0.005c-3.581,2.191-14.654,4.144-18.692,4.827c-17.68,2.995-35.844,0.126-49.204-2.181
	c-16.083-2.774-29.579-3.472-29.579-3.472C39.644,438.731,54.878,437.834,58.888,437.779L58.888,437.779z M437.779,1606.496
	c-0.241-18.084,9.332-39.588,4.068-72.707c-0.62-3.893-0.614-4.332,0.031-3.283h-0.005c2.191,3.581,4.144,14.654,4.827,18.692
	c2.995,17.68,0.126,35.844-2.181,49.204c-2.774,16.083-3.472,29.579-3.472,29.579
	C438.731,1625.741,437.834,1610.507,437.779,1606.496L437.779,1606.496z M1606.496,1227.605
	c-18.084,0.241-39.588-9.332-72.707-4.068c-3.893,0.62-4.332,0.614-3.283-0.031v0.005c3.581-2.191,14.654-4.144,18.692-4.827
	c17.68-2.995,35.844-0.126,49.204,2.181c16.083,2.774,29.579,3.472,29.579,3.472
	C1625.741,1226.653,1610.507,1227.55,1606.496,1227.605L1606.496,1227.605z M1606.496,437.779
	c4.011,0.056,19.245,0.953,21.485,3.268c0,0-13.497,0.698-29.579,3.472c-13.36,2.307-31.524,5.176-49.204,2.181
	c-4.038-0.683-15.111-2.636-18.692-4.827v0.005c-1.049-0.645-0.61-0.651,3.283-0.031
	C1566.908,447.111,1588.412,437.539,1606.496,437.779L1606.496,437.779z M437.779,58.888c0.056-4.011,0.953-19.245,3.268-21.485
	c0,0,0.698,13.497,3.472,29.579c2.307,13.36,5.176,31.524,2.181,49.204c-0.683,4.038-2.636,15.111-4.827,18.692h0.005
	c-0.645,1.049-0.651,0.61-0.031-3.283C447.111,98.476,437.539,76.972,437.779,58.888L437.779,58.888z M58.888,1227.606
	c-4.011-0.056-19.245-0.953-21.485-3.268c0,0,13.497-0.698,29.579-3.472c13.36-2.307,31.524-5.176,49.204-2.181
	c4.038,0.683,15.111,2.636,18.692,4.827v-0.005c1.049,0.645,0.61,0.651-3.283,0.031
	C98.476,1218.274,76.972,1227.846,58.888,1227.606L58.888,1227.606z M1227.606,1606.496c-0.056,4.011-0.953,19.245-3.268,21.485
	c0,0-0.698-13.497-3.472-29.579c-2.307-13.36-5.176-31.524-2.181-49.204c0.683-4.038,2.636-15.111,4.827-18.692h-0.005
	c0.645-1.049,0.651-0.61,0.031,3.283C1218.274,1566.908,1227.846,1588.412,1227.606,1606.496L1227.606,1606.496z M1114.664,542.058
	c0.061,0.253-0.061,0.206-3.515-1.407c-17.833-8.354-30.815-9.761-46.948-17.643c-17.152-8.371-28.918-19.862-30.681-23.05
	c-1.18-2.134,2.143,1.603,12.115,7.794c26.361,16.367,45.529,14.094,64.149,29.316
	C1111.719,538.65,1114.527,541.519,1114.664,542.058z M542.058,550.721c0.253-0.061,0.206,0.061-1.407,3.515
	c-8.354,17.833-9.761,30.815-17.643,46.948c-8.371,17.152-19.862,28.918-23.05,30.681c-2.134,1.18,1.603-2.143,7.794-12.115
	c16.367-26.361,14.094-45.529,29.316-64.149C538.65,553.665,541.519,550.858,542.058,550.721z M550.721,1123.326
	c-0.061-0.253,0.061-0.206,3.515,1.407c17.833,8.354,30.815,9.761,46.948,17.643c17.152,8.371,28.918,19.862,30.681,23.05
	c1.18,2.134-2.143-1.603-12.115-7.794c-26.361-16.367-45.529-14.094-64.149-29.316
	C553.665,1126.735,550.858,1123.866,550.721,1123.326z M1123.326,1114.664c-0.253,0.061-0.206-0.061,1.407-3.515
	c8.354-17.833,9.761-30.815,17.643-46.948c8.371-17.152,19.862-28.918,23.05-30.681c2.134-1.18-1.603,2.143-7.794,12.115
	c-16.367,26.361-14.094,45.529-29.316,64.149C1126.735,1111.719,1123.866,1114.527,1123.326,1114.664z M1128.317,555.601
	c15.221,18.62,12.948,37.788,29.316,64.149c6.191,9.973,9.928,13.296,7.794,12.115c-3.188-1.763-14.679-13.528-23.05-30.681
	c-7.882-16.134-9.289-29.115-17.643-46.948c-1.613-3.454-1.66-3.576-1.407-3.515
	C1123.866,550.858,1126.735,553.665,1128.317,555.601z M555.601,537.068c18.62-15.221,37.788-12.948,64.149-29.316
	c9.973-6.191,13.296-9.928,12.115-7.794c-1.763,3.188-13.528,14.679-30.681,23.05c-16.134,7.882-29.115,9.289-46.948,17.643
	c-3.454,1.613-3.576,1.66-3.515,1.407C550.858,541.519,553.665,538.65,555.601,537.068z M537.068,1109.784
	c-15.221-18.62-12.948-37.788-29.316-64.149c-6.191-9.973-9.928-13.296-7.794-12.115c3.188,1.763,14.679,13.528,23.05,30.681
	c7.882,16.134,9.289,29.115,17.643,46.948c1.613,3.454,1.66,3.576,1.407,3.515C541.519,1114.527,538.65,1111.719,537.068,1109.784z
	 M1109.784,1128.317c-18.62,15.221-37.788,12.948-64.149,29.316c-9.973,6.191-13.296,9.928-12.115,7.794
	c1.763-3.188,13.528-14.679,30.681-23.05c16.134-7.882,29.115-9.289,46.948-17.643c3.454-1.613,3.576-1.66,3.515-1.407
	C1114.527,1123.866,1111.719,1126.735,1109.784,1128.317z M1058.567,432.447c0.508,1.891-3.155,9.481-4.042,11.214
	c-8.784,17.193-22.791,24.543-32.952,50.015c-3.238,8.128-0.217-6.126,4.801-16.415c9.309-19.102,19.874-26.356,30.375-42.348
	C1058.445,432.335,1058.514,432.25,1058.567,432.447L1058.567,432.447z M432.447,606.818c1.891-0.508,9.481,3.155,11.214,4.042
	c17.193,8.784,24.543,22.791,50.015,32.952c8.128,3.238-6.126,0.217-16.415-4.801c-19.102-9.309-26.356-19.874-42.348-30.375
	C432.335,606.939,432.25,606.871,432.447,606.818L432.447,606.818z M606.818,1232.938c-0.508-1.891,3.155-9.481,4.042-11.214
	c8.784-17.193,22.791-24.543,32.952-50.015c3.238-8.128,0.217,6.126-4.801,16.415c-9.309,19.102-19.874,26.356-30.375,42.348
	C606.939,1233.05,606.871,1233.134,606.818,1232.938L606.818,1232.938z M1232.938,1058.567c-1.891,0.508-9.481-3.155-11.214-4.042
	c-17.193-8.784-24.543-22.791-50.015-32.952c-8.128-3.238,6.126-0.217,16.415,4.801c19.102,9.309,26.356,19.874,42.348,30.375
	C1233.05,1058.445,1233.134,1058.514,1232.938,1058.567L1232.938,1058.567z M1232.938,606.818c0.197,0.053,0.112,0.122-2.466,1.818
	c-15.992,10.501-23.246,21.066-42.348,30.375c-10.289,5.017-24.543,8.039-16.415,4.801c25.473-10.161,32.822-24.168,50.015-32.952
	C1223.457,609.973,1231.047,606.31,1232.938,606.818L1232.938,606.818z M606.818,432.447c0.053-0.197,0.122-0.112,1.818,2.466
	c10.501,15.992,21.066,23.246,30.375,42.348c5.017,10.289,8.039,24.543,4.801,16.415c-10.161-25.473-24.168-32.822-32.952-50.015
	C609.973,441.927,606.31,434.338,606.818,432.447L606.818,432.447z M432.447,1058.567c-0.197-0.053-0.112-0.121,2.466-1.818
	c15.992-10.501,23.246-21.066,42.348-30.375c10.289-5.017,24.543-8.039,16.415-4.801c-25.473,10.161-32.822,24.168-50.015,32.952
	C441.927,1055.411,434.338,1059.075,432.447,1058.567L432.447,1058.567z M1058.567,1232.938c-0.053,0.197-0.121,0.112-1.818-2.466
	c-10.501-15.992-21.066-23.246-30.375-42.348c-5.017-10.289-8.039-24.543-4.801-16.415c10.161,25.473,24.168,32.822,32.952,50.015
	C1055.411,1223.457,1059.075,1231.047,1058.567,1232.938L1058.567,1232.938z M1034.642,570.689
	c-0.112,6.081,0.084-0.056-8.743-18.739c-2.587-5.474-10.002-20.288-11.641-35.545c-0.33-3.067-1.193-11.59-0.343-14.645
	c0.513-1.85,0.269,2.086,2.261,11.435C1021.614,538.811,1034.935,550.839,1034.642,570.689L1034.642,570.689z M570.689,630.742
	c6.081,0.112-0.056-0.084-18.739,8.743c-5.474,2.587-20.288,10.002-35.545,11.641c-3.067,0.33-11.59,1.193-14.645,0.343
	c-1.85-0.513,2.086-0.269,11.435-2.261C538.811,643.77,550.839,630.449,570.689,630.742L570.689,630.742z M630.742,1094.696
	c0.112-6.081-0.084,0.057,8.743,18.739c2.587,5.474,10.002,20.288,11.641,35.545c0.33,3.067,1.193,11.59,0.343,14.645
	c-0.513,1.85-0.269-2.086-2.261-11.435C643.77,1126.574,630.449,1114.545,630.742,1094.696L630.742,1094.696z M1094.696,1034.642
	c-6.081-0.112,0.057,0.084,18.739-8.743c5.474-2.587,20.288-10.002,35.545-11.641c3.067-0.33,11.59-1.193,14.645-0.343
	c1.85,0.513-2.086,0.269-11.435,2.261C1126.574,1021.614,1114.545,1034.935,1094.696,1034.642L1094.696,1034.642z M1094.696,630.743
	c19.849-0.293,31.878,13.027,57.493,18.465c9.349,1.992,13.285,1.747,11.435,2.261c-3.055,0.85-11.577-0.013-14.645-0.343
	c-15.257-1.638-30.071-9.053-35.545-11.641C1094.752,630.659,1088.614,630.855,1094.696,630.743L1094.696,630.743z M630.743,570.689
	c-0.293-19.849,13.027-31.878,18.465-57.493c1.992-9.349,1.747-13.285,2.261-11.435c0.85,3.055-0.013,11.577-0.343,14.645
	c-1.638,15.257-9.053,30.071-11.641,35.545C630.659,570.632,630.855,576.77,630.743,570.689L630.743,570.689z M570.689,1034.642
	c-19.849,0.293-31.878-13.027-57.493-18.465c-9.349-1.992-13.285-1.747-11.435-2.261c3.055-0.85,11.577,0.013,14.645,0.343
	c15.257,1.638,30.071,9.053,35.545,11.641C570.632,1034.726,576.77,1034.53,570.689,1034.642L570.689,1034.642z M1034.642,1094.696
	c0.293,19.849-13.027,31.878-18.465,57.493c-1.992,9.349-1.747,13.285-2.261,11.435c-0.85-3.055,0.013-11.577,0.343-14.645
	c1.638-15.257,9.053-30.071,11.641-35.545C1034.726,1094.752,1034.53,1088.614,1034.642,1094.696L1034.642,1094.696z
	 M949.741,199.412c0,0-5.668,4.623-8.195,7.035c-7.179,6.883-10.565,11.598-16.911,17.401
	c-13.801,12.579-28.308,16.442-32.309,16.442c-1.988-0.131,1.884-0.842,9.723-5.402c15.903-9.225,20.618-18.925,30.554-27.234
	c6.758-5.64,17.452-9.648,17.14-8.242L949.741,199.412z M199.412,715.644c0,0,4.623,5.668,7.035,8.194
	c6.883,7.179,11.598,10.565,17.401,16.911c12.579,13.801,16.442,28.308,16.442,32.309c-0.131,1.988-0.842-1.884-5.402-9.723
	c-9.225-15.903-18.925-20.618-27.234-30.554c-5.64-6.758-9.648-17.452-8.242-17.14L199.412,715.644z M715.644,1465.972
	c0,0,5.668-4.623,8.194-7.035c7.179-6.883,10.565-11.598,16.911-17.401c13.801-12.579,28.308-16.442,32.309-16.442
	c1.988,0.131-1.884,0.842-9.723,5.401c-15.903,9.225-20.618,18.925-30.554,27.234c-6.758,5.64-17.452,9.648-17.14,8.242
	L715.644,1465.972z M1465.972,949.741c0,0-4.623-5.668-7.035-8.195c-6.883-7.179-11.598-10.565-17.401-16.911
	c-12.579-13.801-16.442-28.308-16.442-32.309c0.131-1.988,0.842,1.884,5.401,9.723c9.225,15.903,18.925,20.618,27.234,30.554
	c5.64,6.758,9.648,17.452,8.242,17.14L1465.972,949.741z M1465.972,715.641c1.406-0.312-2.602,10.382-8.242,17.14
	c-8.309,9.937-18.009,14.652-27.234,30.554c-4.559,7.839-5.27,11.711-5.401,9.723c0-4.001,3.862-18.508,16.442-32.309
	c5.803-6.346,10.518-9.732,17.401-16.911c2.412-2.526,7.035-8.194,7.035-8.194L1465.972,715.641z M715.641,199.412
	c-0.312-1.406,10.382,2.602,17.14,8.242c9.937,8.309,14.652,18.009,30.554,27.234c7.839,4.559,11.711,5.27,9.723,5.402
	c-4.001,0-18.508-3.862-32.309-16.442c-6.346-5.803-9.732-10.518-16.911-17.401c-2.526-2.412-8.194-7.035-8.194-7.035
	L715.641,199.412z M199.412,949.743c-1.406,0.312,2.602-10.382,8.242-17.14c8.309-9.937,18.009-14.652,27.234-30.554
	c4.559-7.839,5.27-11.711,5.402-9.723c0,4.001-3.862,18.508-16.442,32.309c-5.803,6.346-10.518,9.732-17.401,16.911
	c-2.412,2.526-7.035,8.195-7.035,8.195L199.412,949.743z M949.743,1465.972c0.312,1.406-10.382-2.602-17.14-8.242
	c-9.937-8.309-14.652-18.009-30.554-27.234c-7.839-4.559-11.711-5.27-9.723-5.401c4.001,0,18.508,3.862,32.309,16.442
	c6.346,5.803,9.732,10.518,16.911,17.401c2.526,2.412,8.195,7.035,8.195,7.035L949.743,1465.972z M883.858,234.804
	c0.436,0.785-17.553-3.206-35.454-34.433c-5.91-10.305-12.026-17.975-12.026-17.975c2.611-0.261,11.277,7.244,14.819,11.857
	c8.348,10.896,12.341,25.687,30.575,38.891c1.31,0.948,1.948,1.439,2.087,1.66L883.858,234.804z M234.804,781.527
	c0.785-0.436-3.206,17.553-34.433,35.454c-10.305,5.91-17.975,12.026-17.975,12.026c-0.261-2.611,7.244-11.277,11.857-14.819
	c10.896-8.348,25.687-12.341,38.891-30.575c0.948-1.31,1.439-1.948,1.66-2.087L234.804,781.527z M781.527,1430.581
	c-0.436-0.785,17.553,3.206,35.454,34.433c5.91,10.305,12.026,17.975,12.026,17.975c-2.611,0.261-11.277-7.244-14.819-11.857
	c-8.348-10.896-12.341-25.687-30.575-38.891c-1.31-0.948-1.948-1.439-2.087-1.66H781.527z M1430.581,883.858
	c-0.785,0.436,3.206-17.553,34.433-35.454c10.305-5.91,17.975-12.026,17.975-12.026c0.261,2.611-7.244,11.277-11.857,14.819
	c-10.896,8.348-25.687,12.341-38.891,30.575c-0.948,1.31-1.439,1.948-1.66,2.087V883.858z M1430.581,781.525
	c0.221,0.138,0.713,0.777,1.66,2.087c13.204,18.234,27.995,22.228,38.891,30.575c4.613,3.542,12.118,12.207,11.857,14.819
	c0,0-7.67-6.116-17.975-12.026c-31.227-17.901-35.218-35.89-34.433-35.454V781.525z M781.525,234.804
	c0.138-0.221,0.777-0.712,2.087-1.66c18.234-13.204,22.228-27.995,30.575-38.891c3.542-4.613,12.207-12.118,14.819-11.857
	c0,0-6.116,7.67-12.026,17.975c-17.901,31.227-35.89,35.218-35.454,34.433L781.525,234.804z M234.804,883.859
	c-0.221-0.138-0.712-0.777-1.66-2.087c-13.204-18.234-27.995-22.228-38.891-30.575c-4.613-3.542-12.118-12.207-11.857-14.819
	c0,0,7.67,6.116,17.975,12.026c31.227,17.901,35.218,35.89,34.433,35.454L234.804,883.859z M883.859,1430.581
	c-0.138,0.221-0.777,0.713-2.087,1.66c-18.234,13.204-22.228,27.995-30.575,38.891c-3.542,4.613-12.207,12.118-14.819,11.857
	c0,0,6.116-7.67,12.026-17.975c17.901-31.227,35.89-35.218,35.454-34.433H883.859z M832.692,206.625
	c1.405,3.056,3.404,6.056,6.066,9.233v0.005c7.83,9.344,18.11,15.426,45.647,22.086c-10.218,30.064-1.486,44.282,52.329,74.014
	c-27.639-0.84-71.87-3.416-104.042-15.866c-32.172,12.45-76.403,15.026-104.042,15.866c53.815-29.732,62.547-43.949,52.329-74.014
	c27.537-6.659,37.817-12.741,45.647-22.086v-0.005C829.288,212.681,831.287,209.681,832.692,206.625z M206.625,832.692
	c3.056-1.405,6.056-3.404,9.233-6.066h0.005c9.344-7.83,15.426-18.11,22.086-45.647c30.064,10.218,44.282,1.486,74.014-52.329
	c-0.84,27.639-3.416,71.87-15.866,104.042c12.45,32.172,15.026,76.403,15.866,104.042c-29.732-53.815-43.949-62.547-74.014-52.329
	c-6.659-27.537-12.741-37.817-22.086-45.647h-0.005C212.681,836.097,209.681,834.098,206.625,832.692z M832.692,1458.76
	c-1.405-3.056-3.404-6.056-6.066-9.233v-0.005c-7.83-9.344-18.11-15.426-45.647-22.086c10.218-30.064,1.486-44.282-52.329-74.014
	c27.639,0.84,71.87,3.417,104.042,15.866c32.172-12.45,76.403-15.026,104.042-15.866c-53.815,29.732-62.547,43.95-52.329,74.014
	c-27.537,6.659-37.817,12.741-45.647,22.086v0.005C836.097,1452.704,834.098,1455.704,832.692,1458.76z M1458.76,832.692
	c-3.056,1.405-6.056,3.404-9.233,6.066h-0.005c-9.344,7.83-15.426,18.11-22.086,45.647c-30.064-10.218-44.282-1.486-74.014,52.329
	c0.84-27.639,3.417-71.87,15.866-104.042c-12.45-32.172-15.026-76.403-15.866-104.042c29.732,53.815,43.95,62.547,74.014,52.329
	c6.659,27.537,12.741,37.817,22.086,45.647h0.005C1452.704,829.288,1455.704,831.287,1458.76,832.692z M832.692,318.073
	c7.752,2.555,16.134,4.794,25.57,6.559c27.942,5.226,30.118,6.099,38.717,15.741c12.483,13.997,15.805,23.092,16.921,46.284
	c0.565,11.748,0.343,17.303-1.154,19.988v0.005c-0.498,0.891-1.137,1.467-1.934,1.85c-7.966,3.829-15.11,8.42-19.53,6.724
	c-2.822-1.083-7.582,1.377-10.292,3.715h-0.005c-8.544,7.372,9.555,21.559,26.471,7.325c9.697-8.16,13.22-8.674,15.409-1.776
	c0.892,2.812,7.602,10.704,14.908,17.538c15.961,14.93,28.118,18.798,43.465-0.29v-0.005c7.566-9.413,6.463-17.94-3.251-29.005
	c-7.919-9.019-15.59-13.409-22.502-3.541c-6.351,9.067-5.077,11.015,3.784,5.781c7.642-4.514,8.222-4.504,13.491,0.264
	c7.562,6.843,6.997,17.996-1.333,25.822c-6.567,6.169-7.285,6.267-18.096,2.493c-14.81-5.171-30.176-24.496-28.025-35.25
	c1.102-5.512,0.471-43.536-16.273-66.31c-3.473-4.724-6.313-9.112-6.313-9.754c0-1.204,37.608-0.833,53.81-1.101
	c61.937,34.346,65.365,45.744,46.838,89.923c-11.169,26.634-24.153,42.868-14.38,62.136c4.609,9.081,13.801,15.348,23.951,16.948
	c-7.976,33.326-9.18,61.323,21.295,75.853c19.389-27.883,4.052-51.384-18.218-75.526c8.865,0.506,0.833-3.707,16.589,0.443
	c22.791,34.028,46.316,58.096,84.148,42.964c-8.759-39.848-42.313-45.803-83.278-45.431c-4.131-2.809-4.967-2.74-8.546-2.74
	c40.497-26.487,41.57-45.94,34.227-66.31c-33.296,6.14-39.196,33.581-40.219,67.258c-6.704,0.672-19.921-4.13-25.221-15.746
	c-9.727-21.32,12.673-38.245,25.232-76.475c10.071-30.657,3.547-47.201-39.318-73.861c40.658-1.246,58.087-3.276,72.47-2.477
	c13.846,0.768,41.027,7.973,50.068,20.447c4.247,5.861,5.554,13.769,4.732,17.021c0,2.952-6.69,8.401-8.927,10.244
	c-16.97,13.988-33.03,1.736-32-8.727c1.037-11.181,5.785-12.233,11.636-12.806c9.04-0.885,17.583,3.677,14.968,7.92
	c-1.989,6.954-14.921-0.683-16.358,6.909c0.673,1.207,1.416,2.139,2.213,2.851v0.005c2.288,2.041,5.073,2.292,8.031,1.639
	c6.813-1.503,10.48-3.027,11.926-8.885c0-5.493,4.351-15.259-17.975-19.024c-18.695,0-27.419,22.893-15.356,35.903
	c11.368,12.254,36.363,4.414,44.898-8.258v-0.005c0.935-1.389,1.706-2.859,2.277-4.406v-0.005c4.716-12.761,0.544-9.431,30.27-5.992
	c24.126,2.792,39.408,2.173,42.738-26.765c0-0.785,0.379-2.36,0.279-5.112c-0.869-24.215-41.416-40.454-51.855-24.315
	c-7.704,11.911-8.163,20.668-1.454,27.809c7.214,7.679,14.945,8.429,21.906,2.129c5.812-5.26,6.634-17.121,1.186-17.121
	c-2.061,0-3.579,1.956-3.373,4.348c0.577,6.703-7.683,10.956-12.89,6.635c-4.967-4.122-5.372-9.98-1.265-16.484
	c6.065-9.61,8.659-8.578,18.154-5.733c7.108,2.13,13.657,6.704,18.286,12.774c6.691,8.773,6.98,10.227,4.021,20.104
	c-1.755,5.856-5.492,11.882-8.311,13.391c-13.303,7.119-52.56-1.367-63.796-13.791c-7.771-8.593-22.713-15.232-42.49-18.876
	c-9.851-1.815-17.912-4.051-17.912-4.969c0-0.919,7.589-5.115,16.863-9.327c53.734-25.311,89.243-51.64,99.446-100.015
	c27.153-9.125,55.091-36.792,63.19-69.914c10.214-18.981,19.515-39.009,19.993-57.815c0.031-1.219,0.031-2.441,0.01-3.662l0.003,0
	c-0.416-21.493-7.112-31.251-21.569-43.518c-34.557,29.323-22.974,65.303-1.46,105.19c-10.388,24.156-31.607,41.535-57.393,48.145
	c4.638-83.291-77.467-108.173-135.642-92.374h-0.005c-4.057,1.102-7.602,2.628-11.804,4.79
	c-80.823,51.441,45.12,178.414,59.18,91.325c1.134-7.026-4.569-23.98-10.566-25.674c-12.099,8.678,9.846,12.284-4.527,27.793
	c-12.333,13.127-33.918,4.463-45.515-18.27c-7.517-14.734-7.114-36.713,0.89-48.608c8.876-13.19,21.455-16.633,55.886-15.288
	c23.63,0.979,60.351,6.972,66.879,45.146c10.549,98.189-73.11,138.804-146.473,154.231c-8.894,1.813-20.868,2.738-34.227,3.004
	c-67.736-35.548-74.277-44.469-68.043-69.087c37.862-0.68,64.111-8.395,63.617-46.269c-20.448-7.816-38.124-5.549-51.849,15.915
	c2.823-6.031,20.212-33.781-1.888-49.056h-0.005c-7.558-5.224-19.628-7.224-25.759-1.481h-0.005
	c-4.34,4.065-3.886,11.569-0.348,14.392c2.314,1.846,5.852,1.955,6.751,1.66c-4.749,0.439-8.835-4.787-6.909-10.792
	c4.262-13.244,42.674-2.781,30.059,28.615c-4.193,8.407-12.62,22.279-18.434,37.368c-6.09-36.504-16.962-59.692-53.379-54.605
	c-36.417-5.087-47.289,18.101-53.379,54.605c-5.814-15.089-14.241-28.961-18.434-37.368c-12.615-31.396,25.797-41.859,30.059-28.615
	c1.925,6.005-2.16,11.231-6.909,10.792c0.899,0.295,4.437,0.186,6.751-1.66c3.537-2.822,3.992-10.326-0.348-14.392h-0.005
	c-6.13-5.743-18.2-3.743-25.759,1.481h-0.005c-22.1,15.276-4.712,43.025-1.888,49.056c-13.725-21.464-31.401-23.731-51.849-15.915
	c-0.494,37.874,25.755,45.589,63.617,46.269c6.234,24.617-0.307,33.539-68.043,69.087c-13.359-0.266-25.333-1.191-34.227-3.004
	c-73.364-15.426-157.023-56.042-146.473-154.231c6.528-38.174,43.249-44.167,66.879-45.146c34.431-1.346,47.01,2.098,55.886,15.288
	c8.004,11.896,8.407,33.875,0.89,48.608c-11.597,22.733-33.183,31.398-45.515,18.27c-14.373-15.508,7.572-19.115-4.527-27.793
	c-5.997,1.694-11.7,18.648-10.566,25.674c14.059,87.089,140.003-39.885,59.18-91.325c-4.202-2.163-7.747-3.688-11.804-4.79h-0.005
	c-58.175-15.799-140.279,9.083-135.642,92.374c-25.786-6.61-47.006-23.989-57.393-48.145c21.514-39.887,33.098-75.867-1.46-105.19
	c-14.457,12.267-21.154,22.025-21.569,43.518l0.003,0c-0.02,1.221-0.02,2.444,0.01,3.662c0.478,18.806,9.779,38.834,19.993,57.815
	c8.099,33.122,36.037,60.789,63.19,69.914c10.203,48.375,45.712,74.704,99.446,100.015c9.275,4.213,16.863,8.409,16.863,9.327
	c0,0.919-8.061,3.154-17.912,4.969c-19.778,3.644-34.719,10.283-42.49,18.876c-11.236,12.424-50.493,20.91-63.796,13.791
	c-2.818-1.508-6.556-7.534-8.31-13.391c-2.959-9.877-2.67-11.332,4.021-20.104c4.63-6.07,11.178-10.644,18.286-12.774
	c9.495-2.845,12.089-3.876,18.154,5.733c4.107,6.504,3.702,12.361-1.265,16.484c-5.207,4.321-13.467,0.069-12.89-6.635
	c0.206-2.392-1.312-4.348-3.373-4.348c-5.448,0-4.627,11.861,1.186,17.121c6.961,6.3,14.693,5.55,21.906-2.129
	c6.708-7.141,6.25-15.897-1.454-27.809c-10.439-16.139-50.986,0.1-51.855,24.315c-0.1,2.751,0.279,4.327,0.279,5.112
	c3.33,28.938,18.612,29.557,42.738,26.765c29.725-3.439,25.554-6.769,30.27,5.992v0.005c0.571,1.546,1.342,3.017,2.277,4.406v0.005
	c8.535,12.672,33.53,20.511,44.898,8.258c12.063-13.01,3.339-35.903-15.356-35.903c-22.325,3.764-17.975,13.531-17.975,19.024
	c1.446,5.858,5.113,7.382,11.926,8.885c2.958,0.653,5.743,0.402,8.031-1.639v-0.005c0.797-0.712,1.54-1.644,2.213-2.851
	c-1.436-7.592-14.369,0.045-16.357-6.909c-2.615-4.243,5.927-8.805,14.968-7.92c5.851,0.573,10.598,1.625,11.636,12.806
	c1.03,10.463-15.03,22.715-32,8.727c-2.237-1.844-8.927-7.293-8.927-10.244c-0.822-3.252,0.485-11.16,4.732-17.021
	c9.042-12.474,36.222-19.679,50.068-20.447c14.382-0.799,31.812,1.23,72.47,2.477c-42.865,26.66-49.389,43.204-39.318,73.861
	c12.559,38.23,34.959,55.155,25.232,76.475c-5.3,11.616-18.517,16.418-25.221,15.746c-1.023-33.677-6.923-61.118-40.219-67.258
	c-7.343,20.37-6.27,39.822,34.227,66.31c-3.58,0-4.415-0.068-8.546,2.74c-40.965-0.373-74.519,5.582-83.278,45.431
	c37.832,15.131,61.356-8.937,84.148-42.964c15.756-4.15,7.724,0.063,16.589-0.443c-22.27,24.142-37.607,47.644-18.218,75.526
	c30.475-14.53,29.271-42.528,21.295-75.853c10.15-1.599,19.342-7.867,23.951-16.948c9.774-19.268-3.211-35.502-14.38-62.136
	c-18.527-44.179-15.1-55.577,46.838-89.923c16.202,0.268,53.81-0.103,53.81,1.101c0,0.642-2.84,5.031-6.313,9.754
	c-16.744,22.773-17.376,60.798-16.273,66.31c2.151,10.754-13.215,30.079-28.025,35.25c-10.811,3.775-11.53,3.676-18.096-2.493
	c-8.331-7.826-8.895-18.979-1.333-25.822c5.269-4.768,5.849-4.777,13.491-0.264c8.86,5.234,10.134,3.286,3.784-5.781
	c-6.912-9.868-14.583-5.477-22.502,3.541c-9.714,11.065-10.817,19.592-3.251,29.005v0.005c15.347,19.088,27.504,15.22,43.465,0.29
	c7.306-6.834,14.016-14.726,14.908-17.538c2.189-6.898,5.712-6.384,15.409,1.776c16.916,14.234,35.014,0.047,26.471-7.325h-0.005
	c-2.71-2.338-7.47-4.798-10.292-3.715c-4.42,1.696-11.564-2.895-19.53-6.724c-0.797-0.383-1.436-0.959-1.934-1.85v-0.005
	c-1.497-2.685-1.719-8.24-1.154-19.988c1.117-23.193,4.438-32.288,16.921-46.284c8.599-9.642,10.775-10.514,38.717-15.741
	C816.558,322.868,824.94,320.629,832.692,318.073z M318.073,832.692c2.555-7.752,4.794-16.134,6.559-25.57
	c5.226-27.942,6.099-30.118,15.741-38.717c13.997-12.483,23.092-15.805,46.284-16.921c11.748-0.565,17.303-0.343,19.988,1.154h0.005
	c0.891,0.498,1.467,1.137,1.85,1.934c3.829,7.966,8.42,15.11,6.724,19.53c-1.083,2.822,1.377,7.582,3.715,10.292v0.005
	c7.372,8.544,21.559-9.555,7.325-26.471c-8.16-9.697-8.674-13.22-1.776-15.409c2.812-0.892,10.704-7.602,17.538-14.908
	c14.93-15.961,18.798-28.118-0.29-43.465h-0.005c-9.413-7.566-17.94-6.463-29.005,3.251c-9.019,7.919-13.409,15.59-3.541,22.502
	c9.067,6.351,11.015,5.077,5.781-3.784c-4.514-7.642-4.504-8.222,0.264-13.491c6.843-7.561,17.996-6.997,25.822,1.333
	c6.169,6.567,6.267,7.285,2.493,18.096c-5.171,14.81-24.496,30.176-35.25,28.025c-5.512-1.102-43.536-0.471-66.31,16.273
	c-4.724,3.473-9.112,6.313-9.754,6.313c-1.204,0-0.833-37.608-1.101-53.81c34.346-61.937,45.744-65.365,89.923-46.838
	c26.634,11.169,42.868,24.153,62.136,14.38c9.081-4.609,15.348-13.801,16.948-23.951c33.326,7.976,61.323,9.18,75.853-21.295
	c-27.883-19.389-51.384-4.052-75.526,18.218c0.506-8.865-3.707-0.833,0.443-16.589c34.028-22.791,58.096-46.316,42.964-84.148
	c-39.848,8.759-45.803,42.313-45.431,83.278c-2.809,4.131-2.74,4.967-2.74,8.546c-26.487-40.497-45.94-41.57-66.31-34.227
	c6.14,33.296,33.581,39.196,67.258,40.219c0.672,6.704-4.13,19.921-15.746,25.221c-21.32,9.727-38.245-12.673-76.475-25.232
	c-30.657-10.071-47.201-3.547-73.861,39.318c-1.246-40.658-3.276-58.087-2.477-72.47c0.768-13.846,7.973-41.027,20.447-50.068
	c5.861-4.247,13.769-5.554,17.021-4.732c2.952,0,8.401,6.69,10.244,8.927c13.988,16.97,1.736,33.03-8.727,32
	c-11.181-1.037-12.233-5.785-12.806-11.636c-0.885-9.04,3.677-17.583,7.92-14.968c6.954,1.989-0.683,14.921,6.909,16.357
	c1.207-0.673,2.139-1.416,2.851-2.213h0.005c2.041-2.288,2.292-5.073,1.639-8.031c-1.503-6.813-3.027-10.48-8.885-11.926
	c-5.493,0-15.259-4.351-19.024,17.975c0,18.695,22.893,27.419,35.903,15.356c12.254-11.368,4.414-36.363-8.258-44.898h-0.005
	c-1.389-0.935-2.859-1.706-4.406-2.277h-0.005c-12.761-4.716-9.431-0.544-5.992-30.27c2.792-24.126,2.173-39.408-26.765-42.738
	c-0.785,0-2.36-0.379-5.112-0.279c-24.215,0.869-40.454,41.416-24.315,51.855c11.911,7.704,20.668,8.163,27.809,1.454
	c7.679-7.214,8.429-14.945,2.129-21.906c-5.26-5.812-17.121-6.634-17.121-1.186c0,2.061,1.956,3.579,4.348,3.373
	c6.703-0.577,10.956,7.683,6.635,12.89c-4.122,4.967-9.98,5.372-16.484,1.265c-9.61-6.065-8.578-8.659-5.733-18.154
	c2.13-7.108,6.704-13.657,12.774-18.286c8.773-6.691,10.227-6.98,20.104-4.021c5.856,1.755,11.882,5.492,13.391,8.31
	c7.119,13.303-1.367,52.56-13.791,63.796c-8.593,7.772-15.232,22.713-18.876,42.49c-1.815,9.851-4.051,17.912-4.969,17.912
	c-0.919,0-5.115-7.588-9.327-16.863c-25.311-53.734-51.64-89.243-100.015-99.446c-9.125-27.153-36.792-55.091-69.914-63.19
	c-18.981-10.214-39.009-19.515-57.815-19.993c-1.219-0.031-2.441-0.031-3.662-0.01l0-0.003
	c-21.493,0.415-31.251,7.112-43.518,21.569c29.323,34.558,65.303,22.974,105.19,1.46c24.156,10.388,41.535,31.607,48.145,57.393
	c-83.291-4.638-108.173,77.467-92.374,135.642v0.005c1.102,4.058,2.628,7.602,4.79,11.804c51.441,80.823,178.414-45.12,91.325-59.18
	c-7.026-1.134-23.98,4.569-25.674,10.566c8.678,12.099,12.284-9.846,27.793,4.527c13.127,12.332,4.463,33.918-18.27,45.515
	c-14.734,7.517-36.713,7.114-48.608-0.89c-13.19-8.876-16.633-21.455-15.288-55.886c0.979-23.63,6.972-60.351,45.146-66.879
	c98.189-10.549,138.804,73.11,154.231,146.473c1.813,8.894,2.738,20.868,3.004,34.227c-35.548,67.736-44.469,74.277-69.087,68.043
	c-0.68-37.862-8.395-64.111-46.269-63.617c-7.816,20.448-5.549,38.124,15.915,51.849c-6.031-2.823-33.781-20.212-49.056,1.888v0.005
	c-5.224,7.558-7.224,19.628-1.481,25.759v0.005c4.065,4.34,11.569,3.885,14.392,0.348c1.846-2.314,1.955-5.852,1.66-6.751
	c0.439,4.749-4.787,8.835-10.792,6.909c-13.244-4.262-2.781-42.674,28.615-30.059c8.407,4.192,22.279,12.62,37.368,18.434
	c-36.504,6.09-59.692,16.962-54.605,53.379c-5.087,36.417,18.101,47.289,54.605,53.379c-15.089,5.814-28.961,14.241-37.368,18.434
	c-31.396,12.615-41.859-25.797-28.615-30.059c6.005-1.925,11.231,2.16,10.792,6.909c0.295-0.899,0.186-4.437-1.66-6.751
	c-2.822-3.537-10.326-3.992-14.392,0.348v0.005c-5.743,6.13-3.743,18.2,1.481,25.759v0.005c15.276,22.1,43.025,4.712,49.056,1.888
	c-21.464,13.725-23.731,31.401-15.915,51.849c37.874,0.494,45.589-25.755,46.269-63.617c24.617-6.234,33.539,0.307,69.087,68.043
	c-0.266,13.359-1.191,25.333-3.004,34.227c-15.426,73.364-56.042,157.023-154.231,146.473
	c-38.174-6.528-44.167-43.249-45.146-66.879c-1.346-34.431,2.098-47.01,15.288-55.886c11.896-8.004,33.875-8.407,48.608-0.89
	c22.733,11.597,31.398,33.183,18.27,45.515c-15.508,14.373-19.115-7.572-27.793,4.527c1.694,5.997,18.648,11.7,25.674,10.566
	c87.089-14.059-39.885-140.003-91.325-59.18c-2.163,4.202-3.688,7.747-4.79,11.804v0.005
	c-15.799,58.175,9.083,140.279,92.374,135.642c-6.61,25.786-23.989,47.005-48.145,57.393c-39.887-21.514-75.867-33.098-105.19,1.46
	c12.267,14.457,22.025,21.154,43.518,21.569l0-0.003c1.221,0.02,2.444,0.02,3.662-0.01c18.806-0.478,38.834-9.779,57.815-19.993
	c33.122-8.099,60.789-36.037,69.914-63.19c48.375-10.203,74.704-45.712,100.015-99.446c4.213-9.275,8.409-16.863,9.327-16.863
	c0.919,0,3.154,8.061,4.969,17.912c3.644,19.778,10.283,34.719,18.876,42.49c12.424,11.236,20.91,50.493,13.791,63.796
	c-1.508,2.818-7.534,6.556-13.391,8.311c-9.877,2.959-11.332,2.67-20.104-4.021c-6.07-4.63-10.644-11.178-12.774-18.286
	c-2.845-9.495-3.876-12.089,5.733-18.154c6.504-4.107,12.361-3.702,16.484,1.265c4.321,5.207,0.069,13.467-6.635,12.89
	c-2.392-0.206-4.348,1.312-4.348,3.373c0,5.448,11.861,4.627,17.121-1.186c6.3-6.961,5.55-14.693-2.129-21.906
	c-7.141-6.708-15.897-6.25-27.809,1.454c-16.139,10.439,0.1,50.986,24.315,51.855c2.751,0.1,4.327-0.279,5.112-0.279
	c28.938-3.33,29.557-18.612,26.765-42.738c-3.439-29.725-6.769-25.554,5.992-30.27h0.005c1.546-0.571,3.017-1.342,4.406-2.277h0.005
	c12.672-8.535,20.511-33.53,8.258-44.898c-13.01-12.063-35.903-3.339-35.903,15.356c3.764,22.326,13.531,17.975,19.024,17.975
	c5.858-1.446,7.382-5.113,8.885-11.926c0.653-2.958,0.402-5.743-1.639-8.031h-0.005c-0.712-0.797-1.644-1.54-2.851-2.213
	c-7.592,1.436,0.045,14.369-6.909,16.358c-4.243,2.615-8.805-5.927-7.92-14.968c0.573-5.851,1.625-10.598,12.806-11.636
	c10.463-1.03,22.715,15.03,8.727,32c-1.844,2.237-7.293,8.927-10.244,8.927c-3.252,0.822-11.16-0.485-17.021-4.732
	c-12.474-9.042-19.679-36.222-20.447-50.068c-0.799-14.383,1.23-31.812,2.477-72.47c26.66,42.865,43.204,49.389,73.861,39.318
	c38.23-12.559,55.155-34.959,76.475-25.232c11.616,5.3,16.418,18.517,15.746,25.221c-33.677,1.023-61.118,6.923-67.258,40.219
	c20.37,7.343,39.822,6.27,66.31-34.227c0,3.58-0.068,4.415,2.74,8.546c-0.373,40.965,5.582,74.519,45.431,83.278
	c15.131-37.832-8.937-61.356-42.964-84.148c-4.15-15.756,0.063-7.724-0.443-16.589c24.142,22.27,47.644,37.607,75.526,18.218
	c-14.53-30.475-42.528-29.271-75.853-21.295c-1.599-10.15-7.867-19.342-16.948-23.951c-19.268-9.774-35.502,3.211-62.136,14.38
	c-44.179,18.527-55.577,15.1-89.923-46.838c0.268-16.202-0.103-53.81,1.101-53.81c0.642,0,5.031,2.84,9.754,6.313
	c22.773,16.744,60.798,17.376,66.31,16.273c10.754-2.151,30.079,13.215,35.25,28.025c3.775,10.811,3.676,11.53-2.493,18.096
	c-7.826,8.331-18.979,8.895-25.822,1.333c-4.768-5.269-4.777-5.849-0.264-13.491c5.234-8.86,3.286-10.134-5.781-3.784
	c-9.868,6.912-5.477,14.583,3.541,22.502c11.065,9.714,19.592,10.817,29.005,3.251h0.005c19.088-15.347,15.22-27.504,0.29-43.465
	c-6.834-7.306-14.726-14.016-17.538-14.908c-6.898-2.189-6.384-5.712,1.776-15.409c14.234-16.916,0.047-35.014-7.325-26.471v0.005
	c-2.338,2.71-4.798,7.47-3.715,10.292c1.696,4.42-2.895,11.564-6.724,19.53c-0.383,0.797-0.959,1.436-1.85,1.934h-0.005
	c-2.685,1.497-8.24,1.719-19.988,1.154c-23.193-1.117-32.288-4.438-46.284-16.921c-9.642-8.599-10.514-10.775-15.741-38.717
	C322.868,848.827,320.629,840.444,318.073,832.692z M832.692,1347.311c-7.752-2.556-16.134-4.794-25.57-6.559
	c-27.942-5.226-30.118-6.099-38.717-15.741c-12.483-13.997-15.805-23.092-16.921-46.284c-0.565-11.748-0.343-17.303,1.154-19.988
	v-0.005c0.498-0.891,1.137-1.467,1.934-1.85c7.966-3.829,15.11-8.42,19.53-6.724c2.822,1.083,7.582-1.377,10.292-3.715h0.005
	c8.544-7.373-9.555-21.559-26.471-7.325c-9.697,8.16-13.22,8.674-15.409,1.776c-0.892-2.812-7.602-10.704-14.908-17.538
	c-15.961-14.93-28.118-18.798-43.465,0.29v0.005c-7.566,9.413-6.463,17.94,3.251,29.005c7.919,9.019,15.59,13.409,22.502,3.541
	c6.351-9.067,5.077-11.015-3.784-5.781c-7.642,4.514-8.222,4.504-13.491-0.263c-7.561-6.843-6.997-17.996,1.333-25.822
	c6.567-6.169,7.285-6.267,18.096-2.493c14.81,5.171,30.176,24.496,28.025,35.25c-1.102,5.512-0.471,43.536,16.273,66.31
	c3.473,4.724,6.313,9.112,6.313,9.754c0,1.204-37.608,0.833-53.81,1.101c-61.937-34.346-65.365-45.744-46.838-89.923
	c11.169-26.634,24.153-42.868,14.38-62.136c-4.609-9.081-13.801-15.348-23.951-16.948c7.976-33.326,9.18-61.323-21.295-75.853
	c-19.389,27.883-4.052,51.384,18.218,75.526c-8.865-0.506-0.833,3.707-16.589-0.443c-22.791-34.028-46.316-58.096-84.148-42.964
	c8.759,39.848,42.313,45.803,83.278,45.431c4.131,2.809,4.967,2.74,8.546,2.74c-40.497,26.487-41.57,45.94-34.227,66.31
	c33.296-6.14,39.196-33.581,40.219-67.258c6.704-0.672,19.921,4.13,25.221,15.746c9.727,21.32-12.673,38.245-25.232,76.475
	c-10.071,30.657-3.547,47.201,39.318,73.861c-40.658,1.246-58.087,3.276-72.47,2.477c-13.846-0.767-41.027-7.973-50.068-20.447
	c-4.247-5.861-5.554-13.769-4.732-17.021c0-2.952,6.69-8.401,8.927-10.244c16.97-13.988,33.03-1.737,32,8.727
	c-1.037,11.181-5.785,12.233-11.636,12.806c-9.04,0.885-17.583-3.677-14.968-7.92c1.989-6.953,14.921,0.683,16.357-6.909
	c-0.673-1.207-1.416-2.139-2.213-2.851v-0.005c-2.288-2.041-5.073-2.292-8.031-1.639c-6.813,1.503-10.48,3.027-11.926,8.885
	c0,5.493-4.351,15.259,17.975,19.024c18.695,0,27.419-22.893,15.356-35.903c-11.368-12.254-36.363-4.414-44.898,8.258v0.005
	c-0.935,1.389-1.706,2.859-2.277,4.406v0.005c-4.716,12.761-0.544,9.431-30.27,5.992c-24.126-2.792-39.408-2.173-42.738,26.765
	c0,0.785-0.379,2.36-0.279,5.112c0.869,24.215,41.416,40.454,51.855,24.315c7.704-11.911,8.163-20.668,1.454-27.809
	c-7.214-7.678-14.945-8.429-21.906-2.129c-5.812,5.26-6.634,17.121-1.186,17.121c2.061,0,3.579-1.956,3.373-4.348
	c-0.577-6.703,7.683-10.956,12.89-6.635c4.967,4.122,5.372,9.98,1.265,16.484c-6.065,9.61-8.659,8.578-18.154,5.734
	c-7.108-2.13-13.657-6.704-18.286-12.774c-6.691-8.773-6.98-10.227-4.021-20.104c1.755-5.856,5.492-11.882,8.31-13.391
	c13.303-7.12,52.56,1.367,63.796,13.791c7.772,8.593,22.713,15.232,42.49,18.876c9.851,1.815,17.912,4.051,17.912,4.969
	s-7.588,5.115-16.863,9.328c-53.734,25.311-89.243,51.64-99.446,100.015c-27.153,9.125-55.091,36.792-63.19,69.914
	c-10.214,18.981-19.515,39.009-19.993,57.815c-0.031,1.219-0.031,2.441-0.01,3.662l-0.003,0
	c0.415,21.493,7.112,31.251,21.569,43.518c34.558-29.323,22.974-65.303,1.46-105.19c10.388-24.156,31.607-41.535,57.393-48.145
	c-4.638,83.291,77.467,108.173,135.642,92.374h0.005c4.058-1.102,7.602-2.628,11.804-4.79c80.823-51.441-45.12-178.414-59.18-91.325
	c-1.134,7.026,4.569,23.98,10.566,25.674c12.099-8.678-9.846-12.284,4.527-27.793c12.332-13.127,33.918-4.463,45.515,18.27
	c7.517,14.734,7.114,36.713-0.89,48.608c-8.876,13.19-21.455,16.633-55.886,15.288c-23.63-0.979-60.351-6.972-66.879-45.146
	c-10.549-98.189,73.11-138.804,146.473-154.231c8.894-1.813,20.868-2.738,34.227-3.004c67.736,35.548,74.277,44.469,68.043,69.087
	c-37.862,0.68-64.111,8.395-63.617,46.269c20.448,7.816,38.124,5.549,51.849-15.915c-2.823,6.031-20.212,33.781,1.888,49.056h0.005
	c7.558,5.224,19.628,7.224,25.759,1.481h0.005c4.34-4.065,3.885-11.569,0.348-14.392c-2.314-1.846-5.852-1.955-6.751-1.66
	c4.749-0.439,8.835,4.787,6.909,10.792c-4.262,13.244-42.674,2.781-30.059-28.615c4.192-8.407,12.62-22.279,18.434-37.368
	c6.09,36.504,16.962,59.692,53.379,54.605c36.417,5.087,47.289-18.101,53.379-54.605c5.814,15.089,14.241,28.961,18.434,37.368
	c12.615,31.396-25.797,41.859-30.059,28.615c-1.925-6.005,2.16-11.231,6.909-10.792c-0.899-0.295-4.437-0.186-6.751,1.66
	c-3.537,2.822-3.992,10.326,0.348,14.392h0.005c6.13,5.743,18.2,3.743,25.759-1.481h0.005c22.1-15.276,4.712-43.025,1.888-49.056
	c13.725,21.464,31.401,23.731,51.849,15.915c0.494-37.874-25.755-45.589-63.617-46.269c-6.234-24.617,0.307-33.539,68.043-69.087
	c13.359,0.266,25.333,1.191,34.227,3.004c73.364,15.426,157.023,56.042,146.473,154.231c-6.528,38.174-43.249,44.167-66.879,45.146
	c-34.431,1.346-47.01-2.098-55.886-15.288c-8.004-11.896-8.407-33.875-0.89-48.608c11.597-22.733,33.183-31.398,45.515-18.27
	c14.373,15.508-7.572,19.115,4.527,27.793c5.997-1.694,11.7-18.648,10.566-25.674c-14.059-87.089-140.003,39.885-59.18,91.325
	c4.202,2.162,7.747,3.688,11.804,4.79h0.005c58.175,15.799,140.279-9.083,135.642-92.374c25.786,6.61,47.005,23.989,57.393,48.145
	c-21.514,39.887-33.098,75.867,1.46,105.19c14.457-12.267,21.154-22.025,21.569-43.518l-0.003,0c0.02-1.221,0.02-2.444-0.01-3.662
	c-0.478-18.806-9.779-38.834-19.993-57.815c-8.099-33.122-36.037-60.789-63.19-69.914c-10.203-48.375-45.712-74.704-99.446-100.015
	c-9.275-4.213-16.863-8.409-16.863-9.328s8.061-3.154,17.912-4.969c19.778-3.644,34.719-10.283,42.49-18.876
	c11.236-12.424,50.493-20.911,63.796-13.791c2.818,1.508,6.556,7.534,8.311,13.391c2.959,9.877,2.67,11.332-4.021,20.104
	c-4.63,6.07-11.178,10.644-18.286,12.774c-9.495,2.845-12.089,3.876-18.154-5.734c-4.107-6.504-3.702-12.361,1.265-16.484
	c5.207-4.321,13.467-0.069,12.89,6.635c-0.206,2.392,1.312,4.348,3.373,4.348c5.448,0,4.627-11.861-1.186-17.121
	c-6.961-6.3-14.693-5.55-21.906,2.129c-6.708,7.141-6.25,15.898,1.454,27.809c10.439,16.139,50.986-0.1,51.855-24.315
	c0.1-2.751-0.279-4.327-0.279-5.112c-3.33-28.938-18.612-29.557-42.738-26.765c-29.725,3.439-25.554,6.769-30.27-5.992v-0.005
	c-0.571-1.546-1.342-3.017-2.277-4.406v-0.005c-8.535-12.672-33.53-20.511-44.898-8.258c-12.063,13.01-3.339,35.903,15.356,35.903
	c22.326-3.764,17.975-13.531,17.975-19.024c-1.446-5.858-5.113-7.382-11.926-8.885c-2.958-0.653-5.743-0.402-8.031,1.639v0.005
	c-0.797,0.712-1.54,1.644-2.213,2.851c1.436,7.592,14.369-0.045,16.358,6.909c2.615,4.243-5.927,8.805-14.968,7.92
	c-5.851-0.573-10.598-1.625-11.636-12.806c-1.03-10.463,15.03-22.715,32-8.727c2.237,1.844,8.927,7.293,8.927,10.244
	c0.822,3.252-0.485,11.16-4.732,17.021c-9.042,12.474-36.222,19.679-50.068,20.447c-14.383,0.799-31.812-1.23-72.47-2.477
	c42.865-26.66,49.389-43.204,39.318-73.861c-12.559-38.23-34.959-55.155-25.232-76.475c5.3-11.616,18.517-16.418,25.221-15.746
	c1.023,33.677,6.923,61.118,40.219,67.258c7.343-20.37,6.27-39.822-34.227-66.31c3.58,0,4.415,0.068,8.546-2.74
	c40.965,0.373,74.519-5.582,83.278-45.431c-37.832-15.131-61.356,8.937-84.148,42.964c-15.756,4.15-7.724-0.063-16.589,0.443
	c22.27-24.142,37.607-47.644,18.218-75.526c-30.475,14.53-29.271,42.528-21.295,75.853c-10.15,1.599-19.342,7.867-23.951,16.948
	c-9.774,19.268,3.211,35.502,14.38,62.136c18.527,44.179,15.1,55.577-46.838,89.923c-16.202-0.268-53.81,0.103-53.81-1.101
	c0-0.642,2.84-5.031,6.313-9.754c16.744-22.773,17.376-60.797,16.273-66.31c-2.151-10.754,13.215-30.079,28.025-35.25
	c10.811-3.775,11.53-3.676,18.096,2.493c8.331,7.826,8.895,18.979,1.333,25.822c-5.269,4.768-5.849,4.777-13.491,0.263
	c-8.86-5.234-10.134-3.286-3.784,5.781c6.912,9.868,14.583,5.477,22.502-3.541c9.714-11.065,10.817-19.592,3.251-29.005v-0.005
	c-15.347-19.088-27.504-15.22-43.465-0.29c-7.306,6.834-14.016,14.726-14.908,17.538c-2.189,6.898-5.712,6.384-15.409-1.776
	c-16.916-14.234-35.014-0.047-26.471,7.325h0.005c2.71,2.338,7.47,4.798,10.292,3.715c4.42-1.696,11.564,2.895,19.53,6.724
	c0.797,0.383,1.436,0.959,1.934,1.85v0.005c1.497,2.685,1.719,8.24,1.154,19.988c-1.117,23.193-4.438,32.288-16.921,46.284
	c-8.599,9.642-10.775,10.515-38.717,15.741C848.827,1342.517,840.444,1344.756,832.692,1347.311z M1347.311,832.692
	c-2.556,7.752-4.794,16.134-6.559,25.57c-5.226,27.942-6.099,30.118-15.741,38.717c-13.997,12.483-23.092,15.805-46.284,16.921
	c-11.748,0.565-17.303,0.343-19.988-1.154h-0.005c-0.891-0.498-1.467-1.137-1.85-1.934c-3.829-7.966-8.42-15.11-6.724-19.53
	c1.083-2.822-1.377-7.582-3.715-10.292v-0.005c-7.373-8.544-21.559,9.555-7.325,26.471c8.16,9.697,8.674,13.22,1.776,15.409
	c-2.812,0.892-10.704,7.602-17.538,14.908c-14.93,15.961-18.798,28.118,0.29,43.465h0.005c9.413,7.566,17.94,6.463,29.005-3.251
	c9.019-7.919,13.409-15.59,3.541-22.502c-9.067-6.351-11.015-5.077-5.781,3.784c4.514,7.642,4.504,8.222-0.263,13.491
	c-6.843,7.562-17.996,6.997-25.822-1.333c-6.169-6.567-6.267-7.285-2.493-18.096c5.171-14.81,24.496-30.176,35.25-28.025
	c5.512,1.102,43.536,0.471,66.31-16.273c4.724-3.473,9.112-6.313,9.754-6.313c1.204,0,0.833,37.608,1.101,53.81
	c-34.346,61.937-45.744,65.365-89.923,46.838c-26.634-11.169-42.868-24.153-62.136-14.38c-9.081,4.609-15.348,13.801-16.948,23.951
	c-33.326-7.976-61.323-9.18-75.853,21.295c27.883,19.389,51.384,4.052,75.526-18.218c-0.506,8.865,3.707,0.833-0.443,16.589
	c-34.028,22.791-58.096,46.316-42.964,84.148c39.848-8.759,45.803-42.313,45.431-83.278c2.809-4.131,2.74-4.967,2.74-8.546
	c26.487,40.497,45.94,41.57,66.31,34.227c-6.14-33.296-33.581-39.196-67.258-40.219c-0.672-6.704,4.13-19.921,15.746-25.221
	c21.32-9.727,38.245,12.673,76.475,25.232c30.657,10.071,47.201,3.547,73.861-39.318c1.246,40.658,3.276,58.087,2.477,72.47
	c-0.767,13.846-7.973,41.027-20.447,50.068c-5.861,4.247-13.769,5.554-17.021,4.732c-2.952,0-8.401-6.69-10.244-8.927
	c-13.988-16.97-1.737-33.03,8.727-32c11.181,1.037,12.233,5.785,12.806,11.636c0.885,9.04-3.677,17.583-7.92,14.968
	c-6.953-1.989,0.683-14.921-6.909-16.358c-1.207,0.673-2.139,1.416-2.851,2.213h-0.005c-2.041,2.288-2.292,5.073-1.639,8.031
	c1.503,6.813,3.027,10.48,8.885,11.926c5.493,0,15.259,4.351,19.024-17.975c0-18.695-22.893-27.419-35.903-15.356
	c-12.254,11.368-4.414,36.363,8.258,44.898h0.005c1.389,0.935,2.859,1.706,4.406,2.277h0.005c12.761,4.716,9.431,0.544,5.992,30.27
	c-2.792,24.126-2.173,39.408,26.765,42.738c0.785,0,2.36,0.379,5.112,0.279c24.215-0.869,40.454-41.416,24.315-51.855
	c-11.911-7.704-20.668-8.163-27.809-1.454c-7.678,7.214-8.429,14.945-2.129,21.906c5.26,5.812,17.121,6.634,17.121,1.186
	c0-2.061-1.956-3.579-4.348-3.373c-6.703,0.577-10.956-7.683-6.635-12.89c4.122-4.967,9.98-5.372,16.484-1.265
	c9.61,6.065,8.578,8.659,5.734,18.154c-2.13,7.108-6.704,13.657-12.774,18.286c-8.773,6.691-10.227,6.98-20.104,4.021
	c-5.856-1.755-11.882-5.492-13.391-8.311c-7.12-13.303,1.367-52.56,13.791-63.796c8.593-7.771,15.232-22.713,18.876-42.49
	c1.815-9.851,4.051-17.912,4.969-17.912s5.115,7.589,9.328,16.863c25.311,53.734,51.64,89.243,100.015,99.446
	c9.125,27.153,36.792,55.091,69.914,63.19c18.981,10.214,39.009,19.515,57.815,19.993c1.219,0.031,2.441,0.031,3.662,0.01l0,0.003
	c21.493-0.416,31.251-7.112,43.518-21.569c-29.323-34.557-65.303-22.974-105.19-1.46c-24.156-10.388-41.535-31.607-48.145-57.393
	c83.291,4.638,108.173-77.467,92.374-135.642v-0.005c-1.102-4.057-2.628-7.602-4.79-11.804
	c-51.441-80.823-178.414,45.12-91.325,59.18c7.026,1.134,23.98-4.569,25.674-10.566c-8.678-12.099-12.284,9.846-27.793-4.527
	c-13.127-12.333-4.463-33.918,18.27-45.515c14.734-7.517,36.713-7.114,48.608,0.89c13.19,8.876,16.633,21.455,15.288,55.886
	c-0.979,23.63-6.972,60.351-45.146,66.879c-98.189,10.549-138.804-73.11-154.231-146.473c-1.813-8.894-2.738-20.868-3.004-34.227
	c35.548-67.736,44.469-74.277,69.087-68.043c0.68,37.862,8.395,64.111,46.269,63.617c7.816-20.448,5.549-38.124-15.915-51.849
	c6.031,2.823,33.781,20.212,49.056-1.888v-0.005c5.224-7.558,7.224-19.628,1.481-25.759v-0.005
	c-4.065-4.34-11.569-3.886-14.392-0.348c-1.846,2.314-1.955,5.852-1.66,6.751c-0.439-4.749,4.787-8.835,10.792-6.909
	c13.244,4.262,2.781,42.674-28.615,30.059c-8.407-4.193-22.279-12.62-37.368-18.434c36.504-6.09,59.692-16.962,54.605-53.379
	c5.087-36.417-18.101-47.289-54.605-53.379c15.089-5.814,28.961-14.241,37.368-18.434c31.396-12.615,41.859,25.797,28.615,30.059
	c-6.005,1.925-11.231-2.16-10.792-6.909c-0.295,0.899-0.186,4.437,1.66,6.751c2.822,3.537,10.326,3.992,14.392-0.348v-0.005
	c5.743-6.13,3.743-18.2-1.481-25.759v-0.005c-15.276-22.1-43.025-4.712-49.056-1.888c21.464-13.725,23.731-31.401,15.915-51.849
	c-37.874-0.494-45.589,25.755-46.269,63.617c-24.617,6.234-33.539-0.307-69.087-68.043c0.266-13.359,1.191-25.333,3.004-34.227
	c15.426-73.364,56.042-157.023,154.231-146.473c38.174,6.528,44.167,43.249,45.146,66.879c1.346,34.431-2.098,47.01-15.288,55.886
	c-11.896,8.004-33.875,8.407-48.608,0.89c-22.733-11.597-31.398-33.183-18.27-45.515c15.508-14.373,19.115,7.572,27.793-4.527
	c-1.694-5.997-18.648-11.7-25.674-10.566c-87.089,14.059,39.885,140.003,91.325,59.18c2.162-4.202,3.688-7.747,4.79-11.804v-0.005
	c15.799-58.175-9.083-140.279-92.374-135.642c6.61-25.786,23.989-47.006,48.145-57.393c39.887,21.514,75.867,33.098,105.19-1.46
	c-12.267-14.457-22.025-21.154-43.518-21.569l0,0.003c-1.221-0.02-2.444-0.02-3.662,0.01c-18.806,0.478-38.834,9.779-57.815,19.993
	c-33.122,8.099-60.789,36.037-69.914,63.19c-48.375,10.203-74.704,45.712-100.015,99.446c-4.213,9.275-8.409,16.863-9.328,16.863
	s-3.154-8.061-4.969-17.912c-3.644-19.778-10.283-34.719-18.876-42.49c-12.424-11.236-20.911-50.493-13.791-63.796
	c1.508-2.818,7.534-6.556,13.391-8.31c9.877-2.959,11.332-2.67,20.104,4.021c6.07,4.63,10.644,11.178,12.774,18.286
	c2.845,9.495,3.876,12.089-5.734,18.154c-6.504,4.107-12.361,3.702-16.484-1.265c-4.321-5.207-0.069-13.467,6.635-12.89
	c2.392,0.206,4.348-1.312,4.348-3.373c0-5.448-11.861-4.627-17.121,1.186c-6.3,6.961-5.55,14.693,2.129,21.906
	c7.141,6.708,15.898,6.25,27.809-1.454c16.139-10.439-0.1-50.986-24.315-51.855c-2.751-0.1-4.327,0.279-5.112,0.279
	c-28.938,3.33-29.557,18.612-26.765,42.738c3.439,29.725,6.769,25.554-5.992,30.27h-0.005c-1.546,0.571-3.017,1.342-4.406,2.277
	h-0.005c-12.672,8.535-20.511,33.53-8.258,44.898c13.01,12.063,35.903,3.339,35.903-15.356
	c-3.764-22.325-13.531-17.975-19.024-17.975c-5.858,1.446-7.382,5.113-8.885,11.926c-0.653,2.958-0.402,5.743,1.639,8.031h0.005
	c0.712,0.797,1.644,1.54,2.851,2.213c7.592-1.436-0.045-14.369,6.909-16.357c4.243-2.615,8.805,5.927,7.92,14.968
	c-0.573,5.851-1.625,10.598-12.806,11.636c-10.463,1.03-22.715-15.03-8.727-32c1.844-2.237,7.293-8.927,10.244-8.927
	c3.252-0.822,11.16,0.485,17.021,4.732c12.474,9.042,19.679,36.222,20.447,50.068c0.799,14.382-1.23,31.812-2.477,72.47
	c-26.66-42.865-43.204-49.389-73.861-39.318c-38.23,12.559-55.155,34.959-76.475,25.232c-11.616-5.3-16.418-18.517-15.746-25.221
	c33.677-1.023,61.118-6.923,67.258-40.219c-20.37-7.343-39.822-6.27-66.31,34.227c0-3.58,0.068-4.415-2.74-8.546
	c0.373-40.965-5.582-74.519-45.431-83.278c-15.131,37.832,8.937,61.356,42.964,84.148c4.15,15.756-0.063,7.724,0.443,16.589
	c-24.142-22.27-47.644-37.607-75.526-18.218c14.53,30.475,42.528,29.271,75.853,21.295c1.599,10.15,7.867,19.342,16.948,23.951
	c19.268,9.774,35.502-3.211,62.136-14.38c44.179-18.527,55.577-15.1,89.923,46.838c-0.268,16.202,0.103,53.81-1.101,53.81
	c-0.642,0-5.031-2.84-9.754-6.313c-22.773-16.744-60.797-17.376-66.31-16.273c-10.754,2.151-30.079-13.215-35.25-28.025
	c-3.775-10.811-3.676-11.53,2.493-18.096c7.826-8.331,18.979-8.895,25.822-1.333c4.768,5.269,4.777,5.849,0.263,13.491
	c-5.234,8.86-3.286,10.134,5.781,3.784c9.868-6.912,5.477-14.583-3.541-22.502c-11.065-9.714-19.592-10.817-29.005-3.251h-0.005
	c-19.088,15.347-15.22,27.504-0.29,43.465c6.834,7.306,14.726,14.016,17.538,14.908c6.898,2.189,6.384,5.712-1.776,15.409
	c-14.234,16.916-0.047,35.014,7.325,26.471v-0.005c2.338-2.71,4.798-7.47,3.715-10.292c-1.696-4.42,2.895-11.564,6.724-19.53
	c0.383-0.797,0.959-1.436,1.85-1.934h0.005c2.685-1.497,8.24-1.719,19.988-1.154c23.193,1.117,32.288,4.438,46.284,16.921
	c9.642,8.599,10.515,10.775,15.741,38.717C1342.517,816.558,1344.756,824.94,1347.311,832.692z"/>
<g id="g2461_3_" transform="matrix(0.81754672,-0.31920639,-0.30581198,-0.85335484,-27.697874,182.87205)">
</g>
</svg>
