<?xml version="1.0" encoding="utf-8"?>

<!DOCTYPE svg PUBLIC "-//W3C//DTD SVG 1.1//EN" "http://www.w3.org/Graphics/SVG/1.1/DTD/svg11.dtd">
<svg version="1.1" id="Layer_1" xmlns="http://www.w3.org/2000/svg" xmlns:xlink="http://www.w3.org/1999/xlink" x="0px" y="0px"
	 viewBox="0 0 2630 1198" enable-background="new 0 0 2630 1198" xml:space="preserve">
<path d="M2212.349,599c120.246,101.679,238.503,217.956,264.788,367.581c12.291-114.053,49.455-240.274,61.806-367.581
	c-12.352-127.307-49.515-253.528-61.806-367.581C2450.853,381.044,2332.595,497.321,2212.349,599z M152.863,231.419
	C140.572,345.472,103.408,471.693,91.056,599c12.352,127.307,49.515,253.528,61.806,367.581
	C179.147,816.956,297.405,700.679,417.651,599C297.405,497.321,179.147,381.044,152.863,231.419z M1315,644.326
	c17.12-15.456,34.558-30.545,52.038-45.326c-17.48-14.781-34.918-29.871-52.038-45.326c-17.12,15.456-34.558,30.545-52.038,45.326
	C1280.442,613.781,1297.88,628.871,1315,644.326z M2449.283,937.713c-49.021-137.765-174.205-197.362-341.344-305.384
	c-13.613,27.873-30.573,55.043-50.138,80.018C2211.325,755.915,2337.912,829.409,2449.283,937.713z M572.199,712.347
	c-19.565-24.976-36.526-52.145-50.138-80.018C354.922,740.35,229.737,799.948,180.717,937.713
	C292.088,829.409,418.675,755.915,572.199,712.347z M2057.801,485.653c19.565,24.976,36.526,52.145,50.138,80.018
	c167.138-108.022,292.323-167.62,341.344-305.384C2337.912,368.591,2211.325,442.085,2057.801,485.653z M180.717,260.287
	C229.737,398.052,354.922,457.65,522.06,565.672c13.613-27.873,30.573-55.043,50.138-80.018
	C418.675,442.085,292.088,368.591,180.717,260.287z M1315,797.913c63.371-36.004,131.781-64.337,206.586-85.566
	c-19.565-24.976-36.526-52.145-50.138-80.018c-57.598,37.226-110.214,68.701-156.448,99.606
	c-46.233-30.905-98.849-62.38-156.448-99.606c-13.613,27.873-30.573,55.043-50.138,80.018
	C1183.219,733.576,1251.629,761.909,1315,797.913z M1315,466.065c46.233,30.905,98.849,62.38,156.448,99.606
	c13.613-27.873,30.573-55.043,50.138-80.018c-74.805-21.229-143.215-49.563-206.586-85.566
	c-63.371,36.004-131.781,64.338-206.586,85.566c19.565,24.976,36.526,52.145,50.138,80.018
	C1216.151,528.446,1268.767,496.971,1315,466.065z M1789.694,768.804c6.341-9.117,11.979-18.486,16.911-28.097
	c6.942-8.835,7.425-12.669,12.661-27.348c-9.145,0.831-19.172,2.026-29.573,3.678c-10.401-1.652-20.428-2.846-29.573-3.678
	c5.236,14.679,5.719,18.513,12.661,27.348C1777.715,750.318,1783.353,759.687,1789.694,768.804z M857.218,740.707
	c6.942-8.835,7.425-12.669,12.661-27.348c-9.145,0.831-19.172,2.026-29.573,3.678c-10.401-1.652-20.428-2.846-29.573-3.678
	c5.236,14.679,5.719,18.513,12.661,27.348c4.933,9.611,10.57,18.98,16.912,28.097C846.647,759.687,852.285,750.318,857.218,740.707z
	 M1772.782,457.293c-6.942,8.835-7.425,12.669-12.661,27.348c9.145-0.831,19.172-2.026,29.573-3.678
	c10.401,1.652,20.428,2.846,29.573,3.678c-5.236-14.679-5.719-18.513-12.661-27.348c-4.933-9.611-10.57-18.98-16.911-28.097
	C1783.353,438.313,1777.715,447.682,1772.782,457.293z M840.306,429.196c-6.341,9.117-11.979,18.486-16.912,28.097
	c-6.942,8.835-7.425,12.669-12.661,27.348c9.145-0.831,19.172-2.026,29.573-3.678c10.401,1.652,20.428,2.846,29.573,3.678
	c-5.236-14.679-5.719-18.513-12.661-27.348C852.285,447.682,846.647,438.313,840.306,429.196z M1755.442,599
	c-1.374,23.682-1.399,47.412-1.399,71.818c11.234-0.865,23.257-1.412,35.65-1.497c12.393,0.084,24.416,0.632,35.65,1.497
	c0-24.406-0.024-48.136-1.399-71.818c1.375-23.682,1.399-47.412,1.399-71.818c-11.234,0.865-23.257,1.412-35.65,1.497
	c-12.393-0.084-24.416-0.632-35.65-1.497C1754.043,551.588,1754.068,575.318,1755.442,599z M875.957,527.182
	c-11.234,0.865-23.257,1.412-35.65,1.497c-12.393-0.084-24.416-0.632-35.65-1.497c0,24.406,0.024,48.136,1.399,71.818
	c-1.374,23.682-1.399,47.412-1.399,71.818c11.234-0.865,23.257-1.412,35.65-1.497c12.393,0.084,24.416,0.632,35.65,1.497
	c0-24.406-0.024-48.136-1.399-71.818C875.932,575.318,875.957,551.588,875.957,527.182z M1836.912,599
	c1.064,24.872,0.099,48.433-1.945,71.818c63.674,5.045,151.319,19.865,211.693,37.983c21.992-28.838,39.076-54.125,53.682-82.044
	c-13.772-9.183-27.23-18.42-40.303-27.757c13.072-9.337,26.531-18.574,40.303-27.757c-14.607-27.919-31.691-53.206-53.682-82.044
	c-60.374,18.118-148.018,32.938-211.693,37.983C1837.011,550.567,1837.976,574.128,1836.912,599z M795.033,527.182
	c-63.674-5.045-151.319-19.865-211.693-37.983c-21.992,28.838-39.076,54.125-53.682,82.044c13.772,9.183,27.23,18.42,40.303,27.757
	c-13.072,9.337-26.531,18.574-40.303,27.757c14.607,27.919,31.691,53.206,53.682,82.044
	c60.374-18.118,148.018-32.938,211.693-37.983c-2.044-23.384-3.009-46.946-1.945-71.818
	C792.024,574.128,792.989,550.567,795.033,527.182z M1315,387.449c133.194,70.865,295.616,103.983,437.017,97.192
	c8.586-24.607,21.76-49.198,37.676-70.485c15.916,21.288,29.09,45.878,37.676,70.485c226.376,10.872,506.632-80.546,634.575-265.377
	c3.939-23.658,9.322-80.016,11.647-103.821c8.326-85.683,15.701-81.855,15.701-70.903c-10.786,43.011,2.004,131.011,10.129,174.724
	c12.598,70.035,47.59,171.961,70.901,272.974c0,3.378,0.839,7.263,2.532,11.647c8.202,32.846,15.774,64.326,22.146,95.114
	c-6.371,30.788-13.943,62.268-22.146,95.114c-1.693,4.385-2.532,8.269-2.532,11.647c-23.311,101.013-58.303,202.94-70.901,272.974
	c-8.125,43.713-20.915,131.713-10.129,174.724c0,10.953-7.375,14.78-15.701-70.903c-2.325-23.805-7.708-80.163-11.647-103.821
	c-127.942-184.831-408.198-276.249-634.575-265.377c-8.586,24.607-21.76,49.198-37.676,70.485
	c-15.916-21.288-29.09-45.878-37.676-70.485c-141.401-6.791-303.823,26.327-437.017,97.192
	c-133.194-70.865-295.616-103.983-437.018-97.192c-8.586,24.607-21.76,49.198-37.676,70.485
	c-15.916-21.288-29.09-45.878-37.676-70.485c-226.377-10.872-506.632,80.546-634.575,265.377
	c-3.939,23.658-9.322,80.016-11.647,103.821c-8.326,85.683-15.701,81.855-15.701,70.903c10.786-43.01-2.004-131.01-10.129-174.724
	c-12.598-70.035-47.59-171.961-70.901-272.974c0-3.378-0.839-7.263-2.532-11.647C48.943,661.268,41.371,629.788,35,599
	c6.371-30.788,13.943-62.268,22.146-95.114c1.693-4.385,2.532-8.269,2.532-11.647c23.311-101.013,58.303-202.94,70.901-272.974
	c8.125-43.713,20.915-131.713,10.129-174.724c0-10.952,7.375-14.78,15.701,70.903c2.325,23.805,7.708,80.163,11.647,103.821
	C295.998,404.095,576.254,495.514,802.63,484.641c8.586-24.607,21.76-49.198,37.676-70.485
	c15.916,21.288,29.09,45.878,37.676,70.485C1019.384,491.433,1181.806,458.314,1315,387.449z M1519.348,599
	c-13.072,9.337-26.531,18.574-40.303,27.757c14.607,27.919,31.691,53.206,53.682,82.044
	c60.374-18.118,148.019-32.938,211.693-37.983c-2.044-23.384-3.009-46.946-1.945-71.818c-1.064-24.872-0.099-48.433,1.945-71.818
	c-63.674-5.045-151.319-19.865-211.693-37.983c-21.992,28.838-39.076,54.125-53.682,82.044
	C1492.817,580.426,1506.275,589.663,1519.348,599z M1150.955,571.243c-14.607-27.919-31.691-53.206-53.682-82.044
	c-60.374,18.118-148.018,32.938-211.693,37.983c2.044,23.384,3.009,46.946,1.945,71.818c1.064,24.872,0.099,48.433-1.945,71.818
	c63.674,5.045,151.319,19.865,211.693,37.983c21.992-28.838,39.076-54.125,53.682-82.044c-13.772-9.183-27.23-18.42-40.303-27.757
	C1123.725,589.663,1137.183,580.426,1150.955,571.243z"/>
</svg>
