<?xml version="1.0" encoding="utf-8"?>

<!DOCTYPE svg PUBLIC "-//W3C//DTD SVG 1.1//EN" "http://www.w3.org/Graphics/SVG/1.1/DTD/svg11.dtd">
<svg version="1.1" id="Layer_1" xmlns="http://www.w3.org/2000/svg" xmlns:xlink="http://www.w3.org/1999/xlink" x="0px" y="0px"
	 viewBox="0 0 1697.808 1700.508" enable-background="new 0 0 1697.808 1700.508" xml:space="preserve">
<g>
	<path fill="#7b4743" stroke="#7b4743" d="M1613.496,84.39c-17.495-4.688-34.253-6.308-51.223-6.869c-42.801,1.413-84.25,9.572-139.595,56.669
		c10.212,14.543,18.905,33.547,18.905,51.989c0,31.221-31.704,61.939-78.357,61.94c-25.752-1.266-55.481-12.555-72.636-33.831
		c-22.901,6.793-52.21,5.396-58.457,1.244c-25.87,11.941-51.076,20.977-75.621,27.115
		c-167.902,41.96-314.507-70.064-281.463-151.366c15.862-38.987,57.22-46.164,98.133-38.058
		c58.916,11.685,99.392,52.969,88.307,64.054v0.995c-3.628,1.554-6.6,3.902-16.791-0.871c-4.062-1.909-8.415-5.099-13.06-9.578
		c-33.238-29.705-52.785-57.569-94.277-52.984c-12.469,1.397-22.934,2.61-33.084,9.204c-41.259,26.824-45.44,90.015,31.467,141.292
		c52.983,35.321,131.965,52.83,216.166,33.332c23.631-5.473,47.97-13.848,73.008-25.125c-29.518-10.275-52.984-45.047-52.984-76.366
		c0-51.749,54.338-73.382,106.715-73.382c47.35,0,90.865,18.47,123.63,47.014c3.321,3.321,3.153,4.451,5.97,6.468
		c70.024-35.923,114.777-45.71,154.023-45.942c17.339,0.102,35.753,2.07,56.947,7.333c5.263,21.194,7.23,39.608,7.333,56.947
		c-0.232,39.245-10.019,83.999-45.942,154.023c2.018,2.817,3.147,2.649,6.468,5.97c28.543,32.765,47.014,76.279,47.014,123.63
		c0,52.377-21.633,106.715-73.382,106.715c-31.319,0-66.091-23.466-76.366-52.984c-11.276,25.038-19.651,49.377-25.125,73.008
		c-19.498,84.2-1.988,163.183,33.333,216.166c51.277,76.906,114.468,72.726,141.292,31.467c6.594-10.15,7.807-20.615,9.204-33.084
		c4.585-41.492-23.279-61.038-52.984-94.276c-4.478-4.645-7.669-8.998-9.578-13.06c-4.773-10.19-2.425-13.162-0.871-16.791h0.995
		c11.085-11.085,52.369,29.39,64.054,88.307c8.105,40.913,0.929,82.271-38.058,98.133
		c-81.302,33.045-193.326-113.56-151.367-281.463c6.138-24.545,15.174-49.75,27.115-75.621c-4.153-6.247-5.55-35.556,1.244-58.457
		c-21.276-17.154-32.564-46.883-33.831-72.635c0-46.653,30.719-78.357,61.939-78.357c18.442,0,37.446,8.693,51.989,18.905
		c47.096-55.345,55.255-96.794,56.668-139.595C1619.805,118.643,1618.184,101.886,1613.496,84.39z M1230.642,211.055
		c25.992-11.729,34.262-15.286,48.756-23.134c0-2.974-2.4-16.538,3.607-28.731c8.958-18.197,24.516-23.756,30.223-23.756
		c9.939,0,12.65,9.329,6.219,13.931c-6.436,4.584-15.477,6.078-23.383,7.213c-11.9,5.005-12.935,16.329-12.935,29.105
		c62.028-33.372,72.835-41.784,121.391-66.666c-31.99-36.686-90.72-42.615-137.933-29.228
		c-41.701,11.81-95.282,46.091-79.228,85.571c4.474,10.992,13.174,20.013,23.258,26.74
		C1216.339,205.912,1223.016,208.897,1230.642,211.055z M1495.788,487.269c6.727,10.084,15.748,18.784,26.74,23.258
		c39.48,16.054,73.761-37.527,85.571-79.228c13.386-47.213,7.457-105.943-29.228-137.933
		c-24.882,48.556-33.295,59.363-66.666,121.391c12.776,0,24.1-1.035,29.105-12.935c1.135-7.905,2.629-16.947,7.213-23.383
		c4.602-6.431,13.931-3.721,13.931,6.219c0,5.707-5.559,21.265-23.756,30.223c-12.193,6.007-25.757,3.607-28.731,3.607
		c-7.847,14.494-11.405,22.764-23.134,48.756C1488.99,474.871,1491.975,481.548,1495.788,487.269z M1238.851,212.796
		c11.099,2.918,30.042,3.126,48.755-2.488c-2.93-5.541-5.786-11.865-7.462-17.91
		C1266.823,199.865,1252.955,206.603,1238.851,212.796z M1505.489,417.743c-6.045-1.676-12.369-4.532-17.91-7.462
		c-5.614,18.713-5.406,37.656-2.488,48.755C1491.285,444.932,1498.022,431.064,1505.489,417.743z M1292.084,209.065
		c57.167-17.249,116.954-73.41,124.376-76.367c-3.97-4.412-4.277-5.586-8.209-9.95c-53.792,27.773-66.264,38.255-124.376,68.407
		C1285.673,197.277,1288.779,203.665,1292.084,209.065z M1506.733,414.012c30.151-58.112,40.633-70.585,68.407-124.376
		c-4.363-3.932-5.538-4.239-9.949-8.209c-2.957,7.422-59.118,67.21-76.367,124.376
		C1494.223,409.108,1500.61,412.214,1506.733,414.012z M1419.694,136.18c-2.183,0.865-1.762,1.591-3.98,2.487
		c-35.184,28.14-77.382,61.421-120.396,74.874c28.488,32.052,87.894,41.851,122.635,10.323
		C1445.229,199.096,1439.966,166.609,1419.694,136.18z M1474.022,279.935c-31.528,34.741-21.729,94.147,10.323,122.635
		c13.453-43.014,46.734-85.212,74.874-120.396c0.896-2.218,1.622-1.797,2.487-3.98
		C1531.278,257.921,1498.791,252.658,1474.022,279.935z M1468.199,95.882c-14.703,5.156-28.17,11.095-56.218,25.372
		c4.167,4.692,5.553,6.121,7.712,9.204C1432.88,118.66,1450.681,105.505,1468.199,95.882z M1567.428,278.193
		c3.082,2.159,4.511,3.545,9.204,7.712c14.277-28.048,20.216-41.514,25.372-56.218
		C1592.382,247.206,1579.227,265.007,1567.428,278.193z"/>
	<path fill="#7b4743" stroke="#7b4743" d="M84.312,1616.118c17.495,4.688,34.253,6.308,51.223,6.869c42.801-1.413,84.25-9.572,139.595-56.668
		c-10.212-14.543-18.905-33.547-18.905-51.989c0-31.221,31.704-61.939,78.357-61.939c25.752,1.266,55.481,12.555,72.635,33.83
		c22.901-6.793,52.21-5.396,58.457-1.244c25.87-11.941,51.076-20.977,75.621-27.115c167.902-41.96,314.507,70.064,281.463,151.366
		c-15.862,38.987-57.22,46.164-98.133,38.058c-58.916-11.685-99.392-52.969-88.307-64.054v-0.995
		c3.628-1.554,6.6-3.902,16.791,0.871c4.062,1.909,8.415,5.099,13.06,9.578c33.238,29.705,52.785,57.569,94.277,52.984
		c12.469-1.397,22.934-2.61,33.084-9.204c41.259-26.824,45.44-90.015-31.467-141.292c-52.983-35.321-131.965-52.831-216.166-33.333
		c-23.631,5.473-47.97,13.848-73.008,25.125c29.518,10.275,52.984,45.047,52.984,76.366c0,51.749-54.338,73.382-106.715,73.382
		c-47.35,0-90.865-18.47-123.63-47.014c-3.321-3.321-3.153-4.451-5.97-6.468c-70.024,35.923-114.777,45.71-154.023,45.942
		c-17.339-0.102-35.753-2.07-56.947-7.333c-5.263-21.194-7.23-39.608-7.333-56.947c0.232-39.245,10.019-83.999,45.942-154.023
		c-2.018-2.817-3.147-2.649-6.468-5.97c-28.543-32.765-47.014-76.279-47.014-123.63c0-52.377,21.633-106.715,73.382-106.715
		c31.319,0,66.091,23.466,76.366,52.984c11.276-25.038,19.651-49.377,25.125-73.008c19.498-84.2,1.988-163.183-33.333-216.166
		c-51.277-76.906-114.468-72.726-141.292-31.467c-6.594,10.15-7.807,20.615-9.204,33.084c-4.585,41.492,23.279,61.038,52.984,94.276
		c4.478,4.645,7.669,8.998,9.578,13.06c4.773,10.19,2.425,13.162,0.871,16.791h-0.995c-11.085,11.085-52.369-29.39-64.054-88.307
		c-8.106-40.913-0.929-82.271,38.058-98.133c81.302-33.045,193.326,113.56,151.367,281.463
		c-6.137,24.545-15.174,49.75-27.115,75.621c4.153,6.247,5.55,35.556-1.244,58.457c21.276,17.154,32.564,46.883,33.831,72.635
		c0,46.653-30.719,78.357-61.939,78.357c-18.442,0-37.446-8.693-51.989-18.905c-47.096,55.345-55.255,96.794-56.668,139.595
		C78.003,1581.865,79.624,1598.622,84.312,1616.118z M467.166,1489.453c-25.992,11.729-34.262,15.286-48.756,23.134
		c0,2.974,2.4,16.538-3.607,28.731c-8.958,18.197-24.516,23.756-30.223,23.756c-9.939,0-12.65-9.329-6.219-13.931
		c6.436-4.584,15.477-6.078,23.383-7.213c11.9-5.005,12.935-16.329,12.935-29.105c-62.028,33.371-72.835,41.785-121.391,66.666
		c31.99,36.686,90.72,42.615,137.933,29.228c41.701-11.81,95.282-46.091,79.227-85.571c-4.474-10.992-13.174-20.013-23.258-26.74
		C481.469,1494.596,474.792,1491.611,467.166,1489.453z M202.02,1213.239c-6.727-10.084-15.748-18.784-26.74-23.258
		c-39.48-16.054-73.761,37.527-85.571,79.228c-13.386,47.213-7.457,105.943,29.228,137.933
		c24.882-48.556,33.295-59.363,66.666-121.391c-12.776,0-24.1,1.035-29.105,12.935c-1.135,7.905-2.629,16.947-7.213,23.383
		c-4.602,6.431-13.931,3.721-13.931-6.219c0-5.707,5.559-21.265,23.756-30.223c12.193-6.007,25.757-3.607,28.731-3.607
		c7.847-14.494,11.405-22.764,23.134-48.756C208.818,1225.638,205.833,1218.96,202.02,1213.239z M458.957,1487.712
		c-11.099-2.918-30.042-3.126-48.755,2.488c2.93,5.541,5.786,11.865,7.462,17.91
		C430.985,1500.643,444.853,1493.906,458.957,1487.712z M192.319,1282.765c6.045,1.677,12.369,4.532,17.91,7.462
		c5.614-18.713,5.406-37.656,2.488-48.755C206.523,1255.576,199.786,1269.444,192.319,1282.765z M405.724,1491.444
		c-57.167,17.249-116.954,73.41-124.376,76.367c3.97,4.412,4.277,5.586,8.209,9.949c53.792-27.773,66.264-38.255,124.376-68.407
		C412.135,1503.231,409.029,1496.844,405.724,1491.444z M191.075,1286.496c-30.152,58.112-40.634,70.585-68.407,124.376
		c4.363,3.932,5.538,4.239,9.95,8.209c2.957-7.422,59.118-67.209,76.367-124.376
		C203.585,1291.401,197.198,1288.294,191.075,1286.496z M278.114,1564.328c2.183-0.865,1.762-1.591,3.98-2.487
		c35.184-28.14,77.382-61.421,120.396-74.874c-28.488-32.052-87.894-41.851-122.635-10.323
		C252.579,1501.412,257.842,1533.899,278.114,1564.328z M223.786,1420.573c31.528-34.741,21.729-94.147-10.323-122.635
		c-13.453,43.014-46.734,85.212-74.874,120.396c-0.896,2.218-1.622,1.797-2.487,3.98
		C166.53,1442.587,199.017,1447.85,223.786,1420.573z M229.609,1604.626c14.703-5.156,28.17-11.095,56.218-25.372
		c-4.167-4.692-5.553-6.121-7.712-9.204C264.928,1581.848,247.127,1595.003,229.609,1604.626z M130.38,1422.315
		c-3.082-2.159-4.512-3.545-9.204-7.712c-14.277,28.048-20.216,41.514-25.372,56.218
		C105.426,1453.302,118.581,1435.502,130.38,1422.315z"/>
	<path fill="#7b4743" stroke="#7b4743" d="M1613.497,1616.117c-17.495,4.688-34.253,6.308-51.222,6.869c-42.801-1.413-84.25-9.572-139.595-56.668
		c10.212-14.542,18.905-33.547,18.905-51.989c0-31.22-31.704-61.939-78.357-61.939c-25.752,1.266-55.481,12.555-72.635,33.831
		c-22.901-6.793-52.21-5.396-58.457-1.244c-25.87-11.94-51.076-20.977-75.621-27.115
		c-167.902-41.959-314.507,70.064-281.463,151.367c15.862,38.987,57.22,46.164,98.133,38.058
		c58.916-11.685,99.392-52.969,88.307-64.054v-0.995c-3.628-1.554-6.6-3.902-16.791,0.871c-4.062,1.909-8.415,5.099-13.06,9.578
		c-33.238,29.705-52.785,57.569-94.277,52.984c-12.469-1.397-22.934-2.61-33.084-9.204c-41.259-26.824-45.44-90.015,31.467-141.292
		c52.983-35.321,131.965-52.831,216.166-33.333c23.631,5.473,47.97,13.848,73.008,25.125
		c-29.518,10.275-52.984,45.047-52.984,76.366c0,51.749,54.338,73.382,106.715,73.382c47.35,0,90.865-18.47,123.63-47.014
		c3.321-3.321,3.153-4.451,5.97-6.468c70.024,35.922,114.777,45.71,154.023,45.942c17.339-0.102,35.753-2.07,56.947-7.333
		c5.263-21.194,7.23-39.608,7.333-56.947c-0.232-39.245-10.019-83.999-45.942-154.023c2.018-2.817,3.147-2.649,6.468-5.97
		c28.543-32.765,47.014-76.279,47.014-123.63c0-52.377-21.633-106.715-73.382-106.715c-31.319,0-66.091,23.466-76.366,52.984
		c-11.276-25.038-19.651-49.377-25.125-73.008c-19.498-84.2-1.988-163.183,33.332-216.166
		c51.277-76.906,114.468-72.726,141.292-31.467c6.594,10.15,7.807,20.615,9.204,33.084c4.585,41.492-23.279,61.038-52.984,94.277
		c-4.478,4.645-7.669,8.998-9.578,13.06c-4.773,10.19-2.425,13.162-0.871,16.791h0.995c11.085,11.085,52.369-29.39,64.054-88.307
		c8.105-40.913,0.929-82.271-38.058-98.133c-81.302-33.044-193.326,113.561-151.366,281.463
		c6.138,24.545,15.174,49.75,27.115,75.621c-4.153,6.247-5.55,35.556,1.244,58.457c-21.276,17.154-32.564,46.883-33.831,72.635
		c0,46.653,30.719,78.357,61.94,78.357c18.442,0,37.446-8.693,51.989-18.905c47.096,55.345,55.255,96.794,56.669,139.595
		C1619.806,1581.864,1618.185,1598.621,1613.497,1616.117z M1230.643,1489.453c25.992,11.729,34.262,15.286,48.756,23.134
		c0,2.974-2.4,16.538,3.607,28.731c8.958,18.197,24.516,23.756,30.223,23.756c9.939,0,12.65-9.329,6.219-13.931
		c-6.436-4.584-15.477-6.078-23.383-7.213c-11.9-5.005-12.935-16.329-12.935-29.105c62.028,33.371,72.835,41.784,121.391,66.666
		c-31.99,36.686-90.72,42.615-137.933,29.228c-41.701-11.81-95.282-46.091-79.228-85.571c4.474-10.992,13.174-20.013,23.258-26.74
		C1216.34,1494.595,1223.017,1491.61,1230.643,1489.453z M1495.788,1213.238c6.727-10.084,15.748-18.784,26.74-23.258
		c39.48-16.054,73.761,37.527,85.571,79.227c13.386,47.213,7.458,105.943-29.228,137.933
		c-24.882-48.556-33.295-59.363-66.666-121.391c12.776,0,24.1,1.035,29.105,12.935c1.135,7.905,2.629,16.947,7.213,23.383
		c4.602,6.431,13.931,3.721,13.931-6.219c0-5.707-5.559-21.265-23.756-30.223c-12.193-6.007-25.757-3.607-28.731-3.607
		c-7.847-14.494-11.405-22.764-23.134-48.756C1488.99,1225.637,1491.976,1218.959,1495.788,1213.238z M1238.851,1487.711
		c11.099-2.918,30.042-3.126,48.755,2.488c-2.93,5.541-5.786,11.865-7.462,17.91
		C1266.824,1500.642,1252.956,1493.905,1238.851,1487.711z M1505.49,1282.764c-6.045,1.676-12.369,4.532-17.91,7.462
		c-5.614-18.713-5.406-37.656-2.488-48.755C1491.285,1255.576,1498.022,1269.444,1505.49,1282.764z M1292.084,1491.443
		c57.167,17.249,116.955,73.41,124.376,76.367c-3.97,4.412-4.277,5.587-8.209,9.95c-53.792-27.773-66.264-38.255-124.376-68.407
		C1285.674,1503.231,1288.78,1496.843,1292.084,1491.443z M1506.733,1286.495c30.152,58.112,40.634,70.585,68.407,124.376
		c-4.363,3.932-5.538,4.239-9.95,8.209c-2.957-7.422-59.118-67.209-76.367-124.376
		C1494.223,1291.4,1500.611,1288.294,1506.733,1286.495z M1419.695,1564.327c-2.183-0.865-1.762-1.591-3.98-2.487
		c-35.184-28.14-77.382-61.421-120.396-74.874c28.488-32.052,87.894-41.851,122.635-10.323
		C1445.23,1501.411,1439.967,1533.899,1419.695,1564.327z M1474.023,1420.573c-31.528-34.741-21.729-94.147,10.323-122.635
		c13.453,43.014,46.734,85.212,74.874,120.396c0.896,2.218,1.622,1.797,2.487,3.98
		C1531.279,1442.586,1498.792,1447.849,1474.023,1420.573z M1468.2,1604.625c-14.703-5.156-28.17-11.095-56.218-25.372
		c4.167-4.693,5.553-6.122,7.712-9.204C1432.881,1581.847,1450.682,1595.002,1468.2,1604.625z M1567.429,1422.314
		c3.082-2.159,4.511-3.545,9.204-7.712c14.277,28.048,20.216,41.514,25.372,56.218
		C1592.383,1453.301,1579.228,1435.501,1567.429,1422.314z"/>
	<path fill="#7b4743" stroke="#7b4743" d="M84.311,84.391c17.495-4.688,34.253-6.308,51.223-6.869c42.801,1.413,84.25,9.572,139.595,56.668
		c-10.212,14.543-18.905,33.547-18.905,51.989c0,31.221,31.705,61.939,78.357,61.939c25.752-1.266,55.481-12.555,72.635-33.831
		c22.901,6.793,52.21,5.396,58.457,1.244c25.87,11.941,51.076,20.977,75.621,27.115c167.902,41.959,314.507-70.064,281.463-151.367
		c-15.862-38.987-57.22-46.164-98.133-38.058c-58.916,11.685-99.392,52.969-88.307,64.054v0.995c3.628,1.554,6.6,3.902,16.791-0.871
		c4.062-1.909,8.415-5.099,13.06-9.578c33.238-29.705,52.784-57.569,94.276-52.984c12.469,1.397,22.934,2.61,33.084,9.204
		c41.259,26.824,45.44,90.015-31.467,141.292c-52.983,35.321-131.965,52.831-216.166,33.333
		c-23.631-5.473-47.97-13.848-73.008-25.125c29.518-10.275,52.984-45.047,52.984-76.366c0-51.749-54.338-73.382-106.715-73.382
		c-47.35,0-90.865,18.47-123.63,47.014c-3.321,3.321-3.153,4.451-5.97,6.468c-70.024-35.923-114.778-45.71-154.023-45.942
		c-17.339,0.102-35.753,2.07-56.947,7.333c-5.263,21.194-7.23,39.608-7.333,56.947c0.232,39.245,10.019,83.999,45.942,154.023
		c-2.018,2.817-3.147,2.649-6.468,5.97c-28.543,32.765-47.014,76.279-47.014,123.63c0,52.377,21.633,106.715,73.382,106.715
		c31.319,0,66.091-23.466,76.366-52.984c11.276,25.038,19.651,49.377,25.125,73.008c19.498,84.2,1.988,163.183-33.332,216.166
		c-51.277,76.906-114.468,72.726-141.292,31.467c-6.594-10.15-7.807-20.615-9.204-33.084c-4.585-41.492,23.279-61.038,52.984-94.277
		c4.478-4.645,7.669-8.998,9.578-13.06c4.773-10.19,2.425-13.162,0.871-16.791h-0.995c-11.085-11.085-52.369,29.39-64.054,88.307
		c-8.105,40.913-0.929,82.271,38.058,98.133c81.303,33.044,193.326-113.561,151.366-281.463
		c-6.138-24.545-15.174-49.75-27.115-75.621c4.153-6.247,5.55-35.556-1.244-58.457c21.276-17.154,32.564-46.883,33.831-72.635
		c0-46.653-30.719-78.357-61.939-78.357c-18.442,0-37.446,8.693-51.989,18.905c-47.096-55.345-55.255-96.794-56.669-139.595
		C78.002,118.644,79.623,101.887,84.311,84.391z M467.165,211.055c-25.992-11.729-34.262-15.286-48.756-23.134
		c0-2.974,2.4-16.538-3.607-28.731c-8.958-18.197-24.516-23.756-30.223-23.756c-9.939,0-12.65,9.329-6.219,13.931
		c6.436,4.584,15.477,6.078,23.383,7.213c11.9,5.005,12.935,16.329,12.935,29.105c-62.028-33.371-72.835-41.784-121.391-66.666
		c31.99-36.686,90.72-42.615,137.933-29.228c41.701,11.81,95.282,46.091,79.228,85.571c-4.474,10.992-13.174,20.013-23.258,26.74
		C481.468,205.913,474.791,208.898,467.165,211.055z M202.019,487.27c-6.727,10.084-15.748,18.784-26.74,23.258
		c-39.48,16.054-73.761-37.527-85.571-79.227c-13.387-47.213-7.458-105.943,29.228-137.933
		c24.882,48.556,33.295,59.363,66.666,121.391c-12.776,0-24.1-1.035-29.105-12.935c-1.135-7.905-2.629-16.947-7.213-23.383
		c-4.602-6.431-13.931-3.721-13.931,6.219c0,5.707,5.559,21.265,23.756,30.223c12.193,6.007,25.757,3.607,28.731,3.607
		c7.847,14.494,11.405,22.764,23.134,48.756C208.818,474.872,205.832,481.549,202.019,487.27z M458.957,212.797
		c-11.099,2.918-30.042,3.126-48.755-2.488c2.93-5.541,5.786-11.865,7.462-17.91C430.984,199.866,444.852,206.603,458.957,212.797z
		 M192.318,417.744c6.045-1.676,12.369-4.532,17.91-7.462c5.614,18.713,5.406,37.656,2.488,48.755
		C206.523,444.933,199.785,431.065,192.318,417.744z M405.724,209.065c-57.167-17.249-116.955-73.41-124.376-76.367
		c3.97-4.412,4.277-5.586,8.209-9.95c53.792,27.773,66.264,38.255,124.376,68.407C412.134,197.277,409.028,203.665,405.724,209.065z
		 M191.075,414.013c-30.152-58.112-40.634-70.585-68.407-124.376c4.363-3.932,5.538-4.239,9.95-8.209
		c2.957,7.422,59.118,67.209,76.367,124.376C203.585,409.108,197.197,412.215,191.075,414.013z M278.113,136.181
		c2.183,0.865,1.762,1.591,3.98,2.487c35.185,28.14,77.383,61.421,120.396,74.874c-28.488,32.052-87.894,41.851-122.635,10.323
		C252.578,199.097,257.841,166.61,278.113,136.181z M223.785,279.936c31.528,34.741,21.729,94.147-10.323,122.635
		c-13.453-43.014-46.734-85.212-74.874-120.396c-0.896-2.218-1.622-1.797-2.487-3.98
		C166.529,257.922,199.017,252.659,223.785,279.936z M229.607,95.883c14.703,5.156,28.17,11.095,56.218,25.372
		c-4.167,4.692-5.553,6.121-7.712,9.204C264.927,118.661,247.126,105.506,229.607,95.883z M130.379,278.194
		c-3.082,2.159-4.512,3.545-9.204,7.712c-14.277-28.048-20.216-41.514-25.372-56.218
		C105.425,247.207,118.58,265.008,130.379,278.194z"/>
</g>
</svg>
