<svg xmlns="http://www.w3.org/2000/svg" viewBox="-53 -53 106 116">
      <mask id="Clip0001">
        <g fill="#fff">
          <path d="M-50-50v36c0 60 50 74 50 74s50-14 50-74v-36z"></path>
        </g>
      </mask>
      <path
        fill="none"
        stroke="#000"
        d="M-50-50v36c0 60 50 74 50 74s50-14 50-74v-36z"
      ></path>
      <defs>
        <pattern
          id="ermine0003"
          width="15"
          height="15"
          patternContentUnits="userSpaceOnUse"
          patternUnits="userSpaceOnUse"
        >
          <path fill="#6c322e" d="M0 0H15V15H0z"></path>
          <path fill="#6c322e" d="M1 5c1-1 1.5-4 1.5-4S3 4 4 5L2.5 6.5z"></path>
          <circle cx="1.5" cy="2" r="0.5" fill="#ff0"></circle>
          <circle cx="2.5" cy="1" r="0.5" fill="#ff0"></circle>
          <circle cx="3.5" cy="2" r="0.5" fill="#ff0"></circle>
          <path
            fill="#6c322e"
            d="M8.5 12.5c1-1 1.5-4 1.5-4s.5 3 1.5 4L10 14z"
          ></path>
          <circle cx="9" cy="9.5" r="0.5" fill="#ff0"></circle>
          <circle cx="10" cy="8.5" r="0.5" fill="#ff0"></circle>
          <circle cx="11" cy="9.5" r="0.5" fill="#ff0"></circle>
        </pattern>
      </defs>
      <g mask="url(#Clip0001)">
        <path fill="url(#ermine0003)" d="M-50 -50H50V60H-50z"></path>
      </g>
    </svg>