<svg xmlns="http://www.w3.org/2000/svg" viewBox="0 0 744.09 1052.4">
      <g>
        <g
          stroke="#c0ac2b"
          transform="matrix(2.7186 -1.8786 1.8786 2.7186 -1824.6 -395.8)"
        >
          <path
            fill="#fff"
            strokeLinejoin="round"
            strokeWidth="1.564"
            d="M426.37 544.22l12.05 8.32c-5.85 4.35-6.92 6.66-8.54 12.37l-94.29 136.87c-10.15 14.7-15.18 20.55-27.69 27.21 1.75-13.73 5.09-20.26 15.63-35.53l94.3-136.87c4.6-3.41 6.44-4.96 8.54-12.37z"
          ></path>
          <path
            fill="#fff"
            fillRule="evenodd"
            strokeWidth="1.564"
            d="M308.14 728.98L420.17 566.7"
          ></path>
          <path
            fill="#fff"
            strokeLinejoin="round"
            strokeWidth="1.564"
            d="M462.39 490.29c3.24-.76 8.17 2.37 8.64 2.67.49.3 4.91 3.75 5.25 7.12-.31 2.85-9.53 8.83-11.55 9.99-2.56-4.05-2.71-4.28-7.47-5.41.25-1.95 2.08-12.64 5.13-14.37z"
          ></path>
          <path
            fill="#fff"
            fillRule="evenodd"
            strokeWidth="1.5"
            d="M429.68 542.03c2.77 4.23 7.3 6.33 10.15 5.78l25.16-37.69c-1.43-3.7-4.54-5.46-7.94-5.65l-27.37 37.56z"
          ></path>
          <path
            fill="#fff"
            fillRule="evenodd"
            strokeWidth="1.564"
            d="M415.08 560.46c2.06 1.79 4.53 4.23 4.97 6.41 2.35-.31 5 .93 7.15 1.96"
          ></path>
          <path
            fill="#fff"
            strokeLinejoin="round"
            strokeWidth="1.564"
            d="M430.3 542.45c2.84 4.33 4.54 5.43 9.53 6.49 7.16 4.95 15.58 19.65 14.01 20.43l-8.91 1.7c.28-9.72-5.71-19.9-15.25-17.55-1.06-9.42-12.71-11.76-23.24-9.04l-.76-8.96c.17-1.26 17.57 2.07 24.62 6.93zm-24.57-7.12c12.38-.39 19.09 1.53 24.55 5.29M454 568.35c-4.03-11.7-8.21-17.3-13.66-21.07"
          ></path>
          <path
            fill="#fff"
            strokeLinejoin="round"
            strokeWidth="1.564"
            d="M428.95 541.23c-.14-.13-.31-.2-.48-.28-.14-.09-.29-.13-.45-.19-.15-.07-.28-.16-.42-.25-.16-.1-.31-.21-.46-.32-.17-.11-.33-.22-.47-.36-.15-.15-.32-.28-.49-.4-.16-.12-.3-.27-.45-.4-.13-.13-.3-.2-.46-.28-.18-.06-.37-.09-.54-.17-.18-.09-.38-.11-.58-.12-.18-.04-.37-.07-.55-.12-.16-.08-.33-.13-.48-.2-.18-.03-.35-.09-.53-.14-.09-.01-.17-.06-.26-.09-.08-.03-.16-.04-.24-.07-.16-.09-.34-.15-.51-.23-.16-.11-.34-.14-.52-.19-.2-.05-.39-.13-.59-.2-.18-.06-.36-.11-.53-.2-.21-.04-.41-.07-.62-.14-.16-.06-.32-.1-.48-.18-.15-.02-.27-.11-.42-.11-.17 0-.3-.1-.45-.14-.18-.06-.35-.1-.53-.15-1.09-.04 4.32.31-.27-.02-.39-.03.79.07 1.19.1.05.01-.12 0-.18-.01-.02.01-.05.01-.08.01-.45-.04-.9-.07-1.35-.11-.03 0-.05-.02-.08-.02-.08-.02-.16-.04-.24-.04-.02-.01-.1-.02-.07-.01.4.03.81.06 1.21.1h-.07c-.24-.02-1.04-.04-1.51-.14 3.18.27-.1 0-.15 0a1.71 1.71 0 01-.3-.09c-.08-.03-.16-.04-.24-.05l1.3-.09c.08.02.16.05.23.07.08.02.16.04.24.05.02.01.1.01.07.01-1.23-.1-2.09-.17.15.01.11.02.16.02.16.02-2.6-.19-.49-.05.28.02.08.02.16.04.24.05.02.01.1.01.07.01-1.28-.09-1.6-.1-1.12-.09.46-.04 1.45.1 1.55.11.39.03-1.58-.13-1.19-.09 1.48.13.92 0 1.46.12.17.05.35.1.52.16.15.06.3.11.46.12.14.04.28.09.42.15.16.06.32.1.48.16.2.06.42.07.61.16.18.07.36.12.53.18.2.07.39.15.6.2.18.05.35.11.51.2.18.08.35.15.52.22.17.05.33.11.5.16s.36.08.53.15c.15.07.31.13.47.18.19.04.37.08.55.1.2.03.4.07.58.16.18.06.38.09.55.18.17.08.32.18.46.31s.28.28.44.39c.17.13.34.27.5.42.14.13.3.23.46.34.15.11.31.21.47.32.13.08.27.16.42.22.16.05.3.13.44.2.18.09.34.19.5.3l-1.31.03z"
          ></path>
          <path
            fill="#fff"
            strokeLinejoin="round"
            strokeWidth="1.564"
            d="M440.46 548.01c.1.1.21.18.32.26.09.08.18.16.27.23.08.07.18.13.25.21.06.08.13.15.2.22.06.06.13.13.2.18.07.06.14.11.21.17.05.07.13.11.19.18.04.05.09.08.13.12.03.03.05.07.08.1.07.09.14.18.22.26.06.08.14.15.21.22.08.08.13.17.2.26s.14.18.22.27c.09.07.15.18.22.27s.14.19.22.28c.05.08.13.13.2.19.09.05.16.12.23.19s.15.12.23.18.16.11.25.15.17.1.26.15c.08.05.16.11.24.17l.27.18.29.2c.09.07.19.13.29.2.08.06.16.11.24.17.09.06.17.14.25.21.08.1.16.2.23.3.05.1.14.16.21.24.07.09.13.19.18.29.06.12.11.26.16.39.04.13.09.26.14.39.04.15.1.28.17.42.04.09.08.18.13.27.05.1.12.19.16.28.05.12.12.21.19.31.1.12.15.25.24.36.08.12.17.23.27.32.08.09.14.19.21.28.06.09.14.17.22.25.07.08.15.14.21.21.04.07.08.14.13.21l-.65-.01c-.04-.06-.08-.14-.13-.2-.07-.07-.13-.14-.2-.21a1.94 1.94 0 01-.23-.26c-.06-.09-.12-.18-.2-.26-.1-.11-.19-.22-.28-.33-.08-.12-.13-.25-.23-.36-.07-.1-.14-.21-.19-.32-.05-.1-.12-.19-.16-.28-.05-.09-.09-.19-.13-.28-.07-.14-.12-.28-.17-.42-.05-.13-.11-.26-.14-.39-.05-.14-.1-.27-.17-.39-.05-.09-.1-.19-.17-.27-.08-.07-.16-.15-.22-.24-.07-.11-.14-.21-.23-.29-.08-.07-.15-.15-.24-.2-.08-.06-.17-.12-.25-.17-.09-.07-.19-.14-.29-.2-.09-.07-.19-.14-.29-.2-.09-.06-.17-.13-.26-.19-.08-.05-.17-.11-.25-.16s-.17-.1-.26-.14c-.09-.05-.17-.11-.24-.16-.08-.06-.16-.12-.24-.19a2.11 2.11 0 00-.23-.19c-.07-.06-.14-.12-.2-.2-.07-.1-.14-.19-.22-.28-.06-.1-.13-.19-.22-.28-.07-.08-.15-.17-.21-.27-.07-.08-.13-.17-.21-.25-.07-.07-.14-.14-.21-.22-.08-.08-.15-.17-.22-.26-.06-.08-.14-.14-.21-.22-.07-.05-.13-.11-.19-.17-.07-.06-.15-.11-.21-.17-.07-.06-.13-.12-.19-.18-.08-.07-.14-.15-.21-.23-.07-.07-.17-.13-.25-.2-.09-.07-.17-.15-.25-.22-.12-.09-.24-.18-.35-.28h.66z"
          ></path>
          <path
            fill="#fff"
            strokeLinejoin="round"
            strokeWidth="1.564"
            d="M432.49 539.68c.14.11.29.22.44.3.05.03.1.05.15.07.33.15.67.29.99.45.07.03.13.06.2.09.13.05.35.13.48.18.31.12.61.23.92.34.77.27 1.55.5 2.32.77.59.17 1.16.39 1.74.58.26.09.52.17.77.26.38.14.78.24 1.16.37-1.59-.44-.74-.18-.37-.13.08.02.21.03.3.03.11.02.22.01.33.01l.92.38c-.11 0-.23 0-.35-.01-.22-.02-.07-.01-.31-.03-.05 0-.1 0-.15-.01s-.09-.02-.14-.04c-.77-.17 2.06.54-1.21-.3-.35-.11-.7-.23-1.04-.36-.83-.29-1.65-.57-2.49-.84-.78-.27-1.57-.51-2.36-.78-.56-.19-1.12-.38-1.66-.62-.34-.16-.67-.3-1.01-.45-.05-.03-.11-.05-.16-.08-.17-.09-.33-.22-.49-.31l1.02.13z"
          ></path>
          <path
            fill="#fff"
            strokeLinejoin="round"
            strokeWidth="1.564"
            d="M434.98 536.33c.14.11.28.22.44.3.04.03.1.05.15.07.33.15.66.29.99.45.06.03.13.06.19.09.13.06.36.14.49.18.3.12.6.23.91.34.77.27 1.55.5 2.32.77.59.18 1.16.39 1.74.58.26.09.52.17.78.26.38.14.77.24 1.15.37-1.59-.43-.73-.18-.37-.12.09.01.22.02.3.03.11.01.22.01.33 0l.93.38c-.12 0-.24 0-.36-.01-.22-.02-.07-.01-.3-.03-.05 0-.11 0-.16-.01l-.13-.03c-.78-.18 2.05.53-1.22-.31-.35-.11-.7-.23-1.04-.36-.82-.29-1.65-.57-2.48-.84-.79-.27-1.58-.5-2.36-.78-.56-.19-1.13-.38-1.67-.62-.33-.16-.67-.3-1-.45-.06-.03-.12-.05-.17-.08-.17-.09-.32-.21-.49-.31l1.03.13z"
          ></path>
          <path
            fill="#fff"
            strokeLinejoin="round"
            strokeWidth="1.503"
            d="M437.24 533.24c.14.1.28.2.43.29.04.02.09.04.14.06.32.14.64.28.95.43.07.03.13.06.19.09l.47.18c.29.1.58.21.88.31.74.26 1.49.49 2.23.75.56.17 1.11.37 1.67.56l.75.24c.36.14.74.24 1.11.36-1.53-.42-.71-.17-.36-.12.08.01.21.02.29.03.1.01.21.01.31.01l.9.36c-.12 0-.23 0-.34-.01-.22-.02-.08 0-.3-.02-.05-.01-.1-.01-.15-.02-.04-.01-.08-.02-.13-.03-.75-.17 1.98.52-1.17-.3-.33-.1-.67-.22-1-.34-.79-.28-1.58-.55-2.38-.81-.76-.26-1.52-.48-2.27-.74-.54-.19-1.09-.37-1.61-.61l-.96-.42c-.05-.03-.11-.05-.16-.08-.16-.09-.31-.21-.47-.3l.98.13z"
          ></path>
          <path
            fill="#fff"
            strokeLinejoin="round"
            strokeWidth="1.564"
            d="M439.69 530.2c.13.09.26.2.41.27.04.02.09.04.14.06.3.13.61.26.91.39.06.03.12.06.19.09.12.05.33.12.45.16.28.1.56.19.85.29.71.23 1.44.42 2.16.66.54.15 1.08.33 1.62.5l.72.21c.35.13.72.21 1.08.32-1.49-.36-.69-.14-.35-.11.08.01.2.02.28.02.1.01.2 0 .31 0l.86.33c-.11 0-.22.01-.33 0-.21-.01-.07 0-.29-.01-.05-.01-.1 0-.15-.01l-.12-.03c-.73-.14 1.91.45-1.14-.25-.33-.09-.65-.2-.97-.31-.77-.25-1.53-.49-2.31-.72-.73-.23-1.47-.43-2.2-.66-.52-.16-1.04-.33-1.55-.54-.3-.14-.62-.26-.92-.4a.774.774 0 01-.16-.07c-.16-.08-.29-.2-.45-.28l.96.09z"
          ></path>
          <path
            fill="#fff"
            strokeLinejoin="round"
            strokeWidth="1.564"
            d="M442.17 526.84c.13.09.26.19.4.27.05.02.1.04.14.06.31.13.62.25.92.39l.18.09c.12.05.33.12.45.16.29.1.57.19.85.29.72.23 1.45.42 2.17.65.54.16 1.07.34 1.61.51l.72.21c.36.13.72.21 1.08.32-1.48-.36-.69-.14-.34-.11.07.01.2.02.28.02.1.01.2 0 .3 0l.87.33c-.11 0-.23.01-.34 0-.21-.01-.07 0-.28-.01-.05-.01-.1-.01-.15-.01l-.13-.03c-.73-.14 1.92.45-1.13-.25-.33-.09-.65-.2-.97-.31-.77-.25-1.54-.49-2.31-.72-.73-.23-1.47-.43-2.2-.66-.52-.16-1.05-.33-1.55-.54-.31-.14-.62-.26-.93-.4-.05-.02-.1-.04-.15-.07-.16-.08-.3-.2-.45-.29l.96.1z"
          ></path>
          <path
            fill="#fff"
            strokeLinejoin="round"
            strokeWidth="1.564"
            d="M444.16 523.53c.12.1.25.2.4.28.04.02.09.04.14.06.31.13.61.25.91.39.07.03.13.06.19.08.12.05.33.12.45.17.28.09.56.19.85.28.71.24 1.44.43 2.16.66.55.15 1.08.34 1.62.5.24.08.48.15.72.22.35.12.72.21 1.08.31-1.49-.35-.69-.13-.35-.1.08.01.2.01.28.02.1.01.21 0 .31-.01l.86.33c-.11.01-.22.02-.33.01-.21-.01-.07 0-.29-.02h-.15l-.12-.03c-.73-.14 1.92.44-1.14-.25-.33-.1-.65-.2-.97-.31-.76-.25-1.53-.49-2.31-.72-.73-.23-1.47-.43-2.19-.66-.53-.17-1.05-.33-1.55-.55l-.93-.39c-.05-.02-.11-.05-.16-.07-.15-.09-.29-.2-.45-.29l.97.09z"
          ></path>
          <path
            fill="#fff"
            strokeLinejoin="round"
            strokeWidth="1.564"
            d="M446.93 520.22c.12.09.24.19.37.25.04.03.09.04.13.06.29.12.58.23.87.35.05.03.11.06.17.08.11.04.31.11.42.14.27.09.53.18.8.26.68.2 1.37.37 2.04.57.52.13 1.02.3 1.53.44.23.06.46.13.68.19.34.11.68.18 1.02.27-1.41-.3-.65-.11-.33-.09.08.01.2.01.27.01.1 0 .2-.01.3-.01l.81.29c-.11.01-.22.02-.32.02-.2-.01-.07 0-.27-.01h-.14c-.04-.01-.08-.02-.12-.02-.69-.12 1.81.37-1.08-.22-.31-.08-.61-.17-.91-.27-.73-.21-1.45-.43-2.18-.62-.69-.21-1.39-.38-2.08-.58-.49-.14-.99-.29-1.46-.48-.29-.13-.58-.24-.87-.36-.05-.02-.1-.04-.15-.07-.15-.07-.27-.18-.42-.26l.92.06z"
          ></path>
          <path
            fill="#fff"
            strokeLinejoin="round"
            strokeWidth="1.564"
            d="M449.4 516.85c.12.09.24.19.37.26.05.02.09.03.13.05.29.12.58.23.87.36.05.02.11.05.17.07.11.05.31.11.42.14.27.09.54.18.8.26.68.2 1.37.37 2.05.57.51.13 1.01.3 1.52.44.23.07.46.13.68.19.34.11.68.18 1.02.27-1.4-.3-.65-.11-.32-.09.07.01.19.01.26.01.1 0 .2 0 .3-.01l.81.29c-.11.01-.21.02-.32.02-.2-.01-.07 0-.27-.01h-.14c-.04-.01-.08-.02-.12-.02-.69-.12 1.81.37-1.08-.21-.31-.09-.61-.17-.91-.28-.73-.21-1.45-.43-2.18-.62-.69-.21-1.39-.38-2.08-.58-.49-.14-.99-.29-1.46-.48-.29-.13-.58-.24-.87-.36l-.15-.06c-.14-.08-.27-.19-.42-.27l.92.06z"
          ></path>
          <path
            fill="#fff"
            strokeLinejoin="round"
            strokeWidth="1.564"
            d="M451.4 513.55a1.967 1.967 0 00.51.32c.28.11.57.22.86.35.06.02.11.05.17.07.11.05.31.11.42.15.27.08.54.17.8.25.68.21 1.37.37 2.05.58.51.13 1.01.29 1.52.43.23.07.46.13.69.19.33.11.68.18 1.01.28-1.4-.3-.65-.12-.32-.09h.26c.1.01.2 0 .3-.01l.81.29c-.11.01-.21.03-.32.02h-.27c-.05-.01-.1 0-.14-.01-.04 0-.08-.01-.12-.02-.69-.12 1.82.37-1.08-.21-.31-.08-.61-.17-.91-.27-.72-.22-1.45-.43-2.18-.63-.69-.2-1.39-.37-2.08-.58-.49-.14-.99-.28-1.46-.48-.29-.12-.58-.23-.87-.35-.05-.03-.1-.05-.15-.07-.14-.08-.27-.18-.42-.26l.92.05z"
          ></path>
          <path
            fill="#fff"
            strokeLinejoin="round"
            strokeWidth="1.564"
            d="M453.7 510.41c.12.09.24.18.38.25.04.02.08.04.13.06.29.11.58.23.86.35.06.03.11.05.17.08.12.04.31.1.42.14.27.09.54.17.81.25.67.21 1.36.38 2.04.58.51.13 1.02.29 1.53.44.22.06.45.12.68.19.33.11.68.18 1.02.27-1.41-.3-.66-.11-.33-.09.07.01.19.01.26.01.1 0 .2-.01.3-.02l.81.3c-.1.01-.21.02-.32.01H462.05l-.12-.03c-.69-.11 1.82.37-1.08-.21-.3-.08-.61-.17-.91-.27-.72-.22-1.45-.43-2.18-.63-.69-.2-1.39-.37-2.08-.57-.49-.15-.98-.29-1.46-.49-.29-.12-.58-.23-.87-.35-.05-.02-.1-.04-.15-.07-.14-.07-.27-.18-.41-.26l.91.06z"
          ></path>
          <path
            fill="#fff"
            strokeLinejoin="round"
            strokeWidth="1.564"
            d="M456.17 507.04c.12.09.24.18.38.25.04.02.09.04.13.06.29.11.58.23.86.35.06.03.12.06.17.08l.43.14c.26.09.53.17.8.25.67.21 1.36.38 2.04.58.52.13 1.02.3 1.53.44.22.06.45.12.68.19.33.11.68.18 1.02.27-1.41-.3-.66-.11-.33-.09.07.01.19.01.27.01.09 0 .19-.01.29-.02l.81.3c-.1.01-.21.02-.31.01H464.52l-.12-.03c-.69-.11 1.82.38-1.07-.21-.31-.08-.62-.17-.92-.27-.72-.21-1.45-.43-2.18-.62-.69-.21-1.39-.38-2.07-.58-.5-.15-.99-.29-1.46-.48-.29-.13-.59-.24-.88-.36-.05-.02-.1-.04-.14-.07-.15-.07-.28-.18-.42-.26l.91.06z"
          ></path>
          <path
            fill="#fff"
            strokeLinejoin="round"
            strokeWidth="1.164"
            d="M471.16 492.57l-.4.58c-.11.16-.22.32-.33.49-.16.23-.32.45-.48.68-.14.21-.28.41-.42.62-.16.24-.33.47-.49.71-.17.24-.33.47-.49.71-.15.21-.3.43-.45.65-.14.2-.28.41-.42.61-.18.26-.36.52-.55.79-.14.2-.28.41-.42.62-.13.18-.26.37-.39.55-.13.19-.26.38-.39.58-.11.15-.22.31-.33.47-.1.14-.2.29-.3.43-.09.13-.18.27-.28.41-.1.15-.2.29-.31.44-.12.18-.24.36-.37.54-.1.14-.19.29-.29.43-.11.15-.21.31-.32.46-.08.12-.16.24-.24.35-.08.12-.16.23-.24.34-.06.1-.13.19-.19.29-.08.11-.16.23-.24.34s-.15.22-.23.33c-.09.13-.17.25-.25.37-.08.11-.16.23-.24.34l-.29.41c-.03.06-.07.11-.11.17l-.35.36.12-.18c.1-.13.19-.26.28-.39.08-.12.16-.23.24-.35s.17-.24.25-.36.15-.23.23-.34.16-.23.24-.34c.06-.1.13-.19.19-.29l.24-.33.24-.36c.11-.15.22-.31.32-.46.1-.14.2-.29.3-.43.12-.18.25-.36.37-.54.1-.15.2-.29.31-.44.09-.14.19-.27.28-.41.1-.14.2-.29.3-.43.1-.16.21-.32.32-.48.14-.19.27-.38.4-.57.13-.18.25-.37.38-.55.15-.21.29-.42.44-.63l.54-.78c.14-.21.28-.41.42-.62.15-.21.3-.43.45-.65.16-.23.33-.47.49-.71.16-.23.32-.47.49-.71.14-.2.28-.41.43-.62.15-.22.3-.44.46-.67l.33-.48c.13-.2.27-.39.4-.58l.35-.37z"
          ></path>
          <path
            fill="#c0ac2b"
            strokeLinejoin="round"
            strokeWidth="0.764"
            d="M465.82 508.82c8.99-7.55 9.85-9.42 7.65-11.98-.87-1.02-2.54-3.31-4.32-1.32l1.84-2.44 5.64 7.38c-3.38 4.16-5.84 5.14-10.81 8.36z"
          ></path>
        </g>
      </g>
    </svg>